<svg xmlns="http://www.w3.org/2000/svg" xmlns:xlink="http://www.w3.org/1999/xlink" width="1080" zoomAndPan="magnify" viewBox="0 0 810 809.999993" height="1080" preserveAspectRatio="xMidYMid meet" version="1.0"><defs><clipPath id="123a59d412"><path d="M 143 81 L 670 81 L 670 728.136719 L 143 728.136719 Z M 143 81 " clip-rule="nonzero"/></clipPath><clipPath id="051229310d"><path d="M 381.925781 140 L 579 140 L 579 394 L 381.925781 394 Z M 381.925781 140 " clip-rule="nonzero"/></clipPath><clipPath id="b1ae0d5dcd"><path d="M 381.925781 81 L 670 81 L 670 728.136719 L 381.925781 728.136719 Z M 381.925781 81 " clip-rule="nonzero"/></clipPath><clipPath id="feb2dd20b7"><path d="M 381.925781 383 L 437 383 L 437 556 L 381.925781 556 Z M 381.925781 383 " clip-rule="nonzero"/></clipPath><clipPath id="54e42756a6"><path d="M 381.925781 434 L 387 434 L 387 506 L 381.925781 506 Z M 381.925781 434 " clip-rule="nonzero"/></clipPath></defs><path fill="#0d02b1" d="M 417.070312 666.554688 C 411.503906 666.554688 406.953125 671.097656 406.953125 676.648438 C 406.953125 682.203125 411.503906 686.746094 417.070312 686.746094 L 487.882812 686.746094 C 493.445312 686.746094 497.996094 682.203125 497.996094 676.648438 C 497.996094 671.097656 493.445312 666.554688 487.882812 666.554688 Z M 417.070312 666.554688 " fill-opacity="1" fill-rule="nonzero"/><path fill="#0d02b1" d="M 356.878906 229.914062 C 340.1875 229.914062 326.023438 244.046875 326.023438 261.714844 L 326.023438 273.324219 C 326.023438 290.992188 339.679688 305.125 356.878906 305.125 C 357.382812 306.136719 357.890625 307.144531 357.890625 308.15625 C 351.820312 314.210938 348.785156 322.792969 349.289062 331.375 C 349.796875 339.453125 353.335938 347.023438 358.902344 352.574219 L 366.992188 360.652344 C 373.0625 366.710938 381.664062 370.242188 390.261719 370.242188 C 398.355469 370.242188 405.941406 367.214844 411.503906 361.660156 C 412.515625 362.167969 413.527344 362.671875 414.539062 362.671875 C 414.539062 379.328125 428.703125 393.464844 446.40625 393.464844 L 458.039062 393.464844 C 475.742188 393.464844 489.90625 379.835938 489.90625 362.671875 C 490.917969 362.167969 491.929688 361.660156 492.941406 361.660156 C 498.503906 367.214844 506.089844 370.242188 514.183594 370.242188 C 522.78125 370.242188 530.875 366.710938 537.449219 360.652344 L 546.050781 352.070312 C 558.695312 339.453125 558.695312 319.765625 547.0625 307.648438 C 547.566406 306.640625 548.074219 305.628906 548.074219 304.621094 C 564.765625 304.621094 578.925781 290.488281 578.925781 272.820312 L 578.925781 261.210938 C 578.925781 243.542969 565.269531 229.40625 548.074219 229.40625 C 547.566406 228.398438 547.0625 227.386719 547.0625 226.378906 C 559.199219 214.265625 558.695312 194.578125 546.050781 181.957031 L 537.449219 173.375 C 531.382812 167.320312 522.78125 163.785156 514.183594 163.785156 C 506.089844 163.785156 498.503906 166.8125 492.941406 172.367188 C 491.929688 171.863281 490.917969 171.355469 489.90625 171.355469 C 489.90625 154.699219 475.742188 140.566406 458.039062 140.566406 L 446.40625 140.566406 C 428.703125 140.566406 414.539062 154.195312 414.539062 171.355469 C 413.527344 171.863281 412.515625 172.367188 411.503906 172.367188 C 405.941406 166.8125 398.355469 163.785156 390.261719 163.785156 C 381.664062 163.785156 373.570312 167.320312 366.992188 173.375 L 358.902344 181.957031 C 353.335938 187.511719 349.796875 195.082031 349.289062 203.160156 C 348.785156 211.738281 351.820312 220.320312 357.890625 226.378906 C 357.890625 227.894531 357.382812 228.902344 356.878906 229.914062 Z M 371.546875 250.105469 C 373.570312 240.511719 377.617188 231.425781 382.671875 223.351562 L 372.050781 212.75 C 368.003906 208.710938 368.511719 201.644531 373.0625 197.101562 L 381.15625 189.023438 C 383.683594 186.5 386.71875 185.492188 389.753906 185.492188 C 392.285156 185.492188 394.8125 186.5 396.835938 188.519531 L 407.457031 199.121094 C 415.550781 194.074219 424.65625 190.035156 434.265625 188.015625 L 434.265625 172.871094 C 434.265625 167.320312 439.324219 162.269531 445.898438 162.269531 L 457.535156 162.269531 C 464.109375 162.269531 469.167969 166.8125 469.167969 172.871094 L 469.167969 188.015625 C 478.777344 190.035156 487.882812 194.074219 495.976562 199.121094 L 506.597656 188.519531 C 508.621094 186.5 511.148438 185.492188 513.679688 185.492188 C 516.714844 185.492188 519.746094 187.003906 522.277344 189.023438 L 530.875 197.101562 C 535.429688 201.644531 535.933594 208.710938 531.886719 212.75 L 521.265625 223.351562 C 526.324219 231.425781 530.371094 240.511719 532.394531 250.105469 L 547.566406 250.105469 C 553.132812 250.105469 558.1875 255.152344 558.1875 261.714844 L 558.1875 273.324219 C 558.1875 279.886719 553.636719 284.933594 547.566406 284.933594 L 532.394531 284.933594 C 530.371094 294.523438 526.324219 303.609375 521.265625 311.6875 L 531.886719 322.289062 C 535.933594 326.328125 535.429688 333.394531 530.875 337.9375 L 523.289062 347.023438 C 520.757812 349.546875 517.722656 350.554688 514.691406 350.554688 C 512.160156 350.554688 509.632812 349.546875 507.609375 347.527344 L 496.988281 336.925781 C 488.894531 341.976562 479.789062 346.011719 470.179688 348.03125 L 470.179688 363.175781 C 470.179688 368.730469 465.121094 373.777344 458.546875 373.777344 L 446.910156 373.777344 C 440.335938 373.777344 435.277344 369.234375 435.277344 363.175781 L 435.277344 348.03125 C 425.667969 346.011719 416.5625 341.976562 408.46875 336.925781 L 397.847656 347.527344 C 395.824219 349.546875 393.296875 350.554688 390.765625 350.554688 C 387.730469 350.554688 384.695312 349.042969 382.167969 347.023438 L 373.0625 338.441406 C 368.511719 333.898438 368.003906 326.832031 372.050781 322.792969 L 382.671875 312.191406 C 377.617188 304.117188 373.570312 295.03125 371.546875 285.4375 L 356.371094 285.4375 C 350.808594 285.4375 345.75 280.390625 345.75 273.828125 L 345.75 262.21875 C 345.75 255.65625 350.300781 250.609375 356.371094 250.609375 L 371.546875 250.609375 Z M 371.546875 250.105469 " fill-opacity="1" fill-rule="nonzero"/><path fill="#0d02b1" d="M 452.476562 323.296875 C 483.328125 323.296875 508.113281 298.5625 508.113281 267.769531 C 508.113281 236.980469 483.328125 212.246094 452.476562 212.246094 C 421.621094 212.246094 396.835938 236.980469 396.835938 267.769531 C 396.835938 298.5625 421.621094 323.296875 452.476562 323.296875 Z M 452.476562 232.4375 C 472.203125 232.4375 487.882812 248.085938 487.882812 267.769531 C 487.882812 287.457031 472.203125 303.105469 452.476562 303.105469 C 432.75 303.105469 417.070312 287.457031 417.070312 267.769531 C 417.070312 248.085938 432.75 232.4375 452.476562 232.4375 Z M 452.476562 232.4375 " fill-opacity="1" fill-rule="nonzero"/><g clip-path="url(#123a59d412)"><path fill="#0d02b1" d="M 452.476562 81 C 435.785156 81 419.09375 83.019531 403.410156 86.550781 C 352.832031 94.628906 298.710938 119.363281 258.246094 154.195312 C 199.066406 204.671875 141.910156 327.335938 187.433594 405.074219 C 187.9375 406.082031 187.9375 407.09375 187.433594 407.597656 L 145.957031 497.953125 C 145.957031 498.460938 145.449219 498.460938 145.449219 498.964844 C 144.945312 500.476562 140.390625 516.632812 149.496094 529.757812 C 156.070312 538.84375 167.707031 543.890625 183.890625 544.394531 L 179.339844 576.703125 C 179.339844 577.207031 179.339844 578.214844 179.339844 578.71875 C 179.339844 582.253906 180.855469 585.28125 182.878906 587.808594 C 185.410156 590.332031 187.9375 591.339844 191.476562 592.351562 L 203.617188 594.367188 L 196.03125 604.464844 C 195.523438 604.96875 195.019531 605.472656 195.019531 606.484375 C 192.996094 610.523438 193.5 615.570312 195.523438 619.609375 L 203.113281 632.226562 C 207.160156 639.296875 209.6875 652.925781 209.6875 661.503906 L 209.179688 674.125 C 209.179688 691.289062 219.296875 706.433594 235.484375 712.992188 C 252.679688 720.0625 276.960938 720.566406 306.800781 714.507812 C 307.308594 714.507812 307.308594 714.507812 307.8125 714.507812 C 308.320312 714.507812 350.808594 702.394531 381.664062 721.574219 C 388.238281 725.613281 395.824219 728.136719 403.410156 728.136719 L 487.882812 728.136719 C 493.445312 728.136719 497.996094 723.59375 497.996094 718.042969 C 497.996094 712.488281 493.445312 707.945312 487.882812 707.945312 L 402.90625 707.945312 C 399.367188 707.945312 395.320312 706.9375 391.777344 704.414062 C 354.855469 681.695312 307.308594 693.308594 302.25 694.820312 C 269.878906 701.382812 252.175781 698.355469 243.070312 694.316406 C 234.472656 690.785156 229.414062 683.210938 229.414062 674.125 L 229.917969 661.503906 C 229.917969 650.402344 227.390625 633.238281 220.816406 622.132812 L 215.25 613.046875 L 226.378906 598.40625 C 226.886719 597.902344 227.390625 597.398438 227.390625 596.386719 C 230.425781 589.824219 228.402344 582.757812 222.332031 578.71875 C 221.320312 577.710938 219.804688 577.207031 218.285156 577.207031 L 200.582031 573.671875 L 204.628906 545.40625 C 204.628906 544.898438 204.628906 543.890625 204.628906 543.386719 C 204.125 527.230469 189.960938 525.214844 185.914062 525.214844 C 179.339844 525.214844 170.234375 523.699219 166.695312 518.652344 C 163.660156 514.109375 164.671875 507.546875 165.175781 506.03125 L 206.148438 416.179688 C 206.148438 415.675781 206.652344 415.167969 206.652344 414.664062 L 214.746094 414.664062 C 220.308594 414.664062 224.863281 410.121094 224.863281 404.570312 C 224.863281 399.015625 220.308594 394.472656 214.746094 394.472656 L 204.628906 394.472656 C 204.628906 394.472656 204.628906 394.472656 204.125 394.472656 C 165.683594 326.832031 218.792969 214.769531 271.394531 169.84375 C 277.464844 164.792969 284.042969 159.746094 290.617188 155.203125 C 256.222656 194.578125 234.976562 246.066406 234.976562 302.601562 C 234.976562 341.46875 245.09375 378.824219 263.808594 412.140625 C 266.339844 406.589844 269.371094 402.042969 273.925781 397.5 L 277.464844 393.96875 C 262.796875 365.699219 255.210938 334.402344 255.210938 302.097656 C 255.210938 191.546875 343.726562 101.191406 452.476562 101.191406 C 561.222656 101.191406 649.742188 191.546875 649.742188 302.097656 C 649.742188 354.089844 630.015625 403.558594 595.113281 440.914062 C 570.328125 467.164062 550.097656 499.46875 534.921875 536.824219 C 526.828125 557.015625 519.746094 589.824219 516.207031 613.550781 C 515.195312 620.617188 509.632812 626.171875 503.054688 626.171875 L 402.398438 626.171875 C 395.824219 626.171875 390.261719 620.617188 389.25 613.550781 C 387.226562 599.921875 384.191406 583.769531 380.652344 568.121094 C 375.085938 571.652344 368.511719 574.175781 361.429688 574.683594 C 364.96875 588.816406 367.5 603.960938 369.523438 616.074219 C 372.050781 633.238281 386.214844 645.855469 402.90625 645.855469 L 503.054688 645.855469 C 519.746094 645.855469 533.910156 633.238281 536.441406 616.074219 C 539.472656 594.367188 546.050781 562.566406 553.636719 543.890625 C 568.304688 508.554688 587.019531 478.269531 609.78125 454.039062 C 648.730469 412.644531 669.972656 358.632812 669.972656 301.085938 C 669.972656 179.9375 572.351562 81 452.476562 81 Z M 452.476562 81 " fill-opacity="1" fill-rule="nonzero"/></g><path fill="#0d02b1" d="M 279.488281 509.566406 C 279.996094 516.125 283.03125 522.6875 287.582031 527.738281 L 292.640625 532.785156 C 297.699219 537.832031 305.285156 540.863281 312.367188 540.863281 C 315.90625 540.863281 318.941406 540.355469 321.976562 539.347656 C 326.023438 548.9375 336.140625 555.5 347.265625 555.5 L 354.347656 555.5 C 365.476562 555.5 375.59375 548.9375 379.640625 539.347656 C 382.671875 540.355469 385.707031 540.863281 389.25 540.863281 C 396.332031 540.863281 403.917969 537.832031 408.976562 532.785156 L 414.035156 527.738281 C 422.125 519.660156 424.148438 508.050781 420.609375 498.460938 C 430.21875 494.421875 436.796875 484.324219 436.796875 473.21875 L 436.796875 466.152344 C 436.796875 455.046875 430.21875 444.953125 420.609375 440.914062 C 424.148438 431.324219 422.125 419.710938 414.035156 411.636719 L 408.976562 406.589844 C 403.917969 401.539062 396.332031 398.511719 389.25 398.511719 C 385.707031 398.511719 382.671875 399.015625 379.640625 400.027344 C 375.59375 390.433594 365.476562 383.871094 354.347656 383.871094 L 347.265625 383.871094 C 336.140625 383.871094 326.023438 390.433594 321.976562 400.027344 C 318.941406 399.015625 315.90625 398.511719 312.367188 398.511719 C 305.285156 398.511719 297.699219 401.539062 292.640625 406.589844 L 287.582031 411.636719 C 282.523438 416.683594 279.996094 422.742188 279.488281 429.808594 C 279.488281 433.847656 279.996094 437.378906 281.007812 440.914062 C 271.394531 444.953125 264.820312 455.046875 264.820312 466.152344 L 264.820312 473.21875 C 264.820312 484.324219 271.394531 494.421875 281.007812 498.460938 C 279.996094 501.992188 279.488281 506.03125 279.488281 509.566406 Z M 285.558594 466.152344 C 285.558594 462.113281 288.59375 459.085938 292.132812 459.085938 L 301.238281 459.085938 C 302.757812 453.027344 304.78125 447.476562 308.320312 442.429688 L 301.746094 435.867188 C 299.214844 433.339844 299.214844 428.796875 302.25 426.273438 L 307.308594 421.226562 C 308.824219 419.710938 310.847656 418.703125 312.871094 418.703125 C 314.390625 418.703125 315.90625 419.207031 317.425781 420.21875 L 324 426.78125 C 329.058594 423.75 334.621094 421.226562 340.691406 419.710938 L 340.691406 410.625 C 340.691406 407.09375 343.726562 404.0625 347.773438 404.0625 L 354.855469 404.0625 C 358.902344 404.0625 361.9375 407.09375 361.9375 410.625 L 361.9375 419.710938 C 368.003906 421.226562 373.570312 423.246094 378.628906 426.78125 L 385.203125 420.21875 C 386.214844 419.207031 387.730469 418.703125 389.753906 418.703125 C 391.777344 418.703125 393.800781 419.710938 395.320312 421.226562 L 400.378906 426.273438 C 403.410156 429.304688 403.410156 433.339844 400.882812 435.867188 L 394.308594 442.429688 C 397.34375 447.476562 399.871094 453.027344 401.390625 459.085938 L 410.492188 459.085938 C 414.035156 459.085938 417.070312 462.113281 417.070312 466.152344 L 417.070312 473.21875 C 417.070312 477.257812 414.035156 480.285156 410.492188 480.285156 L 401.390625 480.285156 C 399.871094 486.34375 397.847656 491.898438 394.308594 496.945312 L 400.882812 503.507812 C 403.410156 506.03125 403.410156 510.574219 400.378906 513.097656 L 395.320312 518.144531 C 393.800781 519.660156 391.777344 520.671875 389.753906 520.671875 C 388.238281 520.671875 386.71875 520.164062 385.203125 519.15625 L 378.628906 512.59375 C 373.570312 515.621094 368.003906 518.144531 361.9375 519.660156 L 361.9375 528.746094 C 361.9375 532.28125 358.902344 535.308594 354.855469 535.308594 L 347.773438 535.308594 C 343.726562 535.308594 340.691406 532.28125 340.691406 528.746094 L 340.691406 519.660156 C 334.621094 518.144531 329.058594 516.125 324 512.59375 L 317.425781 519.15625 C 316.414062 520.164062 314.894531 520.671875 312.871094 520.671875 C 310.847656 520.671875 308.824219 519.660156 307.308594 518.144531 L 302.25 513.097656 C 299.214844 510.070312 299.214844 506.03125 301.746094 503.507812 L 308.320312 496.945312 C 305.285156 491.898438 302.757812 486.34375 301.238281 480.285156 L 292.132812 480.285156 C 288.59375 480.285156 285.558594 477.257812 285.558594 473.21875 Z M 285.558594 466.152344 " fill-opacity="1" fill-rule="nonzero"/><path fill="#0d02b1" d="M 351.3125 505.023438 C 371.039062 505.023438 386.71875 489.375 386.71875 469.6875 C 386.71875 450 371.039062 434.351562 351.3125 434.351562 C 331.585938 434.351562 315.90625 450 315.90625 469.6875 C 315.90625 489.375 331.585938 505.023438 351.3125 505.023438 Z M 351.3125 454.542969 C 359.914062 454.542969 366.488281 461.105469 366.488281 469.6875 C 366.488281 478.269531 359.914062 484.828125 351.3125 484.828125 C 342.714844 484.828125 336.140625 478.269531 336.140625 469.6875 C 336.140625 461.105469 342.714844 454.542969 351.3125 454.542969 Z M 351.3125 454.542969 " fill-opacity="1" fill-rule="nonzero"/><path fill="#000000" d="M 417.070312 666.554688 C 411.503906 666.554688 406.953125 671.097656 406.953125 676.648438 C 406.953125 682.203125 411.503906 686.746094 417.070312 686.746094 L 487.882812 686.746094 C 493.445312 686.746094 498 682.203125 498 676.648438 C 498 671.097656 493.445312 666.554688 487.882812 666.554688 Z M 417.070312 666.554688 " fill-opacity="1" fill-rule="nonzero"/><g clip-path="url(#051229310d)"><path fill="#000000" d="M 356.878906 229.914062 C 340.1875 229.914062 326.023438 244.046875 326.023438 261.714844 L 326.023438 273.324219 C 326.023438 290.992188 339.679688 305.125 356.878906 305.125 C 357.382812 306.136719 357.890625 307.144531 357.890625 308.15625 C 351.820312 314.210938 348.785156 322.792969 349.289062 331.375 C 349.796875 339.453125 353.335938 347.023438 358.902344 352.574219 L 366.992188 360.652344 C 373.0625 366.710938 381.664062 370.242188 390.261719 370.242188 C 398.355469 370.242188 405.941406 367.214844 411.503906 361.660156 C 412.515625 362.167969 413.527344 362.671875 414.539062 362.671875 C 414.539062 379.328125 428.703125 393.464844 446.40625 393.464844 L 458.039062 393.464844 C 475.742188 393.464844 489.90625 379.835938 489.90625 362.671875 C 490.917969 362.167969 491.929688 361.660156 492.941406 361.660156 C 498.503906 367.214844 506.089844 370.242188 514.183594 370.242188 C 522.78125 370.242188 530.875 366.710938 537.449219 360.652344 L 546.050781 352.070312 C 558.695312 339.453125 558.695312 319.765625 547.0625 307.648438 C 547.566406 306.640625 548.074219 305.628906 548.074219 304.621094 C 564.765625 304.621094 578.925781 290.488281 578.925781 272.820312 L 578.925781 261.210938 C 578.925781 243.542969 565.269531 229.40625 548.074219 229.40625 C 547.566406 228.398438 547.0625 227.386719 547.0625 226.378906 C 559.199219 214.265625 558.695312 194.578125 546.050781 181.957031 L 537.449219 173.375 C 531.382812 167.320312 522.78125 163.785156 514.183594 163.785156 C 506.089844 163.785156 498.503906 166.8125 492.941406 172.367188 C 491.929688 171.863281 490.917969 171.355469 489.90625 171.355469 C 489.90625 154.699219 475.742188 140.566406 458.039062 140.566406 L 446.40625 140.566406 C 428.703125 140.566406 414.539062 154.195312 414.539062 171.355469 C 413.527344 171.863281 412.515625 172.367188 411.503906 172.367188 C 405.941406 166.8125 398.355469 163.785156 390.261719 163.785156 C 381.664062 163.785156 373.570312 167.320312 366.992188 173.375 L 358.902344 181.957031 C 353.335938 187.511719 349.796875 195.082031 349.289062 203.160156 C 348.785156 211.738281 351.820312 220.320312 357.890625 226.378906 C 357.890625 227.894531 357.382812 228.902344 356.878906 229.914062 Z M 371.546875 250.105469 C 373.570312 240.511719 377.617188 231.425781 382.671875 223.351562 L 372.050781 212.75 C 368.003906 208.710938 368.511719 201.644531 373.0625 197.101562 L 381.15625 189.023438 C 383.683594 186.5 386.71875 185.492188 389.753906 185.492188 C 392.285156 185.492188 394.8125 186.5 396.835938 188.519531 L 407.457031 199.121094 C 415.550781 194.074219 424.65625 190.035156 434.265625 188.015625 L 434.265625 172.871094 C 434.265625 167.320312 439.324219 162.269531 445.898438 162.269531 L 457.535156 162.269531 C 464.109375 162.269531 469.167969 166.8125 469.167969 172.871094 L 469.167969 188.015625 C 478.777344 190.035156 487.882812 194.074219 495.976562 199.121094 L 506.597656 188.519531 C 508.621094 186.5 511.148438 185.492188 513.679688 185.492188 C 516.714844 185.492188 519.746094 187.003906 522.277344 189.023438 L 530.875 197.101562 C 535.429688 201.644531 535.933594 208.710938 531.886719 212.75 L 521.265625 223.351562 C 526.324219 231.425781 530.371094 240.511719 532.394531 250.105469 L 547.566406 250.105469 C 553.132812 250.105469 558.1875 255.152344 558.1875 261.714844 L 558.1875 273.324219 C 558.1875 279.886719 553.636719 284.933594 547.566406 284.933594 L 532.394531 284.933594 C 530.371094 294.523438 526.324219 303.609375 521.265625 311.6875 L 531.886719 322.289062 C 535.933594 326.328125 535.429688 333.394531 530.875 337.9375 L 523.289062 347.023438 C 520.757812 349.546875 517.722656 350.554688 514.691406 350.554688 C 512.160156 350.554688 509.632812 349.546875 507.609375 347.527344 L 496.988281 336.925781 C 488.894531 341.976562 479.789062 346.011719 470.179688 348.03125 L 470.179688 363.175781 C 470.179688 368.730469 465.121094 373.777344 458.546875 373.777344 L 446.910156 373.777344 C 440.335938 373.777344 435.277344 369.234375 435.277344 363.175781 L 435.277344 348.03125 C 425.667969 346.011719 416.5625 341.976562 408.46875 336.925781 L 397.847656 347.527344 C 395.824219 349.546875 393.296875 350.554688 390.765625 350.554688 C 387.730469 350.554688 384.695312 349.042969 382.167969 347.023438 L 373.0625 338.441406 C 368.511719 333.898438 368.003906 326.832031 372.050781 322.792969 L 382.671875 312.191406 C 377.617188 304.117188 373.570312 295.03125 371.546875 285.4375 L 356.371094 285.4375 C 350.808594 285.4375 345.75 280.390625 345.75 273.828125 L 345.75 262.21875 C 345.75 255.65625 350.300781 250.609375 356.371094 250.609375 L 371.546875 250.609375 Z M 371.546875 250.105469 " fill-opacity="1" fill-rule="nonzero"/></g><path fill="#000000" d="M 452.476562 323.296875 C 483.328125 323.296875 508.113281 298.5625 508.113281 267.769531 C 508.113281 236.980469 483.328125 212.246094 452.476562 212.246094 C 421.621094 212.246094 396.835938 236.980469 396.835938 267.769531 C 396.835938 298.5625 421.621094 323.296875 452.476562 323.296875 Z M 452.476562 232.4375 C 472.203125 232.4375 487.882812 248.085938 487.882812 267.769531 C 487.882812 287.457031 472.203125 303.105469 452.476562 303.105469 C 432.75 303.105469 417.070312 287.457031 417.070312 267.769531 C 417.070312 248.085938 432.75 232.4375 452.476562 232.4375 Z M 452.476562 232.4375 " fill-opacity="1" fill-rule="nonzero"/><g clip-path="url(#b1ae0d5dcd)"><path fill="#000000" d="M 452.476562 81 C 435.785156 81 419.09375 83.019531 403.410156 86.550781 C 352.832031 94.628906 298.710938 119.363281 258.246094 154.195312 C 199.066406 204.671875 141.910156 327.335938 187.433594 405.074219 C 187.9375 406.082031 187.9375 407.09375 187.433594 407.597656 L 145.957031 497.953125 C 145.957031 498.460938 145.449219 498.460938 145.449219 498.964844 C 144.945312 500.476562 140.390625 516.632812 149.496094 529.757812 C 156.070312 538.84375 167.707031 543.890625 183.890625 544.394531 L 179.339844 576.703125 C 179.339844 577.207031 179.339844 578.214844 179.339844 578.71875 C 179.339844 582.253906 180.855469 585.28125 182.878906 587.808594 C 185.410156 590.332031 187.9375 591.339844 191.476562 592.351562 L 203.617188 594.367188 L 196.03125 604.464844 C 195.523438 604.96875 195.019531 605.472656 195.019531 606.484375 C 192.996094 610.523438 193.5 615.570312 195.523438 619.609375 L 203.113281 632.226562 C 207.160156 639.296875 209.6875 652.925781 209.6875 661.503906 L 209.179688 674.125 C 209.179688 691.289062 219.296875 706.433594 235.484375 712.992188 C 252.679688 720.0625 276.960938 720.566406 306.800781 714.507812 C 307.308594 714.507812 307.308594 714.507812 307.8125 714.507812 C 308.320312 714.507812 350.808594 702.394531 381.664062 721.574219 C 388.238281 725.613281 395.824219 728.136719 403.410156 728.136719 L 487.882812 728.136719 C 493.445312 728.136719 498 723.59375 498 718.042969 C 498 712.488281 493.445312 707.945312 487.882812 707.945312 L 402.90625 707.945312 C 399.367188 707.945312 395.320312 706.9375 391.777344 704.414062 C 354.855469 681.695312 307.308594 693.308594 302.25 694.820312 C 269.878906 701.382812 252.175781 698.355469 243.070312 694.316406 C 234.472656 690.785156 229.414062 683.210938 229.414062 674.125 L 229.917969 661.503906 C 229.917969 650.402344 227.390625 633.238281 220.816406 622.132812 L 215.25 613.046875 L 226.378906 598.40625 C 226.886719 597.902344 227.390625 597.398438 227.390625 596.386719 C 230.425781 589.824219 228.402344 582.757812 222.332031 578.71875 C 221.320312 577.710938 219.804688 577.207031 218.285156 577.207031 L 200.582031 573.671875 L 204.628906 545.40625 C 204.628906 544.898438 204.628906 543.890625 204.628906 543.386719 C 204.125 527.230469 189.960938 525.214844 185.914062 525.214844 C 179.339844 525.214844 170.234375 523.699219 166.695312 518.652344 C 163.660156 514.109375 164.671875 507.546875 165.175781 506.03125 L 206.148438 416.179688 C 206.148438 415.675781 206.652344 415.167969 206.652344 414.664062 L 214.746094 414.664062 C 220.308594 414.664062 224.863281 410.121094 224.863281 404.570312 C 224.863281 399.015625 220.308594 394.472656 214.746094 394.472656 L 204.628906 394.472656 C 204.628906 394.472656 204.628906 394.472656 204.125 394.472656 C 165.683594 326.832031 218.792969 214.769531 271.394531 169.84375 C 277.464844 164.792969 284.042969 159.746094 290.617188 155.203125 C 256.222656 194.578125 234.976562 246.066406 234.976562 302.601562 C 234.976562 341.46875 245.09375 378.824219 263.808594 412.140625 C 266.339844 406.589844 269.371094 402.042969 273.925781 397.5 L 277.464844 393.96875 C 262.796875 365.699219 255.210938 334.402344 255.210938 302.097656 C 255.210938 191.546875 343.726562 101.191406 452.476562 101.191406 C 561.222656 101.191406 649.742188 191.546875 649.742188 302.097656 C 649.742188 354.089844 630.015625 403.558594 595.113281 440.914062 C 570.328125 467.164062 550.097656 499.46875 534.921875 536.824219 C 526.828125 557.015625 519.746094 589.824219 516.207031 613.550781 C 515.195312 620.617188 509.632812 626.171875 503.054688 626.171875 L 402.398438 626.171875 C 395.824219 626.171875 390.261719 620.617188 389.25 613.550781 C 387.226562 599.921875 384.191406 583.769531 380.652344 568.121094 C 375.085938 571.652344 368.511719 574.175781 361.429688 574.683594 C 364.96875 588.816406 367.5 603.960938 369.523438 616.074219 C 372.050781 633.238281 386.214844 645.855469 402.90625 645.855469 L 503.054688 645.855469 C 519.746094 645.855469 533.910156 633.238281 536.441406 616.074219 C 539.472656 594.367188 546.050781 562.566406 553.636719 543.890625 C 568.304688 508.554688 587.019531 478.269531 609.78125 454.039062 C 648.730469 412.644531 669.972656 358.632812 669.972656 301.085938 C 669.972656 179.9375 572.351562 81 452.476562 81 Z M 452.476562 81 " fill-opacity="1" fill-rule="nonzero"/></g><g clip-path="url(#feb2dd20b7)"><path fill="#000000" d="M 279.488281 509.566406 C 279.996094 516.125 283.03125 522.6875 287.582031 527.738281 L 292.640625 532.785156 C 297.699219 537.832031 305.285156 540.863281 312.367188 540.863281 C 315.90625 540.863281 318.941406 540.355469 321.976562 539.347656 C 326.023438 548.9375 336.140625 555.5 347.265625 555.5 L 354.347656 555.5 C 365.476562 555.5 375.59375 548.9375 379.640625 539.347656 C 382.671875 540.355469 385.707031 540.863281 389.25 540.863281 C 396.332031 540.863281 403.917969 537.832031 408.976562 532.785156 L 414.035156 527.738281 C 422.125 519.660156 424.148438 508.050781 420.609375 498.460938 C 430.21875 494.421875 436.796875 484.324219 436.796875 473.21875 L 436.796875 466.152344 C 436.796875 455.046875 430.21875 444.953125 420.609375 440.914062 C 424.148438 431.324219 422.125 419.710938 414.035156 411.636719 L 408.976562 406.589844 C 403.917969 401.539062 396.332031 398.511719 389.25 398.511719 C 385.707031 398.511719 382.671875 399.015625 379.640625 400.027344 C 375.59375 390.433594 365.476562 383.871094 354.347656 383.871094 L 347.265625 383.871094 C 336.140625 383.871094 326.023438 390.433594 321.976562 400.027344 C 318.941406 399.015625 315.90625 398.511719 312.367188 398.511719 C 305.285156 398.511719 297.699219 401.539062 292.640625 406.589844 L 287.582031 411.636719 C 282.523438 416.683594 279.996094 422.742188 279.488281 429.808594 C 279.488281 433.847656 279.996094 437.378906 281.007812 440.914062 C 271.394531 444.953125 264.820312 455.046875 264.820312 466.152344 L 264.820312 473.21875 C 264.820312 484.324219 271.394531 494.421875 281.007812 498.460938 C 279.996094 501.992188 279.488281 506.03125 279.488281 509.566406 Z M 285.558594 466.152344 C 285.558594 462.113281 288.59375 459.085938 292.132812 459.085938 L 301.238281 459.085938 C 302.757812 453.027344 304.78125 447.476562 308.320312 442.429688 L 301.746094 435.867188 C 299.214844 433.339844 299.214844 428.796875 302.25 426.273438 L 307.308594 421.226562 C 308.824219 419.710938 310.847656 418.703125 312.871094 418.703125 C 314.390625 418.703125 315.90625 419.207031 317.425781 420.21875 L 324 426.78125 C 329.058594 423.75 334.621094 421.226562 340.691406 419.710938 L 340.691406 410.625 C 340.691406 407.09375 343.726562 404.0625 347.773438 404.0625 L 354.855469 404.0625 C 358.902344 404.0625 361.9375 407.09375 361.9375 410.625 L 361.9375 419.710938 C 368.003906 421.226562 373.570312 423.246094 378.628906 426.78125 L 385.203125 420.21875 C 386.214844 419.207031 387.730469 418.703125 389.753906 418.703125 C 391.777344 418.703125 393.800781 419.710938 395.320312 421.226562 L 400.378906 426.273438 C 403.410156 429.304688 403.410156 433.339844 400.882812 435.867188 L 394.308594 442.429688 C 397.34375 447.476562 399.871094 453.027344 401.390625 459.085938 L 410.492188 459.085938 C 414.035156 459.085938 417.070312 462.113281 417.070312 466.152344 L 417.070312 473.21875 C 417.070312 477.257812 414.035156 480.285156 410.492188 480.285156 L 401.390625 480.285156 C 399.871094 486.34375 397.847656 491.898438 394.308594 496.945312 L 400.882812 503.507812 C 403.410156 506.03125 403.410156 510.574219 400.378906 513.097656 L 395.320312 518.144531 C 393.800781 519.660156 391.777344 520.671875 389.753906 520.671875 C 388.238281 520.671875 386.71875 520.164062 385.203125 519.15625 L 378.628906 512.59375 C 373.570312 515.621094 368.003906 518.144531 361.9375 519.660156 L 361.9375 528.746094 C 361.9375 532.28125 358.902344 535.308594 354.855469 535.308594 L 347.773438 535.308594 C 343.726562 535.308594 340.691406 532.28125 340.691406 528.746094 L 340.691406 519.660156 C 334.621094 518.144531 329.058594 516.125 324 512.59375 L 317.425781 519.15625 C 316.414062 520.164062 314.894531 520.671875 312.871094 520.671875 C 310.847656 520.671875 308.824219 519.660156 307.308594 518.144531 L 302.25 513.097656 C 299.214844 510.070312 299.214844 506.03125 301.746094 503.507812 L 308.320312 496.945312 C 305.285156 491.898438 302.757812 486.34375 301.238281 480.285156 L 292.132812 480.285156 C 288.59375 480.285156 285.558594 477.257812 285.558594 473.21875 Z M 285.558594 466.152344 " fill-opacity="1" fill-rule="nonzero"/></g><g clip-path="url(#54e42756a6)"><path fill="#000000" d="M 351.3125 505.023438 C 371.039062 505.023438 386.71875 489.375 386.71875 469.6875 C 386.71875 450 371.039062 434.351562 351.3125 434.351562 C 331.585938 434.351562 315.90625 450 315.90625 469.6875 C 315.90625 489.375 331.585938 505.023438 351.3125 505.023438 Z M 351.3125 454.542969 C 359.914062 454.542969 366.488281 461.105469 366.488281 469.6875 C 366.488281 478.269531 359.914062 484.828125 351.3125 484.828125 C 342.714844 484.828125 336.140625 478.269531 336.140625 469.6875 C 336.140625 461.105469 342.714844 454.542969 351.3125 454.542969 Z M 351.3125 454.542969 " fill-opacity="1" fill-rule="nonzero"/></g></svg>