<svg xmlns="http://www.w3.org/2000/svg" xmlns:xlink="http://www.w3.org/1999/xlink" width="1080" zoomAndPan="magnify" viewBox="0 0 810 809.999993" height="1080" preserveAspectRatio="xMidYMid meet" version="1.0"><defs><clipPath id="09c234b091"><path d="M 662 365 L 725.183594 365 L 725.183594 429 L 662 429 Z M 662 365 " clip-rule="nonzero"/></clipPath><clipPath id="ec039ff01e"><path d="M 662 81 L 725.183594 81 L 725.183594 145 L 662 145 Z M 662 81 " clip-rule="nonzero"/></clipPath><clipPath id="88ef087129"><path d="M 662 650 L 725.183594 650 L 725.183594 714 L 662 714 Z M 662 650 " clip-rule="nonzero"/></clipPath><clipPath id="44fc7c9e87"><path d="M 669 365 L 732.417969 365 L 732.417969 429 L 669 429 Z M 669 365 " clip-rule="nonzero"/></clipPath><clipPath id="2787339c97"><path d="M 669 81 L 732.417969 81 L 732.417969 145 L 669 145 Z M 669 81 " clip-rule="nonzero"/></clipPath><clipPath id="6f1b0487bb"><path d="M 669 650 L 732.417969 650 L 732.417969 714 L 669 714 Z M 669 650 " clip-rule="nonzero"/></clipPath><clipPath id="83a64a44c4"><path d="M 379.414062 81 L 617 81 L 617 719 L 379.414062 719 Z M 379.414062 81 " clip-rule="nonzero"/></clipPath></defs><path fill="#0d02b1" d="M 124.964844 144.441406 C 126 144.441406 127.03125 144.390625 128.058594 144.289062 C 129.089844 144.1875 130.113281 144.035156 131.125 143.835938 C 132.140625 143.632812 133.144531 143.382812 134.132812 143.082031 C 135.125 142.78125 136.097656 142.433594 137.054688 142.035156 C 138.007812 141.640625 138.941406 141.199219 139.855469 140.710938 C 140.769531 140.222656 141.652344 139.6875 142.515625 139.113281 C 143.375 138.539062 144.203125 137.921875 145.003906 137.265625 C 145.804688 136.609375 146.570312 135.914062 147.300781 135.183594 C 148.03125 134.449219 148.726562 133.683594 149.382812 132.882812 C 150.039062 132.082031 150.65625 131.253906 151.230469 130.390625 C 151.804688 129.53125 152.335938 128.644531 152.824219 127.730469 C 153.3125 126.816406 153.753906 125.882812 154.148438 124.925781 C 154.546875 123.96875 154.894531 122.996094 155.195312 122.003906 C 155.496094 121.011719 155.746094 120.011719 155.945312 118.996094 C 156.148438 117.980469 156.300781 116.957031 156.402344 115.925781 C 156.503906 114.894531 156.554688 113.863281 156.554688 112.828125 C 156.554688 111.789062 156.503906 110.757812 156.402344 109.726562 C 156.300781 108.695312 156.148438 107.675781 155.945312 106.660156 C 155.746094 105.644531 155.496094 104.640625 155.195312 103.648438 C 154.894531 102.65625 154.546875 101.683594 154.148438 100.726562 C 153.753906 99.769531 153.3125 98.835938 152.824219 97.921875 C 152.335938 97.007812 151.804688 96.121094 151.230469 95.261719 C 150.65625 94.402344 150.039062 93.570312 149.382812 92.769531 C 148.726562 91.96875 148.03125 91.203125 147.300781 90.46875 C 146.570312 89.738281 145.804688 89.042969 145.003906 88.386719 C 144.203125 87.730469 143.375 87.113281 142.515625 86.539062 C 141.652344 85.964844 140.769531 85.433594 139.855469 84.945312 C 138.941406 84.457031 138.007812 84.011719 137.054688 83.617188 C 136.097656 83.222656 135.125 82.871094 134.132812 82.570312 C 133.144531 82.269531 132.140625 82.019531 131.125 81.816406 C 130.113281 81.617188 129.089844 81.464844 128.058594 81.363281 C 127.03125 81.261719 126 81.210938 124.964844 81.210938 C 123.929688 81.210938 122.898438 81.261719 121.867188 81.363281 C 120.835938 81.464844 119.816406 81.617188 118.800781 81.816406 C 117.785156 82.019531 116.785156 82.269531 115.792969 82.570312 C 114.804688 82.871094 113.832031 83.222656 112.875 83.617188 C 111.917969 84.011719 110.984375 84.457031 110.070312 84.945312 C 109.160156 85.433594 108.273438 85.964844 107.414062 86.539062 C 106.550781 87.113281 105.722656 87.730469 104.921875 88.386719 C 104.121094 89.042969 103.355469 89.738281 102.625 90.46875 C 101.894531 91.203125 101.199219 91.96875 100.542969 92.769531 C 99.886719 93.570312 99.273438 94.402344 98.695312 95.261719 C 98.121094 96.121094 97.589844 97.007812 97.101562 97.921875 C 96.617188 98.835938 96.171875 99.769531 95.777344 100.726562 C 95.382812 101.683594 95.035156 102.65625 94.734375 103.648438 C 94.433594 104.640625 94.183594 105.644531 93.980469 106.660156 C 93.777344 107.675781 93.625 108.695312 93.523438 109.726562 C 93.421875 110.757812 93.371094 111.789062 93.371094 112.828125 C 93.371094 113.863281 93.421875 114.894531 93.523438 115.925781 C 93.625 116.957031 93.777344 117.980469 93.980469 118.996094 C 94.183594 120.011719 94.433594 121.011719 94.734375 122.003906 C 95.035156 122.996094 95.382812 123.96875 95.777344 124.925781 C 96.171875 125.882812 96.617188 126.816406 97.101562 127.730469 C 97.589844 128.644531 98.121094 129.53125 98.695312 130.390625 C 99.273438 131.253906 99.886719 132.082031 100.542969 132.882812 C 101.199219 133.683594 101.894531 134.449219 102.625 135.183594 C 103.355469 135.914062 104.121094 136.609375 104.921875 137.265625 C 105.722656 137.921875 106.550781 138.539062 107.414062 139.113281 C 108.273438 139.6875 109.160156 140.222656 110.070312 140.710938 C 110.984375 141.199219 111.917969 141.640625 112.875 142.035156 C 113.832031 142.433594 114.804688 142.78125 115.792969 143.082031 C 116.785156 143.382812 117.785156 143.632812 118.800781 143.835938 C 119.816406 144.035156 120.835938 144.1875 121.867188 144.289062 C 122.898438 144.390625 123.929688 144.441406 124.964844 144.441406 Z M 124.964844 102.289062 C 125.65625 102.289062 126.339844 102.355469 127.019531 102.492188 C 127.695312 102.625 128.355469 102.824219 128.992188 103.089844 C 129.632812 103.355469 130.238281 103.679688 130.8125 104.0625 C 131.390625 104.449219 131.921875 104.886719 132.410156 105.375 C 132.898438 105.863281 133.335938 106.394531 133.71875 106.972656 C 134.101562 107.546875 134.425781 108.152344 134.691406 108.792969 C 134.957031 109.433594 135.15625 110.089844 135.292969 110.769531 C 135.425781 111.449219 135.492188 112.132812 135.492188 112.828125 C 135.492188 113.519531 135.425781 114.203125 135.292969 114.882812 C 135.15625 115.5625 134.957031 116.21875 134.691406 116.859375 C 134.425781 117.5 134.101562 118.105469 133.71875 118.679688 C 133.335938 119.257812 132.898438 119.789062 132.410156 120.277344 C 131.921875 120.769531 131.390625 121.203125 130.8125 121.589844 C 130.238281 121.972656 129.632812 122.296875 128.992188 122.5625 C 128.355469 122.828125 127.695312 123.027344 127.019531 123.164062 C 126.339844 123.296875 125.65625 123.363281 124.964844 123.363281 C 124.273438 123.363281 123.585938 123.296875 122.910156 123.164062 C 122.230469 123.027344 121.574219 122.828125 120.933594 122.5625 C 120.296875 122.296875 119.6875 121.972656 119.113281 121.589844 C 118.539062 121.203125 118.007812 120.769531 117.519531 120.277344 C 117.027344 119.789062 116.59375 119.257812 116.207031 118.679688 C 115.824219 118.105469 115.5 117.5 115.234375 116.859375 C 114.96875 116.21875 114.769531 115.5625 114.636719 114.882812 C 114.5 114.203125 114.433594 113.519531 114.433594 112.828125 C 114.433594 112.132812 114.5 111.449219 114.636719 110.769531 C 114.769531 110.089844 114.96875 109.433594 115.234375 108.792969 C 115.5 108.152344 115.824219 107.546875 116.207031 106.972656 C 116.59375 106.394531 117.027344 105.863281 117.519531 105.375 C 118.007812 104.886719 118.539062 104.449219 119.113281 104.0625 C 119.6875 103.679688 120.296875 103.355469 120.933594 103.089844 C 121.574219 102.824219 122.230469 102.625 122.910156 102.492188 C 123.585938 102.355469 124.273438 102.289062 124.964844 102.289062 Z M 124.964844 102.289062 " fill-opacity="1" fill-rule="nonzero"/><g clip-path="url(#09c234b091)"><path fill="#0d02b1" d="M 693.59375 365.753906 C 692.558594 365.753906 691.527344 365.804688 690.5 365.90625 C 689.46875 366.007812 688.445312 366.160156 687.429688 366.359375 C 686.417969 366.5625 685.414062 366.8125 684.425781 367.113281 C 683.433594 367.414062 682.460938 367.765625 681.503906 368.160156 C 680.550781 368.554688 679.617188 369 678.703125 369.488281 C 677.789062 369.976562 676.902344 370.507812 676.042969 371.082031 C 675.183594 371.65625 674.351562 372.273438 673.554688 372.929688 C 672.753906 373.585938 671.988281 374.28125 671.257812 375.011719 C 670.523438 375.746094 669.832031 376.511719 669.175781 377.3125 C 668.519531 378.113281 667.902344 378.945312 667.328125 379.804688 C 666.753906 380.664062 666.222656 381.550781 665.734375 382.464844 C 665.246094 383.378906 664.804688 384.3125 664.410156 385.269531 C 664.011719 386.226562 663.664062 387.199219 663.363281 388.191406 C 663.0625 389.183594 662.8125 390.1875 662.609375 391.203125 C 662.410156 392.21875 662.257812 393.238281 662.15625 394.269531 C 662.054688 395.300781 662.003906 396.332031 662.003906 397.371094 C 662.003906 398.40625 662.054688 399.4375 662.15625 400.46875 C 662.257812 401.5 662.410156 402.523438 662.609375 403.539062 C 662.8125 404.554688 663.0625 405.554688 663.363281 406.546875 C 663.664062 407.539062 664.011719 408.511719 664.410156 409.46875 C 664.804688 410.425781 665.246094 411.359375 665.734375 412.273438 C 666.222656 413.1875 666.753906 414.074219 667.328125 414.933594 C 667.902344 415.796875 668.519531 416.625 669.175781 417.425781 C 669.832031 418.226562 670.523438 418.992188 671.257812 419.726562 C 671.988281 420.457031 672.753906 421.152344 673.554688 421.808594 C 674.351562 422.464844 675.183594 423.082031 676.042969 423.65625 C 676.902344 424.230469 677.789062 424.765625 678.703125 425.253906 C 679.617188 425.738281 680.550781 426.183594 681.503906 426.578125 C 682.460938 426.976562 683.433594 427.324219 684.425781 427.625 C 685.414062 427.925781 686.417969 428.175781 687.429688 428.378906 C 688.445312 428.578125 689.46875 428.730469 690.5 428.832031 C 691.527344 428.933594 692.558594 428.984375 693.59375 428.984375 C 694.628906 428.984375 695.660156 428.933594 696.691406 428.832031 C 697.71875 428.730469 698.742188 428.578125 699.757812 428.378906 C 700.773438 428.175781 701.773438 427.925781 702.765625 427.625 C 703.753906 427.324219 704.726562 426.976562 705.683594 426.578125 C 706.640625 426.183594 707.574219 425.738281 708.484375 425.253906 C 709.398438 424.765625 710.285156 424.230469 711.144531 423.65625 C 712.003906 423.082031 712.835938 422.464844 713.636719 421.808594 C 714.433594 421.152344 715.199219 420.457031 715.933594 419.726562 C 716.664062 418.992188 717.359375 418.226562 718.015625 417.425781 C 718.671875 416.625 719.285156 415.796875 719.859375 414.933594 C 720.4375 414.074219 720.96875 413.1875 721.453125 412.273438 C 721.941406 411.359375 722.382812 410.425781 722.78125 409.46875 C 723.175781 408.511719 723.523438 407.539062 723.824219 406.546875 C 724.125 405.554688 724.375 404.554688 724.578125 403.539062 C 724.78125 402.523438 724.933594 401.5 725.03125 400.46875 C 725.132812 399.4375 725.183594 398.40625 725.183594 397.371094 C 725.183594 396.332031 725.132812 395.300781 725.03125 394.269531 C 724.933594 393.238281 724.78125 392.21875 724.578125 391.203125 C 724.375 390.1875 724.125 389.183594 723.824219 388.191406 C 723.523438 387.199219 723.175781 386.226562 722.78125 385.269531 C 722.382812 384.3125 721.941406 383.378906 721.453125 382.464844 C 720.96875 381.550781 720.4375 380.664062 719.859375 379.804688 C 719.285156 378.945312 718.671875 378.113281 718.015625 377.3125 C 717.359375 376.511719 716.664062 375.746094 715.933594 375.011719 C 715.199219 374.28125 714.433594 373.585938 713.636719 372.929688 C 712.835938 372.273438 712.003906 371.65625 711.144531 371.082031 C 710.285156 370.507812 709.398438 369.976562 708.484375 369.488281 C 707.574219 369 706.640625 368.554688 705.683594 368.160156 C 704.726562 367.765625 703.753906 367.414062 702.765625 367.113281 C 701.773438 366.8125 700.773438 366.5625 699.757812 366.359375 C 698.742188 366.160156 697.71875 366.007812 696.691406 365.90625 C 695.660156 365.804688 694.628906 365.753906 693.59375 365.753906 Z M 693.59375 407.90625 C 692.902344 407.90625 692.21875 407.839844 691.539062 407.707031 C 690.863281 407.570312 690.203125 407.371094 689.566406 407.105469 C 688.925781 406.839844 688.320312 406.515625 687.746094 406.132812 C 687.167969 405.746094 686.636719 405.3125 686.148438 404.820312 C 685.660156 404.332031 685.222656 403.800781 684.839844 403.222656 C 684.453125 402.648438 684.128906 402.042969 683.867188 401.402344 C 683.601562 400.761719 683.402344 400.105469 683.265625 399.425781 C 683.132812 398.746094 683.0625 398.0625 683.0625 397.371094 C 683.0625 396.675781 683.132812 395.992188 683.265625 395.3125 C 683.402344 394.632812 683.601562 393.976562 683.867188 393.335938 C 684.128906 392.695312 684.453125 392.089844 684.839844 391.515625 C 685.222656 390.9375 685.660156 390.40625 686.148438 389.917969 C 686.636719 389.429688 687.167969 388.992188 687.746094 388.605469 C 688.320312 388.222656 688.925781 387.898438 689.566406 387.632812 C 690.203125 387.367188 690.863281 387.167969 691.539062 387.035156 C 692.21875 386.898438 692.902344 386.832031 693.59375 386.832031 C 694.285156 386.832031 694.972656 386.898438 695.648438 387.035156 C 696.328125 387.167969 696.984375 387.367188 697.625 387.632812 C 698.261719 387.898438 698.871094 388.222656 699.445312 388.605469 C 700.019531 388.992188 700.550781 389.429688 701.039062 389.917969 C 701.53125 390.40625 701.964844 390.9375 702.351562 391.515625 C 702.734375 392.089844 703.058594 392.695312 703.324219 393.335938 C 703.585938 393.976562 703.789062 394.632812 703.921875 395.3125 C 704.058594 395.992188 704.125 396.675781 704.125 397.371094 C 704.125 398.0625 704.058594 398.746094 703.921875 399.425781 C 703.789062 400.105469 703.585938 400.761719 703.324219 401.402344 C 703.058594 402.042969 702.734375 402.648438 702.351562 403.222656 C 701.964844 403.800781 701.53125 404.332031 701.039062 404.820312 C 700.550781 405.3125 700.019531 405.746094 699.445312 406.132812 C 698.871094 406.515625 698.261719 406.839844 697.625 407.105469 C 696.984375 407.371094 696.328125 407.570312 695.648438 407.707031 C 694.972656 407.839844 694.285156 407.90625 693.59375 407.90625 Z M 693.59375 407.90625 " fill-opacity="1" fill-rule="nonzero"/></g><path fill="#0d02b1" d="M 409.277344 650.296875 C 408.246094 650.296875 407.210938 650.347656 406.183594 650.449219 C 405.152344 650.550781 404.128906 650.703125 403.117188 650.902344 C 402.101562 651.105469 401.097656 651.355469 400.109375 651.65625 C 399.117188 651.957031 398.144531 652.308594 397.191406 652.703125 C 396.234375 653.097656 395.300781 653.542969 394.386719 654.03125 C 393.476562 654.519531 392.589844 655.050781 391.726562 655.625 C 390.867188 656.199219 390.039062 656.816406 389.238281 657.472656 C 388.4375 658.128906 387.671875 658.824219 386.941406 659.554688 C 386.210938 660.289062 385.515625 661.054688 384.859375 661.855469 C 384.203125 662.65625 383.585938 663.488281 383.011719 664.347656 C 382.4375 665.207031 381.90625 666.09375 381.417969 667.007812 C 380.929688 667.921875 380.488281 668.855469 380.09375 669.8125 C 379.695312 670.769531 379.347656 671.742188 379.046875 672.734375 C 378.75 673.726562 378.496094 674.730469 378.296875 675.746094 C 378.09375 676.761719 377.941406 677.78125 377.839844 678.8125 C 377.738281 679.84375 377.6875 680.875 377.6875 681.914062 C 377.6875 682.949219 377.738281 683.980469 377.839844 685.011719 C 377.941406 686.042969 378.09375 687.066406 378.296875 688.082031 C 378.496094 689.097656 378.75 690.097656 379.046875 691.089844 C 379.347656 692.082031 379.695312 693.054688 380.09375 694.011719 C 380.488281 694.96875 380.929688 695.902344 381.417969 696.816406 C 381.90625 697.730469 382.4375 698.617188 383.011719 699.476562 C 383.585938 700.339844 384.203125 701.167969 384.859375 701.96875 C 385.515625 702.769531 386.210938 703.535156 386.941406 704.269531 C 387.671875 705 388.4375 705.695312 389.238281 706.351562 C 390.039062 707.007812 390.867188 707.625 391.726562 708.199219 C 392.589844 708.773438 393.476562 709.308594 394.386719 709.796875 C 395.300781 710.28125 396.234375 710.726562 397.191406 711.121094 C 398.144531 711.519531 399.117188 711.867188 400.109375 712.167969 C 401.097656 712.46875 402.101562 712.71875 403.117188 712.921875 C 404.128906 713.121094 405.152344 713.273438 406.183594 713.375 C 407.210938 713.476562 408.246094 713.527344 409.277344 713.527344 C 410.3125 713.527344 411.347656 713.476562 412.375 713.375 C 413.40625 713.273438 414.425781 713.121094 415.441406 712.921875 C 416.457031 712.71875 417.460938 712.46875 418.449219 712.167969 C 419.4375 711.867188 420.414062 711.519531 421.367188 711.121094 C 422.324219 710.726562 423.257812 710.28125 424.171875 709.796875 C 425.082031 709.308594 425.96875 708.773438 426.828125 708.199219 C 427.691406 707.625 428.519531 707.007812 429.320312 706.351562 C 430.121094 705.695312 430.886719 705 431.617188 704.269531 C 432.347656 703.535156 433.042969 702.769531 433.699219 701.96875 C 434.355469 701.167969 434.972656 700.339844 435.546875 699.476562 C 436.121094 698.617188 436.652344 697.730469 437.140625 696.816406 C 437.628906 695.902344 438.070312 694.96875 438.464844 694.011719 C 438.859375 693.054688 439.210938 692.082031 439.507812 691.089844 C 439.808594 690.097656 440.0625 689.097656 440.261719 688.082031 C 440.464844 687.066406 440.617188 686.042969 440.71875 685.011719 C 440.820312 683.980469 440.871094 682.949219 440.871094 681.914062 C 440.871094 680.875 440.820312 679.84375 440.71875 678.8125 C 440.617188 677.78125 440.464844 676.761719 440.261719 675.746094 C 440.0625 674.730469 439.808594 673.726562 439.507812 672.734375 C 439.210938 671.742188 438.859375 670.769531 438.464844 669.8125 C 438.070312 668.855469 437.628906 667.921875 437.140625 667.007812 C 436.652344 666.09375 436.121094 665.207031 435.546875 664.347656 C 434.972656 663.488281 434.355469 662.65625 433.699219 661.855469 C 433.042969 661.054688 432.347656 660.289062 431.617188 659.554688 C 430.886719 658.824219 430.121094 658.128906 429.320312 657.472656 C 428.519531 656.816406 427.691406 656.199219 426.828125 655.625 C 425.96875 655.050781 425.082031 654.519531 424.171875 654.03125 C 423.257812 653.542969 422.324219 653.097656 421.367188 652.703125 C 420.414062 652.308594 419.4375 651.957031 418.449219 651.65625 C 417.460938 651.355469 416.457031 651.105469 415.441406 650.902344 C 414.425781 650.703125 413.40625 650.550781 412.375 650.449219 C 411.347656 650.347656 410.3125 650.296875 409.277344 650.296875 Z M 409.277344 692.449219 C 408.585938 692.449219 407.902344 692.382812 407.226562 692.25 C 406.546875 692.113281 405.886719 691.914062 405.25 691.648438 C 404.609375 691.382812 404.003906 691.058594 403.429688 690.675781 C 402.855469 690.289062 402.320312 689.855469 401.832031 689.363281 C 401.34375 688.875 400.90625 688.34375 400.523438 687.765625 C 400.140625 687.191406 399.816406 686.585938 399.550781 685.945312 C 399.285156 685.304688 399.085938 684.648438 398.953125 683.96875 C 398.816406 683.289062 398.75 682.605469 398.75 681.914062 C 398.75 681.21875 398.816406 680.535156 398.953125 679.855469 C 399.085938 679.175781 399.285156 678.519531 399.550781 677.878906 C 399.816406 677.238281 400.140625 676.632812 400.523438 676.058594 C 400.90625 675.480469 401.34375 674.949219 401.832031 674.460938 C 402.320312 673.972656 402.855469 673.535156 403.429688 673.148438 C 404.003906 672.765625 404.609375 672.441406 405.25 672.175781 C 405.886719 671.910156 406.546875 671.710938 407.226562 671.578125 C 407.902344 671.441406 408.585938 671.375 409.277344 671.375 C 409.96875 671.375 410.65625 671.441406 411.332031 671.574219 C 412.011719 671.710938 412.671875 671.910156 413.308594 672.175781 C 413.949219 672.441406 414.554688 672.765625 415.128906 673.148438 C 415.703125 673.535156 416.234375 673.972656 416.726562 674.460938 C 417.214844 674.949219 417.652344 675.480469 418.035156 676.058594 C 418.417969 676.632812 418.742188 677.238281 419.007812 677.878906 C 419.273438 678.519531 419.472656 679.175781 419.605469 679.855469 C 419.742188 680.535156 419.808594 681.21875 419.808594 681.914062 C 419.808594 682.605469 419.742188 683.289062 419.605469 683.96875 C 419.472656 684.648438 419.273438 685.304688 419.007812 685.945312 C 418.742188 686.585938 418.417969 687.191406 418.035156 687.765625 C 417.652344 688.34375 417.214844 688.875 416.726562 689.363281 C 416.234375 689.855469 415.703125 690.289062 415.128906 690.675781 C 414.554688 691.058594 413.949219 691.382812 413.308594 691.648438 C 412.671875 691.914062 412.011719 692.113281 411.332031 692.25 C 410.65625 692.382812 409.96875 692.449219 409.277344 692.449219 Z M 409.277344 692.449219 " fill-opacity="1" fill-rule="nonzero"/><g clip-path="url(#ec039ff01e)"><path fill="#0d02b1" d="M 714.65625 102.289062 L 704.125 102.289062 L 704.125 91.75 C 704.125 91.058594 704.058594 90.371094 703.921875 89.691406 C 703.789062 89.015625 703.585938 88.355469 703.324219 87.714844 C 703.058594 87.078125 702.734375 86.46875 702.351562 85.894531 C 701.964844 85.320312 701.53125 84.785156 701.039062 84.296875 C 700.550781 83.808594 700.019531 83.371094 699.445312 82.988281 C 698.871094 82.601562 698.261719 82.277344 697.625 82.011719 C 696.984375 81.746094 696.328125 81.546875 695.648438 81.414062 C 694.972656 81.277344 694.285156 81.210938 693.59375 81.210938 C 692.902344 81.210938 692.21875 81.277344 691.539062 81.414062 C 690.863281 81.546875 690.203125 81.746094 689.566406 82.011719 C 688.925781 82.277344 688.320312 82.601562 687.746094 82.988281 C 687.167969 83.371094 686.636719 83.808594 686.148438 84.296875 C 685.660156 84.785156 685.222656 85.320312 684.839844 85.894531 C 684.453125 86.46875 684.128906 87.078125 683.867188 87.714844 C 683.601562 88.355469 683.402344 89.015625 683.265625 89.691406 C 683.132812 90.371094 683.0625 91.058594 683.0625 91.75 L 683.0625 102.289062 L 672.535156 102.289062 C 671.84375 102.289062 671.15625 102.355469 670.480469 102.492188 C 669.800781 102.625 669.144531 102.824219 668.503906 103.089844 C 667.867188 103.355469 667.257812 103.679688 666.683594 104.0625 C 666.109375 104.449219 665.578125 104.886719 665.089844 105.375 C 664.597656 105.863281 664.164062 106.394531 663.777344 106.972656 C 663.394531 107.546875 663.070312 108.152344 662.804688 108.792969 C 662.539062 109.433594 662.339844 110.089844 662.207031 110.769531 C 662.070312 111.449219 662.003906 112.132812 662.003906 112.828125 C 662.003906 113.519531 662.070312 114.203125 662.207031 114.882812 C 662.339844 115.5625 662.539062 116.21875 662.804688 116.859375 C 663.070312 117.5 663.394531 118.105469 663.777344 118.679688 C 664.164062 119.257812 664.597656 119.789062 665.089844 120.277344 C 665.578125 120.769531 666.109375 121.203125 666.683594 121.589844 C 667.257812 121.972656 667.867188 122.296875 668.503906 122.5625 C 669.144531 122.828125 669.800781 123.027344 670.480469 123.164062 C 671.15625 123.296875 671.84375 123.363281 672.535156 123.363281 L 683.0625 123.363281 L 683.0625 133.902344 C 683.0625 134.59375 683.132812 135.28125 683.265625 135.960938 C 683.402344 136.636719 683.601562 137.296875 683.867188 137.9375 C 684.128906 138.574219 684.453125 139.183594 684.839844 139.757812 C 685.222656 140.335938 685.660156 140.867188 686.148438 141.355469 C 686.636719 141.84375 687.167969 142.28125 687.746094 142.667969 C 688.320312 143.050781 688.925781 143.375 689.566406 143.640625 C 690.203125 143.90625 690.863281 144.105469 691.539062 144.238281 C 692.21875 144.375 692.902344 144.441406 693.59375 144.441406 C 694.285156 144.441406 694.972656 144.375 695.648438 144.238281 C 696.328125 144.105469 696.984375 143.90625 697.625 143.640625 C 698.261719 143.375 698.871094 143.050781 699.445312 142.667969 C 700.019531 142.28125 700.550781 141.84375 701.039062 141.355469 C 701.53125 140.867188 701.964844 140.335938 702.351562 139.757812 C 702.734375 139.183594 703.058594 138.574219 703.324219 137.9375 C 703.585938 137.296875 703.789062 136.636719 703.921875 135.960938 C 704.058594 135.28125 704.125 134.59375 704.125 133.902344 L 704.125 123.363281 L 714.65625 123.363281 C 715.347656 123.363281 716.03125 123.296875 716.710938 123.164062 C 717.386719 123.027344 718.046875 122.828125 718.683594 122.5625 C 719.324219 122.296875 719.929688 121.972656 720.503906 121.589844 C 721.082031 121.203125 721.613281 120.769531 722.101562 120.277344 C 722.589844 119.789062 723.027344 119.257812 723.410156 118.679688 C 723.792969 118.105469 724.117188 117.5 724.382812 116.859375 C 724.648438 116.21875 724.847656 115.5625 724.984375 114.882812 C 725.117188 114.203125 725.183594 113.519531 725.183594 112.828125 C 725.183594 112.132812 725.117188 111.449219 724.984375 110.769531 C 724.847656 110.089844 724.648438 109.433594 724.382812 108.792969 C 724.117188 108.152344 723.792969 107.546875 723.410156 106.972656 C 723.027344 106.394531 722.589844 105.863281 722.101562 105.375 C 721.613281 104.886719 721.082031 104.449219 720.503906 104.0625 C 719.929688 103.679688 719.324219 103.355469 718.683594 103.089844 C 718.046875 102.824219 717.386719 102.625 716.710938 102.492188 C 716.03125 102.355469 715.347656 102.289062 714.65625 102.289062 Z M 714.65625 102.289062 " fill-opacity="1" fill-rule="nonzero"/></g><g clip-path="url(#88ef087129)"><path fill="#0d02b1" d="M 714.65625 671.375 L 704.125 671.375 L 704.125 660.835938 C 704.125 660.144531 704.058594 659.457031 703.921875 658.777344 C 703.789062 658.101562 703.585938 657.441406 703.324219 656.800781 C 703.058594 656.164062 702.734375 655.554688 702.351562 654.980469 C 701.964844 654.40625 701.53125 653.871094 701.039062 653.382812 C 700.550781 652.894531 700.019531 652.457031 699.445312 652.074219 C 698.871094 651.6875 698.261719 651.363281 697.625 651.097656 C 696.984375 650.832031 696.328125 650.632812 695.648438 650.5 C 694.972656 650.363281 694.285156 650.296875 693.59375 650.296875 C 692.902344 650.296875 692.21875 650.363281 691.539062 650.5 C 690.863281 650.632812 690.203125 650.832031 689.566406 651.097656 C 688.925781 651.363281 688.320312 651.6875 687.746094 652.074219 C 687.167969 652.457031 686.636719 652.894531 686.148438 653.382812 C 685.660156 653.871094 685.222656 654.40625 684.839844 654.980469 C 684.453125 655.554688 684.128906 656.164062 683.867188 656.800781 C 683.601562 657.441406 683.402344 658.101562 683.265625 658.777344 C 683.132812 659.457031 683.0625 660.144531 683.0625 660.835938 L 683.0625 671.375 L 672.535156 671.375 C 671.84375 671.375 671.15625 671.441406 670.480469 671.574219 C 669.800781 671.710938 669.144531 671.910156 668.503906 672.175781 C 667.867188 672.441406 667.257812 672.765625 666.683594 673.148438 C 666.109375 673.535156 665.578125 673.972656 665.089844 674.460938 C 664.597656 674.949219 664.164062 675.480469 663.777344 676.058594 C 663.394531 676.632812 663.070312 677.238281 662.804688 677.878906 C 662.539062 678.519531 662.339844 679.175781 662.207031 679.855469 C 662.070312 680.535156 662.003906 681.21875 662.003906 681.914062 C 662.003906 682.605469 662.070312 683.289062 662.207031 683.96875 C 662.339844 684.648438 662.539062 685.304688 662.804688 685.945312 C 663.070312 686.585938 663.394531 687.191406 663.777344 687.765625 C 664.164062 688.34375 664.597656 688.875 665.089844 689.363281 C 665.578125 689.855469 666.109375 690.289062 666.683594 690.675781 C 667.257812 691.058594 667.867188 691.382812 668.503906 691.648438 C 669.144531 691.914062 669.800781 692.113281 670.480469 692.25 C 671.15625 692.382812 671.84375 692.449219 672.535156 692.449219 L 683.0625 692.449219 L 683.0625 702.988281 C 683.0625 703.679688 683.132812 704.367188 683.265625 705.046875 C 683.402344 705.722656 683.601562 706.382812 683.867188 707.023438 C 684.128906 707.660156 684.453125 708.269531 684.839844 708.84375 C 685.222656 709.417969 685.660156 709.953125 686.148438 710.441406 C 686.636719 710.929688 687.167969 711.367188 687.746094 711.753906 C 688.320312 712.136719 688.925781 712.460938 689.566406 712.726562 C 690.203125 712.992188 690.863281 713.191406 691.539062 713.324219 C 692.21875 713.460938 692.902344 713.527344 693.59375 713.527344 C 694.285156 713.527344 694.972656 713.460938 695.648438 713.324219 C 696.328125 713.191406 696.984375 712.992188 697.625 712.726562 C 698.261719 712.460938 698.871094 712.136719 699.445312 711.753906 C 700.019531 711.367188 700.550781 710.929688 701.039062 710.441406 C 701.53125 709.953125 701.964844 709.417969 702.351562 708.84375 C 702.734375 708.269531 703.058594 707.660156 703.324219 707.023438 C 703.585938 706.382812 703.789062 705.722656 703.921875 705.046875 C 704.058594 704.367188 704.125 703.679688 704.125 702.988281 L 704.125 692.449219 L 714.65625 692.449219 C 715.347656 692.449219 716.03125 692.382812 716.710938 692.25 C 717.386719 692.113281 718.046875 691.914062 718.683594 691.648438 C 719.324219 691.382812 719.929688 691.058594 720.503906 690.675781 C 721.082031 690.289062 721.613281 689.855469 722.101562 689.363281 C 722.589844 688.875 723.027344 688.34375 723.410156 687.765625 C 723.792969 687.191406 724.117188 686.585938 724.382812 685.945312 C 724.648438 685.304688 724.847656 684.648438 724.984375 683.96875 C 725.117188 683.289062 725.183594 682.605469 725.183594 681.914062 C 725.183594 681.21875 725.117188 680.535156 724.984375 679.855469 C 724.847656 679.175781 724.648438 678.519531 724.382812 677.878906 C 724.117188 677.238281 723.792969 676.632812 723.410156 676.058594 C 723.027344 675.480469 722.589844 674.949219 722.101562 674.460938 C 721.613281 673.972656 721.082031 673.535156 720.503906 673.148438 C 719.929688 672.765625 719.324219 672.441406 718.683594 672.175781 C 718.046875 671.910156 717.386719 671.710938 716.710938 671.578125 C 716.03125 671.441406 715.347656 671.375 714.65625 671.375 Z M 714.65625 671.375 " fill-opacity="1" fill-rule="nonzero"/></g><path fill="#0d02b1" d="M 103.902344 407.90625 L 114.433594 407.90625 L 114.433594 418.445312 C 114.433594 419.136719 114.5 419.824219 114.636719 420.503906 C 114.769531 421.179688 114.96875 421.839844 115.234375 422.480469 C 115.5 423.117188 115.824219 423.726562 116.207031 424.300781 C 116.59375 424.875 117.027344 425.410156 117.519531 425.898438 C 118.007812 426.386719 118.539062 426.824219 119.113281 427.210938 C 119.6875 427.59375 120.296875 427.917969 120.933594 428.183594 C 121.574219 428.449219 122.230469 428.648438 122.910156 428.78125 C 123.585938 428.917969 124.273438 428.984375 124.964844 428.984375 C 125.65625 428.984375 126.339844 428.917969 127.019531 428.78125 C 127.695312 428.648438 128.355469 428.449219 128.992188 428.183594 C 129.632812 427.917969 130.238281 427.59375 130.8125 427.210938 C 131.390625 426.824219 131.921875 426.386719 132.410156 425.898438 C 132.898438 425.410156 133.335938 424.875 133.71875 424.300781 C 134.101562 423.726562 134.425781 423.117188 134.691406 422.480469 C 134.957031 421.839844 135.15625 421.179688 135.292969 420.503906 C 135.425781 419.824219 135.492188 419.136719 135.492188 418.445312 L 135.492188 407.90625 L 146.023438 407.90625 C 146.714844 407.90625 147.398438 407.839844 148.078125 407.707031 C 148.757812 407.570312 149.414062 407.371094 150.054688 407.105469 C 150.691406 406.839844 151.300781 406.515625 151.875 406.132812 C 152.449219 405.746094 152.980469 405.3125 153.46875 404.820312 C 153.957031 404.332031 154.394531 403.800781 154.78125 403.222656 C 155.164062 402.648438 155.488281 402.042969 155.753906 401.402344 C 156.015625 400.761719 156.21875 400.105469 156.351562 399.425781 C 156.488281 398.746094 156.554688 398.0625 156.554688 397.371094 C 156.554688 396.675781 156.488281 395.992188 156.351562 395.3125 C 156.21875 394.632812 156.015625 393.976562 155.753906 393.335938 C 155.488281 392.695312 155.164062 392.089844 154.78125 391.515625 C 154.394531 390.9375 153.957031 390.40625 153.46875 389.917969 C 152.980469 389.429688 152.449219 388.992188 151.875 388.605469 C 151.300781 388.222656 150.691406 387.898438 150.054688 387.632812 C 149.414062 387.367188 148.757812 387.167969 148.078125 387.035156 C 147.398438 386.898438 146.714844 386.832031 146.023438 386.832031 L 135.492188 386.832031 L 135.492188 376.292969 C 135.492188 375.601562 135.425781 374.914062 135.292969 374.234375 C 135.15625 373.558594 134.957031 372.898438 134.691406 372.257812 C 134.425781 371.621094 134.101562 371.011719 133.71875 370.4375 C 133.335938 369.863281 132.898438 369.328125 132.410156 368.839844 C 131.921875 368.351562 131.390625 367.914062 130.8125 367.53125 C 130.238281 367.144531 129.632812 366.820312 128.992188 366.554688 C 128.355469 366.289062 127.695312 366.089844 127.019531 365.957031 C 126.339844 365.820312 125.65625 365.753906 124.964844 365.753906 C 124.273438 365.753906 123.585938 365.820312 122.910156 365.957031 C 122.230469 366.089844 121.574219 366.289062 120.933594 366.554688 C 120.296875 366.820312 119.6875 367.144531 119.113281 367.53125 C 118.539062 367.914062 118.007812 368.351562 117.519531 368.839844 C 117.027344 369.328125 116.59375 369.863281 116.207031 370.4375 C 115.824219 371.011719 115.5 371.621094 115.234375 372.257812 C 114.96875 372.898438 114.769531 373.558594 114.636719 374.234375 C 114.5 374.914062 114.433594 375.601562 114.433594 376.292969 L 114.433594 386.832031 L 103.902344 386.832031 C 103.210938 386.832031 102.527344 386.898438 101.847656 387.035156 C 101.171875 387.167969 100.511719 387.367188 99.875 387.632812 C 99.234375 387.898438 98.628906 388.222656 98.054688 388.605469 C 97.476562 388.992188 96.945312 389.429688 96.457031 389.917969 C 95.96875 390.40625 95.53125 390.9375 95.148438 391.515625 C 94.761719 392.089844 94.4375 392.695312 94.175781 393.335938 C 93.910156 393.976562 93.710938 394.632812 93.574219 395.3125 C 93.441406 395.992188 93.371094 396.675781 93.371094 397.371094 C 93.371094 398.0625 93.441406 398.746094 93.574219 399.425781 C 93.710938 400.105469 93.910156 400.761719 94.175781 401.402344 C 94.4375 402.042969 94.761719 402.648438 95.148438 403.222656 C 95.53125 403.800781 95.96875 404.332031 96.457031 404.820312 C 96.945312 405.3125 97.476562 405.746094 98.054688 406.132812 C 98.628906 406.515625 99.234375 406.839844 99.875 407.105469 C 100.511719 407.371094 101.171875 407.570312 101.847656 407.707031 C 102.527344 407.839844 103.210938 407.90625 103.902344 407.90625 Z M 103.902344 407.90625 " fill-opacity="1" fill-rule="nonzero"/><path fill="#0d02b1" d="M 556.542969 262.289062 C 556.542969 225.617188 556.648438 192.339844 556.675781 176.058594 L 577.734375 176.058594 C 586.464844 176.347656 591.621094 165.097656 585.726562 158.667969 L 522.542969 84.898438 C 522.035156 84.347656 521.476562 83.851562 520.863281 83.414062 C 520.253906 82.976562 519.605469 82.609375 518.917969 82.308594 C 518.230469 82.003906 517.519531 81.777344 516.785156 81.621094 C 516.046875 81.46875 515.304688 81.390625 514.554688 81.390625 C 513.804688 81.390625 513.0625 81.46875 512.328125 81.621094 C 511.589844 81.777344 510.878906 82.003906 510.191406 82.308594 C 509.503906 82.609375 508.855469 82.976562 508.246094 83.414062 C 507.632812 83.851562 507.074219 84.347656 506.566406 84.898438 L 443.382812 158.667969 C 437.488281 165.097656 442.648438 176.347656 451.375 176.058594 L 472.433594 176.058594 L 472.433594 207.503906 C 462.257812 204.082031 451.871094 201.503906 441.273438 199.765625 C 430.679688 198.023438 420.015625 197.148438 409.277344 197.136719 C 298.960938 197.136719 209.207031 286.964844 209.207031 397.371094 C 209.199219 407.527344 209.96875 417.628906 211.511719 427.667969 C 213.054688 437.710938 215.351562 447.574219 218.402344 457.265625 C 221.453125 466.953125 225.226562 476.351562 229.71875 485.464844 C 234.207031 494.574219 239.367188 503.289062 245.191406 511.609375 L 207.890625 548.863281 C 199.492188 544.25 188.304688 545.34375 181.367188 552.289062 L 100.347656 633.449219 C 81.066406 651.957031 81.066406 685.285156 100.347656 703.792969 C 118.855469 723.09375 152.144531 723.09375 170.636719 703.792969 L 251.679688 622.632812 C 252.488281 621.828125 253.230469 620.960938 253.902344 620.042969 C 254.574219 619.121094 255.175781 618.152344 255.695312 617.136719 C 256.21875 616.121094 256.660156 615.070312 257.019531 613.988281 C 257.375 612.90625 257.648438 611.800781 257.835938 610.671875 C 258.023438 609.546875 258.121094 608.414062 258.128906 607.273438 C 258.140625 606.128906 258.0625 604.996094 257.894531 603.863281 C 257.726562 602.734375 257.472656 601.625 257.132812 600.535156 C 256.792969 599.445312 256.371094 598.390625 255.867188 597.367188 L 293.144531 560.058594 C 297.339844 563.085938 301.644531 565.941406 306.0625 568.632812 C 310.480469 571.324219 315 573.835938 319.613281 576.171875 C 324.226562 578.507812 328.925781 580.664062 333.707031 582.632812 C 338.488281 584.601562 343.339844 586.382812 348.261719 587.972656 C 353.183594 589.5625 358.15625 590.960938 363.1875 592.164062 C 368.21875 593.363281 373.285156 594.367188 378.394531 595.175781 C 383.503906 595.980469 388.632812 596.585938 393.789062 596.992188 C 398.945312 597.398438 404.109375 597.601562 409.277344 597.601562 C 519.597656 597.601562 609.351562 507.773438 609.351562 397.371094 C 609.351562 391.179688 609.066406 385 608.488281 378.835938 C 607.914062 372.675781 607.050781 366.550781 605.90625 360.46875 C 604.757812 354.382812 603.332031 348.367188 601.621094 342.417969 C 599.914062 336.46875 597.933594 330.609375 595.679688 324.84375 C 593.425781 319.078125 590.910156 313.433594 588.128906 307.902344 C 585.347656 302.371094 582.316406 296.984375 579.035156 291.734375 C 575.75 286.488281 572.230469 281.40625 568.476562 276.488281 C 564.71875 271.570312 560.742188 266.835938 556.542969 262.289062 Z M 514.582031 107.9375 L 554.871094 154.980469 L 546.171875 154.980469 C 545.480469 154.980469 544.796875 155.046875 544.117188 155.183594 C 543.4375 155.320312 542.78125 155.519531 542.140625 155.78125 C 541.503906 156.046875 540.894531 156.371094 540.320312 156.757812 C 539.746094 157.140625 539.214844 157.578125 538.726562 158.066406 C 538.238281 158.558594 537.800781 159.089844 537.417969 159.664062 C 537.03125 160.238281 536.707031 160.847656 536.441406 161.488281 C 536.179688 162.125 535.980469 162.785156 535.84375 163.464844 C 535.710938 164.140625 535.640625 164.828125 535.640625 165.519531 C 535.640625 167.257812 535.246094 340.117188 535.640625 397.460938 C 535.890625 433.703125 519.359375 467.199219 493.519531 490.609375 L 493.519531 165.519531 C 493.519531 164.828125 493.453125 164.140625 493.316406 163.464844 C 493.183594 162.785156 492.984375 162.125 492.71875 161.488281 C 492.453125 160.847656 492.128906 160.238281 491.746094 159.664062 C 491.363281 159.089844 490.925781 158.558594 490.4375 158.066406 C 489.949219 157.578125 489.414062 157.140625 488.839844 156.757812 C 488.265625 156.371094 487.660156 156.046875 487.019531 155.78125 C 486.382812 155.519531 485.722656 155.320312 485.042969 155.183594 C 484.367188 155.046875 483.683594 154.980469 482.992188 154.980469 L 474.289062 154.980469 Z M 332.054688 496.433594 C 307.269531 477.277344 289.496094 449.640625 284.589844 418.445312 L 332.054688 418.445312 Z M 353.113281 376.292969 L 402.261719 376.292969 L 402.261719 523.371094 C 393.695312 522.785156 385.273438 521.347656 376.996094 519.050781 C 368.722656 516.753906 360.761719 513.648438 353.113281 509.738281 Z M 423.324219 334.136719 L 472.460938 334.136719 L 472.460938 506.195312 C 464.949219 510.667969 457.050781 514.308594 448.769531 517.117188 C 440.488281 519.921875 432.007812 521.832031 423.324219 522.84375 Z M 236.847656 607.785156 L 155.75 688.894531 C 144.929688 699.722656 126.054688 699.722656 115.234375 688.894531 C 104.113281 678.222656 104.128906 659.015625 115.234375 648.347656 L 196.292969 567.304688 C 196.507812 567.132812 196.753906 567.046875 197.03125 567.046875 C 197.304688 567.046875 197.550781 567.132812 197.765625 567.304688 L 236.847656 606.296875 C 237.023438 606.515625 237.109375 606.761719 237.109375 607.042969 C 237.109375 607.320312 237.023438 607.570312 236.847656 607.785156 Z M 241.941406 581.597656 L 223.511719 563.15625 L 258.328125 528.324219 C 264.042969 534.894531 270.15625 541.066406 276.664062 546.847656 Z M 409.277344 576.527344 C 310.558594 576.527344 230.265625 496.167969 230.265625 397.371094 C 230.265625 298.570312 310.558594 218.210938 409.277344 218.210938 C 420.078125 218.226562 430.785156 219.21875 441.402344 221.183594 C 452.019531 223.152344 462.371094 226.058594 472.460938 229.910156 L 472.460938 264.160156 C 467.355469 261.71875 462.125 259.574219 456.773438 257.738281 C 451.417969 255.898438 445.976562 254.375 440.449219 253.164062 C 434.917969 251.957031 429.339844 251.070312 423.707031 250.503906 C 418.078125 249.941406 412.429688 249.703125 406.773438 249.792969 C 401.113281 249.882812 395.476562 250.296875 389.867188 251.039062 C 384.257812 251.78125 378.707031 252.84375 373.21875 254.226562 C 367.730469 255.609375 362.339844 257.304688 357.046875 259.3125 C 351.753906 261.320312 346.597656 263.625 341.570312 266.230469 C 340.957031 266.546875 340.378906 266.921875 339.835938 267.355469 C 339.296875 267.785156 338.800781 268.265625 338.355469 268.796875 C 337.910156 269.324219 337.519531 269.894531 337.183594 270.5 C 336.851562 271.105469 336.578125 271.738281 336.367188 272.398438 C 336.160156 273.058594 336.015625 273.734375 335.9375 274.421875 C 335.859375 275.109375 335.851562 275.796875 335.910156 276.488281 C 335.96875 277.179688 336.09375 277.855469 336.285156 278.519531 C 336.480469 279.1875 336.734375 279.828125 337.050781 280.441406 C 337.371094 281.054688 337.746094 281.632812 338.179688 282.175781 C 338.609375 282.714844 339.089844 283.210938 339.621094 283.65625 C 340.148438 284.101562 340.71875 284.492188 341.324219 284.828125 C 341.929688 285.160156 342.5625 285.433594 343.222656 285.640625 C 343.882812 285.851562 344.554688 285.992188 345.242188 286.070312 C 345.929688 286.144531 346.621094 286.15625 347.308594 286.09375 C 347.996094 286.035156 348.675781 285.910156 349.339844 285.714844 C 350.003906 285.523438 350.644531 285.269531 351.257812 284.949219 C 353.597656 283.734375 355.976562 282.597656 358.390625 281.535156 C 360.804688 280.472656 363.246094 279.488281 365.722656 278.578125 C 368.195312 277.667969 370.699219 276.839844 373.226562 276.085938 C 375.753906 275.335938 378.300781 274.664062 380.871094 274.074219 C 383.4375 273.480469 386.023438 272.972656 388.625 272.542969 C 391.226562 272.113281 393.839844 271.769531 396.464844 271.503906 C 399.085938 271.242188 401.714844 271.058594 404.347656 270.960938 C 406.984375 270.859375 409.617188 270.84375 412.253906 270.914062 C 414.890625 270.980469 417.519531 271.128906 420.148438 271.363281 C 422.773438 271.59375 425.390625 271.910156 427.996094 272.304688 C 430.601562 272.703125 433.195312 273.183594 435.769531 273.742188 C 438.347656 274.304688 440.902344 274.945312 443.4375 275.664062 C 445.972656 276.386719 448.484375 277.1875 450.972656 278.066406 C 453.457031 278.945312 455.914062 279.898438 458.339844 280.933594 C 460.765625 281.96875 463.15625 283.078125 465.511719 284.261719 C 467.867188 285.445312 470.183594 286.703125 472.460938 288.03125 L 472.460938 313.058594 L 412.792969 313.058594 C 412.101562 313.058594 411.417969 313.128906 410.738281 313.261719 C 410.0625 313.398438 409.402344 313.597656 408.765625 313.863281 C 408.125 314.128906 407.519531 314.453125 406.941406 314.835938 C 406.367188 315.222656 405.835938 315.65625 405.347656 316.148438 C 404.859375 316.636719 404.421875 317.167969 404.039062 317.742188 C 403.652344 318.320312 403.328125 318.925781 403.066406 319.566406 C 402.800781 320.207031 402.601562 320.863281 402.464844 321.542969 C 402.332031 322.222656 402.261719 322.90625 402.261719 323.597656 L 402.261719 355.214844 L 342.582031 355.214844 C 341.890625 355.214844 341.207031 355.28125 340.527344 355.417969 C 339.851562 355.550781 339.191406 355.753906 338.554688 356.015625 C 337.914062 356.28125 337.308594 356.605469 336.734375 356.992188 C 336.160156 357.375 335.625 357.8125 335.136719 358.300781 C 334.648438 358.789062 334.210938 359.324219 333.828125 359.898438 C 333.445312 360.472656 333.121094 361.082031 332.855469 361.71875 C 332.589844 362.359375 332.390625 363.019531 332.253906 363.699219 C 332.121094 364.375 332.054688 365.0625 332.054688 365.753906 L 332.054688 397.371094 L 282.984375 397.371094 C 282.972656 387.449219 284.109375 377.660156 286.394531 368.007812 C 288.683594 358.355469 292.054688 349.097656 296.515625 340.238281 C 296.828125 339.621094 297.078125 338.980469 297.265625 338.3125 C 297.457031 337.648438 297.578125 336.96875 297.632812 336.28125 C 297.6875 335.589844 297.671875 334.902344 297.59375 334.214844 C 297.511719 333.527344 297.363281 332.855469 297.152344 332.199219 C 296.9375 331.539062 296.664062 330.910156 296.328125 330.304688 C 295.988281 329.699219 295.597656 329.136719 295.148438 328.609375 C 294.699219 328.082031 294.203125 327.605469 293.660156 327.175781 C 293.117188 326.746094 292.539062 326.375 291.925781 326.058594 C 291.308594 325.746094 290.667969 325.492188 290.003906 325.304688 C 289.339844 325.117188 288.660156 324.996094 287.972656 324.941406 C 287.28125 324.886719 286.59375 324.898438 285.910156 324.976562 C 285.222656 325.058594 284.550781 325.207031 283.890625 325.417969 C 283.234375 325.632812 282.601562 325.90625 282 326.242188 C 281.394531 326.582031 280.832031 326.972656 280.304688 327.421875 C 279.777344 327.871094 279.300781 328.367188 278.871094 328.910156 C 278.445312 329.453125 278.070312 330.03125 277.757812 330.648438 C 274.78125 336.609375 272.214844 342.746094 270.0625 349.050781 C 267.90625 355.359375 266.179688 361.78125 264.882812 368.316406 C 263.582031 374.855469 262.726562 381.449219 262.3125 388.101562 C 261.894531 394.753906 261.921875 401.40625 262.394531 408.054688 C 267.515625 483.851562 335.710938 546.609375 413.042969 544.738281 C 491.453125 542.828125 557.253906 475.355469 556.703125 397.371094 C 556.542969 375.289062 556.503906 336.035156 556.53125 296.039062 C 561.664062 303.433594 566.214844 311.175781 570.171875 319.257812 C 574.132812 327.34375 577.457031 335.683594 580.152344 344.273438 C 582.84375 352.867188 584.871094 361.613281 586.238281 370.511719 C 587.601562 379.414062 588.289062 388.363281 588.292969 397.371094 C 588.292969 496.167969 508 576.527344 409.277344 576.527344 Z M 409.277344 576.527344 " fill-opacity="1" fill-rule="nonzero"/><path fill="#0d02b1" d="M 322.917969 300.902344 C 322.917969 301.59375 322.851562 302.277344 322.714844 302.957031 C 322.582031 303.636719 322.382812 304.296875 322.117188 304.933594 C 321.851562 305.574219 321.527344 306.179688 321.144531 306.757812 C 320.757812 307.332031 320.324219 307.863281 319.835938 308.351562 C 319.34375 308.84375 318.8125 309.28125 318.238281 309.664062 C 317.664062 310.046875 317.054688 310.375 316.417969 310.636719 C 315.777344 310.902344 315.121094 311.101562 314.441406 311.238281 C 313.765625 311.371094 313.078125 311.441406 312.386719 311.441406 C 311.695312 311.441406 311.011719 311.371094 310.332031 311.238281 C 309.65625 311.101562 308.996094 310.902344 308.359375 310.636719 C 307.71875 310.375 307.113281 310.046875 306.539062 309.664062 C 305.960938 309.28125 305.429688 308.84375 304.941406 308.351562 C 304.453125 307.863281 304.015625 307.332031 303.632812 306.757812 C 303.25 306.179688 302.925781 305.574219 302.660156 304.933594 C 302.394531 304.296875 302.195312 303.636719 302.058594 302.957031 C 301.925781 302.277344 301.859375 301.59375 301.859375 300.902344 C 301.859375 300.210938 301.925781 299.523438 302.058594 298.84375 C 302.195312 298.167969 302.394531 297.507812 302.660156 296.867188 C 302.925781 296.230469 303.25 295.621094 303.632812 295.046875 C 304.015625 294.472656 304.453125 293.9375 304.941406 293.449219 C 305.429688 292.960938 305.960938 292.523438 306.539062 292.140625 C 307.113281 291.753906 307.71875 291.429688 308.359375 291.164062 C 308.996094 290.898438 309.65625 290.699219 310.332031 290.566406 C 311.011719 290.429688 311.695312 290.363281 312.386719 290.363281 C 313.078125 290.363281 313.765625 290.429688 314.441406 290.566406 C 315.121094 290.699219 315.777344 290.898438 316.417969 291.164062 C 317.054688 291.429688 317.664062 291.753906 318.238281 292.140625 C 318.8125 292.523438 319.34375 292.960938 319.835938 293.449219 C 320.324219 293.9375 320.757812 294.472656 321.144531 295.046875 C 321.527344 295.621094 321.851562 296.230469 322.117188 296.867188 C 322.382812 297.507812 322.582031 298.167969 322.714844 298.84375 C 322.851562 299.523438 322.917969 300.210938 322.917969 300.902344 Z M 322.917969 300.902344 " fill-opacity="1" fill-rule="nonzero"/><g clip-path="url(#44fc7c9e87)"><path fill="#000000" d="M 700.828125 365.753906 C 699.792969 365.753906 698.761719 365.804688 697.730469 365.90625 C 696.699219 366.007812 695.679688 366.160156 694.664062 366.359375 C 693.648438 366.5625 692.648438 366.8125 691.65625 367.113281 C 690.667969 367.414062 689.695312 367.765625 688.738281 368.160156 C 687.78125 368.554688 686.847656 369 685.933594 369.488281 C 685.023438 369.976562 684.136719 370.507812 683.277344 371.082031 C 682.417969 371.65625 681.585938 372.273438 680.785156 372.929688 C 679.988281 373.585938 679.222656 374.28125 678.488281 375.011719 C 677.757812 375.746094 677.0625 376.511719 676.40625 377.3125 C 675.75 378.113281 675.136719 378.945312 674.558594 379.804688 C 673.984375 380.664062 673.453125 381.550781 672.964844 382.464844 C 672.480469 383.378906 672.039062 384.3125 671.640625 385.269531 C 671.246094 386.226562 670.898438 387.199219 670.597656 388.191406 C 670.296875 389.183594 670.046875 390.1875 669.84375 391.203125 C 669.640625 392.21875 669.488281 393.238281 669.386719 394.269531 C 669.289062 395.300781 669.238281 396.332031 669.238281 397.371094 C 669.238281 398.40625 669.289062 399.4375 669.386719 400.46875 C 669.488281 401.5 669.640625 402.523438 669.84375 403.539062 C 670.046875 404.554688 670.296875 405.554688 670.597656 406.546875 C 670.898438 407.539062 671.246094 408.511719 671.640625 409.46875 C 672.039062 410.425781 672.480469 411.359375 672.964844 412.273438 C 673.453125 413.1875 673.984375 414.074219 674.558594 414.933594 C 675.136719 415.796875 675.75 416.625 676.40625 417.425781 C 677.0625 418.226562 677.757812 418.992188 678.488281 419.726562 C 679.222656 420.457031 679.988281 421.152344 680.785156 421.808594 C 681.585938 422.464844 682.417969 423.082031 683.277344 423.65625 C 684.136719 424.230469 685.023438 424.765625 685.933594 425.253906 C 686.847656 425.738281 687.78125 426.183594 688.738281 426.578125 C 689.695312 426.976562 690.667969 427.324219 691.65625 427.625 C 692.648438 427.925781 693.648438 428.175781 694.664062 428.378906 C 695.679688 428.578125 696.699219 428.730469 697.730469 428.832031 C 698.761719 428.933594 699.792969 428.984375 700.828125 428.984375 C 701.863281 428.984375 702.894531 428.933594 703.921875 428.832031 C 704.953125 428.730469 705.976562 428.578125 706.988281 428.378906 C 708.003906 428.175781 709.007812 427.925781 709.996094 427.625 C 710.988281 427.324219 711.960938 426.976562 712.917969 426.578125 C 713.871094 426.183594 714.804688 425.738281 715.71875 425.253906 C 716.632812 424.765625 717.519531 424.230469 718.378906 423.65625 C 719.238281 423.082031 720.066406 422.464844 720.867188 421.808594 C 721.667969 421.152344 722.433594 420.457031 723.164062 419.726562 C 723.898438 418.992188 724.589844 418.226562 725.246094 417.425781 C 725.902344 416.625 726.519531 415.796875 727.09375 414.933594 C 727.667969 414.074219 728.199219 413.1875 728.6875 412.273438 C 729.175781 411.359375 729.617188 410.425781 730.011719 409.46875 C 730.410156 408.511719 730.757812 407.539062 731.058594 406.546875 C 731.359375 405.554688 731.609375 404.554688 731.8125 403.539062 C 732.011719 402.523438 732.164062 401.5 732.265625 400.46875 C 732.367188 399.4375 732.417969 398.40625 732.417969 397.371094 C 732.417969 396.332031 732.367188 395.300781 732.265625 394.269531 C 732.164062 393.238281 732.011719 392.21875 731.8125 391.203125 C 731.609375 390.1875 731.359375 389.183594 731.058594 388.191406 C 730.757812 387.199219 730.410156 386.226562 730.011719 385.269531 C 729.617188 384.3125 729.175781 383.378906 728.6875 382.464844 C 728.199219 381.550781 727.667969 380.664062 727.09375 379.804688 C 726.519531 378.945312 725.902344 378.113281 725.246094 377.3125 C 724.589844 376.511719 723.898438 375.746094 723.164062 375.011719 C 722.433594 374.28125 721.667969 373.585938 720.867188 372.929688 C 720.066406 372.273438 719.238281 371.65625 718.378906 371.082031 C 717.519531 370.507812 716.632812 369.976562 715.71875 369.488281 C 714.804688 369 713.871094 368.554688 712.917969 368.160156 C 711.960938 367.765625 710.988281 367.414062 709.996094 367.113281 C 709.007812 366.8125 708.003906 366.5625 706.988281 366.359375 C 705.976562 366.160156 704.953125 366.007812 703.921875 365.90625 C 702.894531 365.804688 701.863281 365.753906 700.828125 365.753906 Z M 700.828125 407.90625 C 700.136719 407.90625 699.449219 407.839844 698.773438 407.707031 C 698.09375 407.570312 697.4375 407.371094 696.796875 407.105469 C 696.160156 406.839844 695.550781 406.515625 694.976562 406.132812 C 694.402344 405.746094 693.871094 405.3125 693.382812 404.820312 C 692.890625 404.332031 692.457031 403.800781 692.070312 403.222656 C 691.6875 402.648438 691.363281 402.042969 691.097656 401.402344 C 690.832031 400.761719 690.632812 400.105469 690.5 399.425781 C 690.363281 398.746094 690.296875 398.0625 690.296875 397.371094 C 690.296875 396.675781 690.363281 395.992188 690.5 395.3125 C 690.632812 394.632812 690.832031 393.976562 691.097656 393.335938 C 691.363281 392.695312 691.6875 392.089844 692.070312 391.515625 C 692.457031 390.9375 692.890625 390.40625 693.382812 389.917969 C 693.871094 389.429688 694.402344 388.992188 694.976562 388.605469 C 695.550781 388.222656 696.160156 387.898438 696.796875 387.632812 C 697.4375 387.367188 698.09375 387.167969 698.773438 387.035156 C 699.449219 386.898438 700.136719 386.832031 700.828125 386.832031 C 701.519531 386.832031 702.203125 386.898438 702.882812 387.035156 C 703.558594 387.167969 704.21875 387.367188 704.855469 387.632812 C 705.496094 387.898438 706.101562 388.222656 706.675781 388.605469 C 707.253906 388.992188 707.785156 389.429688 708.273438 389.917969 C 708.761719 390.40625 709.199219 390.9375 709.582031 391.515625 C 709.964844 392.089844 710.292969 392.695312 710.554688 393.335938 C 710.820312 393.976562 711.019531 394.632812 711.15625 395.3125 C 711.289062 395.992188 711.355469 396.675781 711.355469 397.371094 C 711.355469 398.0625 711.289062 398.746094 711.15625 399.425781 C 711.019531 400.105469 710.820312 400.761719 710.554688 401.402344 C 710.292969 402.042969 709.964844 402.648438 709.582031 403.222656 C 709.199219 403.800781 708.761719 404.332031 708.273438 404.820312 C 707.785156 405.3125 707.253906 405.746094 706.675781 406.132812 C 706.101562 406.515625 705.496094 406.839844 704.855469 407.105469 C 704.21875 407.371094 703.558594 407.570312 702.882812 407.707031 C 702.203125 407.839844 701.519531 407.90625 700.828125 407.90625 Z M 700.828125 407.90625 " fill-opacity="1" fill-rule="nonzero"/></g><path fill="#000000" d="M 416.511719 650.296875 C 415.476562 650.296875 414.445312 650.347656 413.414062 650.449219 C 412.386719 650.550781 411.363281 650.703125 410.347656 650.902344 C 409.332031 651.105469 408.332031 651.355469 407.339844 651.65625 C 406.351562 651.957031 405.378906 652.308594 404.421875 652.703125 C 403.464844 653.097656 402.53125 653.542969 401.621094 654.03125 C 400.707031 654.519531 399.820312 655.050781 398.960938 655.625 C 398.101562 656.199219 397.269531 656.816406 396.472656 657.472656 C 395.671875 658.128906 394.90625 658.824219 394.171875 659.554688 C 393.441406 660.289062 392.75 661.054688 392.089844 661.855469 C 391.433594 662.65625 390.820312 663.488281 390.246094 664.347656 C 389.671875 665.207031 389.140625 666.09375 388.652344 667.007812 C 388.164062 667.921875 387.722656 668.855469 387.324219 669.8125 C 386.929688 670.769531 386.582031 671.742188 386.28125 672.734375 C 385.980469 673.726562 385.730469 674.730469 385.527344 675.746094 C 385.328125 676.761719 385.175781 677.78125 385.074219 678.8125 C 384.972656 679.84375 384.921875 680.875 384.921875 681.914062 C 384.921875 682.949219 384.972656 683.980469 385.074219 685.011719 C 385.175781 686.042969 385.328125 687.066406 385.527344 688.082031 C 385.730469 689.097656 385.980469 690.097656 386.28125 691.089844 C 386.582031 692.082031 386.929688 693.054688 387.324219 694.011719 C 387.722656 694.96875 388.164062 695.902344 388.652344 696.816406 C 389.140625 697.730469 389.671875 698.617188 390.246094 699.476562 C 390.820312 700.339844 391.433594 701.167969 392.089844 701.96875 C 392.75 702.769531 393.441406 703.535156 394.171875 704.269531 C 394.90625 705 395.671875 705.695312 396.472656 706.351562 C 397.269531 707.007812 398.101562 707.625 398.960938 708.199219 C 399.820312 708.773438 400.707031 709.308594 401.621094 709.796875 C 402.53125 710.28125 403.464844 710.726562 404.421875 711.121094 C 405.378906 711.519531 406.351562 711.867188 407.339844 712.167969 C 408.332031 712.46875 409.332031 712.71875 410.347656 712.921875 C 411.363281 713.121094 412.386719 713.273438 413.414062 713.375 C 414.445312 713.476562 415.476562 713.527344 416.511719 713.527344 C 417.546875 713.527344 418.578125 713.476562 419.609375 713.375 C 420.636719 713.273438 421.660156 713.121094 422.675781 712.921875 C 423.6875 712.71875 424.691406 712.46875 425.683594 712.167969 C 426.671875 711.867188 427.644531 711.519531 428.601562 711.121094 C 429.558594 710.726562 430.492188 710.28125 431.402344 709.796875 C 432.316406 709.308594 433.203125 708.773438 434.0625 708.199219 C 434.921875 707.625 435.753906 707.007812 436.550781 706.351562 C 437.351562 705.695312 438.117188 705 438.847656 704.269531 C 439.582031 703.535156 440.273438 702.769531 440.929688 701.96875 C 441.585938 701.167969 442.203125 700.339844 442.777344 699.476562 C 443.351562 698.617188 443.882812 697.730469 444.371094 696.816406 C 444.859375 695.902344 445.300781 694.96875 445.699219 694.011719 C 446.09375 693.054688 446.441406 692.082031 446.742188 691.089844 C 447.042969 690.097656 447.292969 689.097656 447.496094 688.082031 C 447.695312 687.066406 447.847656 686.042969 447.949219 685.011719 C 448.050781 683.980469 448.101562 682.949219 448.101562 681.914062 C 448.101562 680.875 448.050781 679.84375 447.949219 678.8125 C 447.847656 677.78125 447.695312 676.761719 447.496094 675.746094 C 447.292969 674.730469 447.042969 673.726562 446.742188 672.734375 C 446.441406 671.742188 446.09375 670.769531 445.699219 669.8125 C 445.300781 668.855469 444.859375 667.921875 444.371094 667.007812 C 443.882812 666.09375 443.351562 665.207031 442.777344 664.347656 C 442.203125 663.488281 441.585938 662.65625 440.929688 661.855469 C 440.273438 661.054688 439.582031 660.289062 438.847656 659.554688 C 438.117188 658.824219 437.351562 658.128906 436.550781 657.472656 C 435.753906 656.816406 434.921875 656.199219 434.0625 655.625 C 433.203125 655.050781 432.316406 654.519531 431.402344 654.03125 C 430.492188 653.542969 429.558594 653.097656 428.601562 652.703125 C 427.644531 652.308594 426.671875 651.957031 425.683594 651.65625 C 424.691406 651.355469 423.6875 651.105469 422.675781 650.902344 C 421.660156 650.703125 420.636719 650.550781 419.609375 650.449219 C 418.578125 650.347656 417.546875 650.296875 416.511719 650.296875 Z M 416.511719 692.449219 C 415.820312 692.449219 415.136719 692.382812 414.457031 692.25 C 413.777344 692.113281 413.121094 691.914062 412.480469 691.648438 C 411.84375 691.382812 411.234375 691.058594 410.660156 690.675781 C 410.085938 690.289062 409.554688 689.855469 409.066406 689.363281 C 408.578125 688.875 408.140625 688.34375 407.757812 687.765625 C 407.371094 687.191406 407.046875 686.585938 406.78125 685.945312 C 406.519531 685.304688 406.320312 684.648438 406.183594 683.96875 C 406.050781 683.289062 405.980469 682.605469 405.980469 681.914062 C 405.980469 681.21875 406.050781 680.535156 406.183594 679.855469 C 406.320312 679.175781 406.519531 678.519531 406.78125 677.878906 C 407.046875 677.238281 407.371094 676.632812 407.757812 676.058594 C 408.140625 675.480469 408.578125 674.949219 409.066406 674.460938 C 409.554688 673.972656 410.085938 673.535156 410.660156 673.148438 C 411.234375 672.765625 411.84375 672.441406 412.480469 672.175781 C 413.121094 671.910156 413.777344 671.710938 414.457031 671.578125 C 415.136719 671.441406 415.820312 671.375 416.511719 671.375 C 417.203125 671.375 417.886719 671.441406 418.566406 671.574219 C 419.242188 671.710938 419.902344 671.910156 420.542969 672.175781 C 421.179688 672.441406 421.785156 672.765625 422.363281 673.148438 C 422.9375 673.535156 423.46875 673.972656 423.957031 674.460938 C 424.445312 674.949219 424.882812 675.480469 425.265625 676.058594 C 425.652344 676.632812 425.976562 677.238281 426.242188 677.878906 C 426.503906 678.519531 426.703125 679.175781 426.839844 679.855469 C 426.972656 680.535156 427.042969 681.21875 427.042969 681.914062 C 427.042969 682.605469 426.972656 683.289062 426.839844 683.96875 C 426.703125 684.648438 426.503906 685.304688 426.242188 685.945312 C 425.976562 686.585938 425.652344 687.191406 425.265625 687.765625 C 424.882812 688.34375 424.445312 688.875 423.957031 689.363281 C 423.46875 689.855469 422.9375 690.289062 422.363281 690.675781 C 421.785156 691.058594 421.179688 691.382812 420.542969 691.648438 C 419.902344 691.914062 419.242188 692.113281 418.566406 692.25 C 417.886719 692.382812 417.203125 692.449219 416.511719 692.449219 Z M 416.511719 692.449219 " fill-opacity="1" fill-rule="nonzero"/><g clip-path="url(#2787339c97)"><path fill="#000000" d="M 721.886719 102.289062 L 711.355469 102.289062 L 711.355469 91.75 C 711.355469 91.058594 711.289062 90.371094 711.15625 89.691406 C 711.019531 89.015625 710.820312 88.355469 710.554688 87.714844 C 710.292969 87.078125 709.964844 86.46875 709.582031 85.894531 C 709.199219 85.320312 708.761719 84.785156 708.273438 84.296875 C 707.785156 83.808594 707.253906 83.371094 706.675781 82.988281 C 706.101562 82.601562 705.496094 82.277344 704.855469 82.011719 C 704.21875 81.746094 703.558594 81.546875 702.882812 81.414062 C 702.203125 81.277344 701.519531 81.210938 700.828125 81.210938 C 700.136719 81.210938 699.449219 81.277344 698.773438 81.414062 C 698.09375 81.546875 697.4375 81.746094 696.796875 82.011719 C 696.160156 82.277344 695.550781 82.601562 694.976562 82.988281 C 694.402344 83.371094 693.871094 83.808594 693.382812 84.296875 C 692.890625 84.785156 692.457031 85.320312 692.070312 85.894531 C 691.6875 86.46875 691.363281 87.078125 691.097656 87.714844 C 690.832031 88.355469 690.632812 89.015625 690.5 89.691406 C 690.363281 90.371094 690.296875 91.058594 690.296875 91.75 L 690.296875 102.289062 L 679.765625 102.289062 C 679.074219 102.289062 678.390625 102.355469 677.710938 102.492188 C 677.035156 102.625 676.375 102.824219 675.738281 103.089844 C 675.097656 103.355469 674.492188 103.679688 673.917969 104.0625 C 673.339844 104.449219 672.808594 104.886719 672.320312 105.375 C 671.832031 105.863281 671.394531 106.394531 671.011719 106.972656 C 670.628906 107.546875 670.300781 108.152344 670.039062 108.792969 C 669.773438 109.433594 669.574219 110.089844 669.4375 110.769531 C 669.304688 111.449219 669.238281 112.132812 669.238281 112.828125 C 669.238281 113.519531 669.304688 114.203125 669.4375 114.882812 C 669.574219 115.5625 669.773438 116.21875 670.039062 116.859375 C 670.300781 117.5 670.628906 118.105469 671.011719 118.679688 C 671.394531 119.257812 671.832031 119.789062 672.320312 120.277344 C 672.808594 120.769531 673.339844 121.203125 673.917969 121.589844 C 674.492188 121.972656 675.097656 122.296875 675.738281 122.5625 C 676.375 122.828125 677.035156 123.027344 677.710938 123.164062 C 678.390625 123.296875 679.074219 123.363281 679.765625 123.363281 L 690.296875 123.363281 L 690.296875 133.902344 C 690.296875 134.59375 690.363281 135.28125 690.5 135.960938 C 690.632812 136.636719 690.832031 137.296875 691.097656 137.9375 C 691.363281 138.574219 691.6875 139.183594 692.070312 139.757812 C 692.457031 140.335938 692.890625 140.867188 693.382812 141.355469 C 693.871094 141.84375 694.402344 142.28125 694.976562 142.667969 C 695.550781 143.050781 696.160156 143.375 696.796875 143.640625 C 697.4375 143.90625 698.09375 144.105469 698.773438 144.238281 C 699.449219 144.375 700.136719 144.441406 700.828125 144.441406 C 701.519531 144.441406 702.203125 144.375 702.882812 144.238281 C 703.558594 144.105469 704.21875 143.90625 704.855469 143.640625 C 705.496094 143.375 706.101562 143.050781 706.675781 142.667969 C 707.253906 142.28125 707.785156 141.84375 708.273438 141.355469 C 708.761719 140.867188 709.199219 140.335938 709.582031 139.757812 C 709.964844 139.183594 710.292969 138.574219 710.554688 137.9375 C 710.820312 137.296875 711.019531 136.636719 711.15625 135.960938 C 711.289062 135.28125 711.355469 134.59375 711.355469 133.902344 L 711.355469 123.363281 L 721.886719 123.363281 C 722.578125 123.363281 723.265625 123.296875 723.941406 123.164062 C 724.621094 123.027344 725.277344 122.828125 725.917969 122.5625 C 726.554688 122.296875 727.164062 121.972656 727.738281 121.589844 C 728.3125 121.203125 728.84375 120.769531 729.332031 120.277344 C 729.824219 119.789062 730.257812 119.257812 730.644531 118.679688 C 731.027344 118.105469 731.351562 117.5 731.617188 116.859375 C 731.878906 116.21875 732.082031 115.5625 732.214844 114.882812 C 732.351562 114.203125 732.417969 113.519531 732.417969 112.828125 C 732.417969 112.132812 732.351562 111.449219 732.214844 110.769531 C 732.082031 110.089844 731.878906 109.433594 731.617188 108.792969 C 731.351562 108.152344 731.027344 107.546875 730.644531 106.972656 C 730.257812 106.394531 729.824219 105.863281 729.332031 105.375 C 728.84375 104.886719 728.3125 104.449219 727.738281 104.0625 C 727.164062 103.679688 726.554688 103.355469 725.917969 103.089844 C 725.277344 102.824219 724.621094 102.625 723.941406 102.492188 C 723.265625 102.355469 722.578125 102.289062 721.886719 102.289062 Z M 721.886719 102.289062 " fill-opacity="1" fill-rule="nonzero"/></g><g clip-path="url(#6f1b0487bb)"><path fill="#000000" d="M 721.886719 671.375 L 711.355469 671.375 L 711.355469 660.835938 C 711.355469 660.144531 711.289062 659.457031 711.15625 658.777344 C 711.019531 658.101562 710.820312 657.441406 710.554688 656.800781 C 710.292969 656.164062 709.964844 655.554688 709.582031 654.980469 C 709.199219 654.40625 708.761719 653.871094 708.273438 653.382812 C 707.785156 652.894531 707.253906 652.457031 706.675781 652.074219 C 706.101562 651.6875 705.496094 651.363281 704.855469 651.097656 C 704.21875 650.832031 703.558594 650.632812 702.882812 650.5 C 702.203125 650.363281 701.519531 650.296875 700.828125 650.296875 C 700.136719 650.296875 699.449219 650.363281 698.773438 650.5 C 698.09375 650.632812 697.4375 650.832031 696.796875 651.097656 C 696.160156 651.363281 695.550781 651.6875 694.976562 652.074219 C 694.402344 652.457031 693.871094 652.894531 693.382812 653.382812 C 692.890625 653.871094 692.457031 654.40625 692.070312 654.980469 C 691.6875 655.554688 691.363281 656.164062 691.097656 656.800781 C 690.832031 657.441406 690.632812 658.101562 690.5 658.777344 C 690.363281 659.457031 690.296875 660.144531 690.296875 660.835938 L 690.296875 671.375 L 679.765625 671.375 C 679.074219 671.375 678.390625 671.441406 677.710938 671.574219 C 677.035156 671.710938 676.375 671.910156 675.738281 672.175781 C 675.097656 672.441406 674.492188 672.765625 673.917969 673.148438 C 673.339844 673.535156 672.808594 673.972656 672.320312 674.460938 C 671.832031 674.949219 671.394531 675.480469 671.011719 676.058594 C 670.628906 676.632812 670.300781 677.238281 670.039062 677.878906 C 669.773438 678.519531 669.574219 679.175781 669.4375 679.855469 C 669.304688 680.535156 669.238281 681.21875 669.238281 681.914062 C 669.238281 682.605469 669.304688 683.289062 669.4375 683.96875 C 669.574219 684.648438 669.773438 685.304688 670.039062 685.945312 C 670.300781 686.585938 670.628906 687.191406 671.011719 687.765625 C 671.394531 688.34375 671.832031 688.875 672.320312 689.363281 C 672.808594 689.855469 673.339844 690.289062 673.917969 690.675781 C 674.492188 691.058594 675.097656 691.382812 675.738281 691.648438 C 676.375 691.914062 677.035156 692.113281 677.710938 692.25 C 678.390625 692.382812 679.074219 692.449219 679.765625 692.449219 L 690.296875 692.449219 L 690.296875 702.988281 C 690.296875 703.679688 690.363281 704.367188 690.5 705.046875 C 690.632812 705.722656 690.832031 706.382812 691.097656 707.023438 C 691.363281 707.660156 691.6875 708.269531 692.070312 708.84375 C 692.457031 709.417969 692.890625 709.953125 693.382812 710.441406 C 693.871094 710.929688 694.402344 711.367188 694.976562 711.753906 C 695.550781 712.136719 696.160156 712.460938 696.796875 712.726562 C 697.4375 712.992188 698.09375 713.191406 698.773438 713.324219 C 699.449219 713.460938 700.136719 713.527344 700.828125 713.527344 C 701.519531 713.527344 702.203125 713.460938 702.882812 713.324219 C 703.558594 713.191406 704.21875 712.992188 704.855469 712.726562 C 705.496094 712.460938 706.101562 712.136719 706.675781 711.753906 C 707.253906 711.367188 707.785156 710.929688 708.273438 710.441406 C 708.761719 709.953125 709.199219 709.417969 709.582031 708.84375 C 709.964844 708.269531 710.292969 707.660156 710.554688 707.023438 C 710.820312 706.382812 711.019531 705.722656 711.15625 705.046875 C 711.289062 704.367188 711.355469 703.679688 711.355469 702.988281 L 711.355469 692.449219 L 721.886719 692.449219 C 722.578125 692.449219 723.265625 692.382812 723.941406 692.25 C 724.621094 692.113281 725.277344 691.914062 725.917969 691.648438 C 726.554688 691.382812 727.164062 691.058594 727.738281 690.675781 C 728.3125 690.289062 728.84375 689.855469 729.332031 689.363281 C 729.824219 688.875 730.257812 688.34375 730.644531 687.765625 C 731.027344 687.191406 731.351562 686.585938 731.617188 685.945312 C 731.878906 685.304688 732.082031 684.648438 732.214844 683.96875 C 732.351562 683.289062 732.417969 682.605469 732.417969 681.914062 C 732.417969 681.21875 732.351562 680.535156 732.214844 679.855469 C 732.082031 679.175781 731.878906 678.519531 731.617188 677.878906 C 731.351562 677.238281 731.027344 676.632812 730.644531 676.058594 C 730.257812 675.480469 729.824219 674.949219 729.332031 674.460938 C 728.84375 673.972656 728.3125 673.535156 727.738281 673.148438 C 727.164062 672.765625 726.554688 672.441406 725.917969 672.175781 C 725.277344 671.910156 724.621094 671.710938 723.941406 671.578125 C 723.265625 671.441406 722.578125 671.375 721.886719 671.375 Z M 721.886719 671.375 " fill-opacity="1" fill-rule="nonzero"/></g><g clip-path="url(#83a64a44c4)"><path fill="#000000" d="M 563.777344 262.289062 C 563.777344 225.617188 563.882812 192.339844 563.90625 176.058594 L 584.96875 176.058594 C 593.695312 176.347656 598.855469 165.097656 592.957031 158.667969 L 529.777344 84.898438 C 529.269531 84.347656 528.707031 83.851562 528.097656 83.414062 C 527.488281 82.976562 526.835938 82.609375 526.148438 82.308594 C 525.460938 82.003906 524.75 81.777344 524.015625 81.621094 C 523.28125 81.46875 522.539062 81.390625 521.789062 81.390625 C 521.035156 81.390625 520.292969 81.46875 519.558594 81.621094 C 518.824219 81.777344 518.113281 82.003906 517.425781 82.308594 C 516.738281 82.609375 516.089844 82.976562 515.476562 83.414062 C 514.867188 83.851562 514.304688 84.347656 513.796875 84.898438 L 450.617188 158.667969 C 444.71875 165.097656 449.878906 176.347656 458.605469 176.058594 L 479.667969 176.058594 L 479.667969 207.503906 C 469.488281 204.082031 459.101562 201.503906 448.507812 199.765625 C 437.914062 198.023438 427.246094 197.148438 416.511719 197.136719 C 306.195312 197.136719 216.4375 286.964844 216.4375 397.371094 C 216.433594 407.527344 217.203125 417.628906 218.742188 427.667969 C 220.285156 437.710938 222.582031 447.574219 225.636719 457.265625 C 228.6875 466.953125 232.457031 476.351562 236.949219 485.464844 C 241.441406 494.574219 246.597656 503.289062 252.425781 511.609375 L 215.121094 548.863281 C 206.722656 544.25 195.535156 545.34375 188.597656 552.289062 L 107.582031 633.449219 C 88.296875 651.957031 88.296875 685.285156 107.582031 703.792969 C 126.089844 723.09375 159.378906 723.09375 177.871094 703.792969 L 258.914062 622.632812 C 259.722656 621.828125 260.460938 620.960938 261.136719 620.042969 C 261.808594 619.121094 262.40625 618.152344 262.929688 617.136719 C 263.449219 616.121094 263.890625 615.070312 264.25 613.988281 C 264.609375 612.90625 264.882812 611.800781 265.070312 610.671875 C 265.253906 609.546875 265.351562 608.414062 265.363281 607.273438 C 265.371094 606.128906 265.292969 604.996094 265.128906 603.863281 C 264.960938 602.734375 264.707031 601.625 264.367188 600.535156 C 264.027344 599.445312 263.605469 598.390625 263.101562 597.367188 L 300.375 560.058594 C 304.570312 563.085938 308.878906 565.941406 313.296875 568.632812 C 317.714844 571.324219 322.230469 573.835938 326.84375 576.171875 C 331.460938 578.507812 336.15625 580.664062 340.9375 582.632812 C 345.722656 584.601562 350.574219 586.382812 355.492188 587.972656 C 360.414062 589.5625 365.390625 590.960938 370.417969 592.164062 C 375.449219 593.363281 380.519531 594.367188 385.625 595.175781 C 390.734375 595.980469 395.867188 596.585938 401.023438 596.992188 C 406.175781 597.398438 411.339844 597.601562 416.511719 597.601562 C 526.828125 597.601562 616.585938 507.773438 616.585938 397.371094 C 616.585938 391.179688 616.296875 385 615.722656 378.835938 C 615.144531 372.675781 614.285156 366.550781 613.136719 360.46875 C 611.992188 354.382812 610.5625 348.367188 608.855469 342.417969 C 607.148438 336.46875 605.167969 330.609375 602.914062 324.84375 C 600.660156 319.078125 598.140625 313.433594 595.363281 307.902344 C 592.582031 302.371094 589.550781 296.984375 586.265625 291.734375 C 582.984375 286.488281 579.464844 281.40625 575.707031 276.488281 C 571.953125 271.570312 567.972656 266.835938 563.777344 262.289062 Z M 521.8125 107.9375 L 562.105469 154.980469 L 553.402344 154.980469 C 552.710938 154.980469 552.027344 155.046875 551.351562 155.183594 C 550.671875 155.320312 550.011719 155.519531 549.375 155.78125 C 548.734375 156.046875 548.128906 156.371094 547.554688 156.757812 C 546.980469 157.140625 546.445312 157.578125 545.957031 158.066406 C 545.46875 158.558594 545.03125 159.089844 544.648438 159.664062 C 544.265625 160.238281 543.941406 160.847656 543.675781 161.488281 C 543.410156 162.125 543.210938 162.785156 543.078125 163.464844 C 542.941406 164.140625 542.875 164.828125 542.875 165.519531 C 542.875 167.257812 542.480469 340.117188 542.875 397.460938 C 543.125 433.703125 526.589844 467.199219 500.753906 490.609375 L 500.753906 165.519531 C 500.753906 164.828125 500.6875 164.140625 500.550781 163.464844 C 500.414062 162.785156 500.214844 162.125 499.953125 161.488281 C 499.6875 160.847656 499.363281 160.238281 498.980469 159.664062 C 498.59375 159.089844 498.15625 158.558594 497.667969 158.066406 C 497.179688 157.578125 496.648438 157.140625 496.074219 156.757812 C 495.5 156.371094 494.890625 156.046875 494.253906 155.78125 C 493.613281 155.519531 492.957031 155.320312 492.277344 155.183594 C 491.597656 155.046875 490.914062 154.980469 490.222656 154.980469 L 481.523438 154.980469 Z M 339.285156 496.433594 C 314.5 477.277344 296.730469 449.640625 291.820312 418.445312 L 339.285156 418.445312 Z M 360.347656 376.292969 L 409.496094 376.292969 L 409.496094 523.371094 C 400.929688 522.785156 392.503906 521.347656 384.230469 519.050781 C 375.953125 516.753906 367.992188 513.648438 360.347656 509.738281 Z M 430.554688 334.136719 L 479.691406 334.136719 L 479.691406 506.195312 C 472.179688 510.667969 464.285156 514.308594 456.003906 517.117188 C 447.722656 519.921875 439.238281 521.832031 430.554688 522.84375 Z M 244.078125 607.785156 L 162.984375 688.894531 C 152.164062 699.722656 133.289062 699.722656 122.46875 688.894531 C 111.347656 678.222656 111.359375 659.015625 122.46875 648.347656 L 203.523438 567.304688 C 203.742188 567.132812 203.988281 567.046875 204.261719 567.046875 C 204.539062 567.046875 204.785156 567.132812 205 567.304688 L 244.078125 606.296875 C 244.253906 606.515625 244.34375 606.761719 244.34375 607.042969 C 244.34375 607.320312 244.253906 607.570312 244.078125 607.785156 Z M 249.171875 581.597656 L 230.746094 563.15625 L 265.5625 528.324219 C 271.277344 534.894531 277.386719 541.066406 283.898438 546.847656 Z M 416.511719 576.527344 C 317.789062 576.527344 237.5 496.167969 237.5 397.371094 C 237.5 298.570312 317.789062 218.210938 416.511719 218.210938 C 427.308594 218.226562 438.015625 219.21875 448.632812 221.183594 C 459.25 223.152344 469.605469 226.058594 479.691406 229.910156 L 479.691406 264.160156 C 474.585938 261.71875 469.359375 259.574219 464.003906 257.738281 C 458.652344 255.898438 453.210938 254.375 447.679688 253.164062 C 442.152344 251.957031 436.570312 251.070312 430.941406 250.503906 C 425.308594 249.941406 419.664062 249.703125 414.003906 249.792969 C 408.347656 249.882812 402.710938 250.296875 397.101562 251.039062 C 391.488281 251.78125 385.9375 252.84375 380.449219 254.226562 C 374.960938 255.609375 369.574219 257.304688 364.28125 259.3125 C 358.988281 261.320312 353.828125 263.625 348.800781 266.230469 C 348.1875 266.546875 347.609375 266.921875 347.070312 267.355469 C 346.527344 267.785156 346.035156 268.265625 345.589844 268.796875 C 345.140625 269.324219 344.75 269.894531 344.417969 270.5 C 344.082031 271.105469 343.808594 271.738281 343.601562 272.398438 C 343.390625 273.058594 343.246094 273.734375 343.171875 274.421875 C 343.09375 275.109375 343.085938 275.796875 343.144531 276.488281 C 343.203125 277.179688 343.328125 277.855469 343.519531 278.519531 C 343.710938 279.1875 343.96875 279.828125 344.285156 280.441406 C 344.601562 281.054688 344.976562 281.632812 345.410156 282.175781 C 345.84375 282.714844 346.324219 283.210938 346.851562 283.65625 C 347.382812 284.101562 347.949219 284.492188 348.554688 284.828125 C 349.160156 285.160156 349.792969 285.433594 350.453125 285.640625 C 351.113281 285.851562 351.789062 285.992188 352.476562 286.070312 C 353.164062 286.144531 353.851562 286.15625 354.542969 286.09375 C 355.230469 286.035156 355.90625 285.910156 356.570312 285.714844 C 357.238281 285.523438 357.875 285.269531 358.488281 284.949219 C 360.832031 283.734375 363.210938 282.597656 365.621094 281.535156 C 368.035156 280.472656 370.480469 279.488281 372.953125 278.578125 C 375.429688 277.667969 377.929688 276.839844 380.457031 276.085938 C 382.984375 275.335938 385.53125 274.664062 388.101562 274.074219 C 390.671875 273.480469 393.257812 272.972656 395.859375 272.542969 C 398.460938 272.113281 401.074219 271.769531 403.695312 271.503906 C 406.320312 271.242188 408.949219 271.058594 411.582031 270.960938 C 414.214844 270.859375 416.851562 270.84375 419.488281 270.914062 C 422.121094 270.980469 424.753906 271.128906 427.378906 271.363281 C 430.003906 271.59375 432.621094 271.910156 435.226562 272.304688 C 437.835938 272.703125 440.425781 273.183594 443.003906 273.742188 C 445.578125 274.304688 448.136719 274.945312 450.671875 275.664062 C 453.207031 276.386719 455.71875 277.1875 458.203125 278.066406 C 460.6875 278.945312 463.144531 279.898438 465.570312 280.933594 C 467.996094 281.96875 470.386719 283.078125 472.742188 284.261719 C 475.097656 285.445312 477.414062 286.703125 479.691406 288.03125 L 479.691406 313.058594 L 420.027344 313.058594 C 419.335938 313.058594 418.648438 313.128906 417.972656 313.261719 C 417.292969 313.398438 416.636719 313.597656 415.996094 313.863281 C 415.359375 314.128906 414.75 314.453125 414.175781 314.835938 C 413.601562 315.222656 413.070312 315.65625 412.582031 316.148438 C 412.089844 316.636719 411.65625 317.167969 411.269531 317.742188 C 410.886719 318.320312 410.5625 318.925781 410.296875 319.566406 C 410.03125 320.207031 409.832031 320.863281 409.699219 321.542969 C 409.5625 322.222656 409.496094 322.90625 409.496094 323.597656 L 409.496094 355.214844 L 349.816406 355.214844 C 349.125 355.214844 348.441406 355.28125 347.761719 355.417969 C 347.082031 355.550781 346.425781 355.753906 345.785156 356.015625 C 345.148438 356.28125 344.539062 356.605469 343.964844 356.992188 C 343.390625 357.375 342.859375 357.8125 342.371094 358.300781 C 341.882812 358.789062 341.445312 359.324219 341.058594 359.898438 C 340.675781 360.472656 340.351562 361.082031 340.085938 361.71875 C 339.824219 362.359375 339.621094 363.019531 339.488281 363.699219 C 339.351562 364.375 339.285156 365.0625 339.285156 365.753906 L 339.285156 397.371094 L 290.214844 397.371094 C 290.203125 387.449219 291.34375 377.660156 293.628906 368.007812 C 295.914062 358.355469 299.289062 349.097656 303.746094 340.238281 C 304.058594 339.621094 304.3125 338.980469 304.5 338.3125 C 304.6875 337.648438 304.808594 336.96875 304.863281 336.28125 C 304.917969 335.589844 304.90625 334.902344 304.824219 334.214844 C 304.746094 333.527344 304.597656 332.855469 304.382812 332.199219 C 304.171875 331.539062 303.894531 330.910156 303.558594 330.304688 C 303.222656 329.699219 302.828125 329.136719 302.378906 328.609375 C 301.933594 328.082031 301.4375 327.605469 300.894531 327.175781 C 300.351562 326.746094 299.773438 326.375 299.15625 326.058594 C 298.542969 325.746094 297.902344 325.492188 297.234375 325.304688 C 296.570312 325.117188 295.894531 324.996094 295.203125 324.941406 C 294.515625 324.886719 293.828125 324.898438 293.140625 324.976562 C 292.453125 325.058594 291.78125 325.207031 291.125 325.417969 C 290.464844 325.632812 289.835938 325.90625 289.230469 326.242188 C 288.628906 326.582031 288.0625 326.972656 287.539062 327.421875 C 287.011719 327.871094 286.535156 328.367188 286.105469 328.910156 C 285.675781 329.453125 285.304688 330.03125 284.988281 330.648438 C 282.015625 336.609375 279.449219 342.746094 277.292969 349.050781 C 275.136719 355.359375 273.410156 361.78125 272.113281 368.316406 C 270.816406 374.855469 269.960938 381.449219 269.542969 388.101562 C 269.128906 394.753906 269.15625 401.40625 269.628906 408.054688 C 274.75 483.851562 342.945312 546.609375 420.277344 544.738281 C 498.6875 542.828125 564.488281 475.355469 563.933594 397.371094 C 563.777344 375.289062 563.738281 336.035156 563.761719 296.039062 C 568.898438 303.433594 573.445312 311.175781 577.40625 319.257812 C 581.363281 327.34375 584.691406 335.683594 587.382812 344.273438 C 590.078125 352.867188 592.105469 361.613281 593.46875 370.511719 C 594.835938 379.414062 595.519531 388.363281 595.523438 397.371094 C 595.523438 496.167969 515.230469 576.527344 416.511719 576.527344 Z M 416.511719 576.527344 " fill-opacity="1" fill-rule="nonzero"/></g></svg>