<svg xmlns="http://www.w3.org/2000/svg" xmlns:xlink="http://www.w3.org/1999/xlink" width="1080" zoomAndPan="magnify" viewBox="0 0 810 809.999993" height="1080" preserveAspectRatio="xMidYMid meet" version="1.0"><defs><filter x="0%" y="0%" width="100%" height="100%" id="8ac5972232"><feColorMatrix values="0 0 0 0 1 0 0 0 0 1 0 0 0 0 1 0 0 0 1 0" color-interpolation-filters="sRGB"/></filter><mask id="a40c2e9a99"><g filter="url(#8ac5972232)"><rect x="-81" width="972" fill="#000000" y="-80.999999" height="971.999992" fill-opacity="0.298"/></g></mask><clipPath id="93b2d4de00"><rect x="0" width="602" y="0" height="631"/></clipPath><clipPath id="0162e5a695"><path d="M 374.785156 89 L 714 89 L 714 706 L 374.785156 706 Z M 374.785156 89 " clip-rule="nonzero"/></clipPath><clipPath id="048b0debec"><path d="M 374.785156 95 L 696 95 L 696 726 L 374.785156 726 Z M 374.785156 95 " clip-rule="nonzero"/></clipPath><mask id="ba1ba862d1"><g filter="url(#8ac5972232)"><rect x="-81" width="972" fill="#000000" y="-80.999999" height="971.999992" fill-opacity="0.298"/></g></mask><clipPath id="14fe06426c"><path d="M 0.785156 1 L 319 1 L 319 626 L 0.785156 626 Z M 0.785156 1 " clip-rule="nonzero"/></clipPath><clipPath id="ea40610eb1"><rect x="0" width="322" y="0" height="631"/></clipPath></defs><path fill="#0d02b1" d="M 168.917969 549.0625 C 101.097656 522.445312 81.644531 475.769531 110.566406 409.042969 C 139.488281 342.316406 172.984375 278.039062 211.046875 216.210938 C 249.109375 154.378906 304.308594 114.4375 376.648438 96.382812 C 448.984375 78.332031 489.882812 113.320312 499.34375 201.355469 C 508.800781 289.394531 551.308594 337.207031 626.867188 344.796875 C 702.425781 352.386719 728.566406 386.574219 705.292969 447.355469 C 682.019531 508.140625 654.140625 568.324219 621.65625 627.914062 C 589.175781 687.5 539.757812 714.097656 473.410156 707.703125 C 407.058594 701.308594 356.679688 679.921875 322.269531 643.550781 C 287.859375 607.175781 236.742188 575.679688 168.917969 549.0625 Z M 168.917969 549.0625 " fill-opacity="1" fill-rule="nonzero"/><g mask="url(#a40c2e9a99)"><g transform="matrix(1, 0, 0, 1, 94, 97)"><g clip-path="url(#93b2d4de00)"><path fill="#0d02b1" d="M 40.703125 327.820312 C -9.035156 274.640625 -6.46875 224.152344 48.402344 176.359375 C 103.273438 128.566406 161.214844 84.945312 222.226562 45.503906 C 283.234375 6.0625 350.277344 -6.257812 423.351562 8.546875 C 496.425781 23.347656 518.257812 72.511719 488.839844 156.039062 C 459.421875 239.566406 477.175781 300.996094 542.101562 340.332031 C 607.027344 379.664062 615.886719 421.761719 568.675781 466.617188 C 521.464844 511.472656 470.355469 553.808594 415.347656 593.628906 C 360.339844 633.445312 304.269531 636.207031 247.140625 601.910156 C 190.011719 567.613281 153.757812 526.65625 138.382812 479.03125 C 123.003906 431.40625 90.445312 381.003906 40.703125 327.820312 Z M 40.703125 327.820312 " fill-opacity="1" fill-rule="nonzero"/></g></g></g><g clip-path="url(#0162e5a695)"><path fill="#000000" d="M 168.917969 546.394531 C 101.097656 519.777344 81.644531 473.105469 110.566406 406.375 C 139.488281 339.648438 172.984375 275.371094 211.046875 213.542969 C 249.109375 151.710938 304.308594 111.769531 376.648438 93.714844 C 448.984375 75.664062 489.882812 110.652344 499.34375 198.691406 C 508.800781 286.726562 551.308594 334.539062 626.867188 342.128906 C 702.425781 349.71875 728.566406 383.90625 705.292969 444.691406 C 682.019531 505.472656 654.140625 565.660156 621.65625 625.246094 C 589.175781 684.832031 539.757812 711.429688 473.410156 705.035156 C 407.058594 698.640625 356.679688 677.257812 322.269531 640.882812 C 287.859375 604.507812 236.742188 573.011719 168.917969 546.394531 Z M 168.917969 546.394531 " fill-opacity="1" fill-rule="nonzero"/></g><g clip-path="url(#048b0debec)"><g mask="url(#ba1ba862d1)"><g transform="matrix(1, 0, 0, 1, 374, 95)"><g clip-path="url(#ea40610eb1)"><g clip-path="url(#14fe06426c)"><path fill="#000000" d="M -239.296875 327.152344 C -289.035156 273.972656 -286.472656 223.484375 -231.597656 175.691406 C -176.726562 127.898438 -118.785156 84.28125 -57.773438 44.835938 C 3.234375 5.394531 70.277344 -6.925781 143.351562 7.878906 C 216.425781 22.679688 238.257812 71.847656 208.839844 155.371094 C 179.421875 238.898438 197.175781 300.328125 262.101562 339.664062 C 327.027344 378.996094 335.886719 421.09375 288.675781 465.949219 C 241.464844 510.804688 190.355469 553.140625 135.347656 592.960938 C 80.339844 632.777344 24.269531 635.539062 -32.859375 601.242188 C -89.988281 566.949219 -126.242188 525.988281 -141.617188 478.363281 C -156.996094 430.738281 -189.554688 380.335938 -239.296875 327.152344 Z M -239.296875 327.152344 " fill-opacity="1" fill-rule="nonzero"/></g></g></g></g></g></svg>