<svg xmlns="http://www.w3.org/2000/svg" xmlns:xlink="http://www.w3.org/1999/xlink" width="1080" zoomAndPan="magnify" viewBox="0 0 810 809.999993" height="1080" preserveAspectRatio="xMidYMid meet" version="1.0"><defs><clipPath id="92fb846fb4"><path d="M 142.964844 81 L 725.726562 81 L 725.726562 729 L 142.964844 729 Z M 142.964844 81 " clip-rule="nonzero"/></clipPath><clipPath id="a4c875c610"><path d="M 341.328125 81 L 725.230469 81 L 725.230469 729 L 341.328125 729 Z M 341.328125 81 " clip-rule="nonzero"/></clipPath></defs><g clip-path="url(#92fb846fb4)"><path fill="#0d02b1" d="M 248.5625 604.222656 L 248.5625 625.160156 L 534.195312 625.160156 L 534.195312 604.222656 Z M 192.371094 604.222656 L 192.371094 625.160156 L 214.570312 625.160156 L 214.570312 604.222656 Z M 248.5625 534.554688 L 248.5625 555.496094 L 483.695312 555.496094 L 483.695312 534.554688 Z M 192.371094 534.554688 L 192.371094 555.496094 L 214.570312 555.496094 L 214.570312 534.554688 Z M 248.5625 464.886719 L 248.5625 485.769531 L 451.65625 485.769531 L 451.65625 464.886719 Z M 192.371094 464.886719 L 192.371094 485.769531 L 214.570312 485.769531 L 214.570312 464.886719 Z M 248.5625 395.21875 L 248.5625 416.101562 L 465.171875 416.101562 L 465.171875 395.21875 Z M 192.371094 395.21875 L 192.371094 416.101562 L 214.570312 416.101562 L 214.570312 395.21875 Z M 716.121094 350.578125 C 714.222656 350.691406 712.382812 351.441406 710.941406 352.765625 L 567.898438 476.851562 L 540.460938 442.449219 C 537.472656 438.652344 531.949219 438.019531 528.152344 441.070312 C 524.414062 444.0625 523.726562 449.585938 526.773438 453.324219 L 560.074219 494.746094 C 563.125 498.425781 568.589844 499 572.328125 495.953125 C 572.382812 495.894531 572.441406 495.835938 572.441406 495.78125 L 722.445312 366.054688 C 726.183594 363.003906 726.816406 357.539062 723.828125 353.800781 C 721.984375 351.5 719.109375 350.289062 716.121094 350.578125 Z M 581.816406 345.34375 C 575.03125 345.402344 568.128906 345.976562 561.339844 347.300781 C 501.984375 358.804688 463.042969 416.5625 474.546875 475.988281 C 485.996094 535.359375 543.570312 574.363281 602.925781 562.859375 C 662.339844 551.410156 701.28125 493.59375 689.835938 434.167969 C 689.316406 429.390625 685.058594 425.941406 680.230469 426.457031 C 675.453125 426.917969 672.003906 431.234375 672.523438 436.007812 C 672.578125 436.582031 672.636719 437.101562 672.808594 437.675781 C 682.53125 487.785156 649.800781 535.992188 599.707031 545.65625 C 549.550781 555.378906 501.410156 522.644531 491.6875 472.539062 C 482.027344 422.375 514.523438 374.222656 564.675781 364.5 C 587.339844 360.128906 610.921875 364.328125 630.59375 376.464844 C 634.617188 379.167969 640.023438 378.191406 642.726562 374.164062 C 645.429688 370.253906 644.394531 364.789062 640.425781 362.082031 C 640.195312 361.96875 639.96875 361.796875 639.738281 361.679688 C 622.195312 350.867188 602.234375 345.285156 581.816406 345.34375 Z M 248.5625 325.554688 L 248.5625 346.4375 L 534.195312 346.4375 L 534.195312 325.554688 Z M 192.371094 325.554688 L 192.371094 346.4375 L 214.570312 346.4375 L 214.570312 325.554688 Z M 248.5625 255.828125 L 248.5625 276.769531 L 534.195312 276.769531 L 534.195312 255.828125 Z M 192.371094 255.828125 L 192.371094 276.769531 L 214.570312 276.769531 L 214.570312 255.828125 Z M 272.894531 172.238281 L 272.894531 193.121094 L 474.722656 193.121094 L 474.722656 172.238281 Z M 150.785156 81 C 146.355469 81.460938 142.964844 85.199219 142.964844 89.746094 L 142.964844 720.253906 C 142.964844 725.089844 146.875 729 151.648438 729 L 596.023438 729 C 600.796875 729 604.710938 725.089844 604.710938 720.253906 L 604.710938 592.714844 C 604.765625 587.882812 600.914062 583.914062 596.082031 583.855469 C 591.308594 583.855469 587.339844 587.652344 587.28125 592.484375 C 587.28125 592.542969 587.28125 592.601562 587.28125 592.714844 L 587.28125 711.570312 L 160.390625 711.570312 L 160.390625 98.429688 L 587.28125 98.429688 L 587.28125 315.714844 C 587.222656 320.546875 591.078125 324.519531 595.910156 324.574219 C 600.683594 324.632812 604.59375 320.777344 604.710938 315.945312 C 604.710938 315.886719 604.710938 315.832031 604.710938 315.714844 L 604.710938 89.746094 C 604.710938 84.910156 600.796875 81 596.023438 81 L 151.648438 81 C 151.359375 81 151.074219 81 150.785156 81 " fill-opacity="1" fill-rule="nonzero"/></g><g clip-path="url(#a4c875c610)"><path fill="#000000" d="M 248.070312 604.222656 L 248.070312 625.160156 L 533.699219 625.160156 L 533.699219 604.222656 Z M 191.875 604.222656 L 191.875 625.160156 L 214.078125 625.160156 L 214.078125 604.222656 Z M 248.070312 534.554688 L 248.070312 555.496094 L 483.199219 555.496094 L 483.199219 534.554688 Z M 191.875 534.554688 L 191.875 555.496094 L 214.078125 555.496094 L 214.078125 534.554688 Z M 248.070312 464.886719 L 248.070312 485.769531 L 451.164062 485.769531 L 451.164062 464.886719 Z M 191.875 464.886719 L 191.875 485.769531 L 214.078125 485.769531 L 214.078125 464.886719 Z M 248.070312 395.21875 L 248.070312 416.101562 L 464.679688 416.101562 L 464.679688 395.21875 Z M 191.875 395.21875 L 191.875 416.101562 L 214.078125 416.101562 L 214.078125 395.21875 Z M 715.625 350.578125 C 713.726562 350.691406 711.886719 351.441406 710.449219 352.765625 L 567.402344 476.851562 L 539.96875 442.449219 C 536.976562 438.652344 531.457031 438.019531 527.660156 441.070312 C 523.921875 444.0625 523.230469 449.585938 526.28125 453.324219 L 559.582031 494.746094 C 562.628906 498.425781 568.09375 499 571.832031 495.953125 C 571.890625 495.894531 571.949219 495.835938 571.949219 495.78125 L 721.953125 366.054688 C 725.691406 363.003906 726.324219 357.539062 723.332031 353.800781 C 721.492188 351.5 718.617188 350.289062 715.625 350.578125 Z M 581.324219 345.34375 C 574.535156 345.402344 567.632812 345.976562 560.847656 347.300781 C 501.488281 358.804688 462.550781 416.5625 474.054688 475.988281 C 485.5 535.359375 543.074219 574.363281 602.433594 562.859375 C 661.847656 551.410156 700.785156 493.59375 689.339844 434.167969 C 688.824219 429.390625 684.566406 425.941406 679.734375 426.457031 C 674.960938 426.917969 671.507812 431.234375 672.027344 436.007812 C 672.085938 436.582031 672.140625 437.101562 672.316406 437.675781 C 682.035156 487.785156 649.308594 535.992188 599.210938 545.65625 C 549.054688 555.378906 500.914062 522.644531 491.195312 472.539062 C 481.53125 422.375 514.027344 374.222656 564.183594 364.5 C 586.84375 360.128906 610.425781 364.328125 630.097656 376.464844 C 634.125 379.167969 639.53125 378.191406 642.234375 374.164062 C 644.9375 370.253906 643.902344 364.789062 639.933594 362.082031 C 639.703125 361.96875 639.472656 361.796875 639.242188 361.679688 C 621.699219 350.867188 601.742188 345.285156 581.324219 345.34375 Z M 248.070312 325.554688 L 248.070312 346.4375 L 533.699219 346.4375 L 533.699219 325.554688 Z M 191.875 325.554688 L 191.875 346.4375 L 214.078125 346.4375 L 214.078125 325.554688 Z M 248.070312 255.828125 L 248.070312 276.769531 L 533.699219 276.769531 L 533.699219 255.828125 Z M 191.875 255.828125 L 191.875 276.769531 L 214.078125 276.769531 L 214.078125 255.828125 Z M 272.398438 172.238281 L 272.398438 193.121094 L 474.226562 193.121094 L 474.226562 172.238281 Z M 150.289062 81 C 145.863281 81.460938 142.46875 85.199219 142.46875 89.746094 L 142.46875 720.253906 C 142.46875 725.089844 146.378906 729 151.152344 729 L 595.53125 729 C 600.304688 729 604.214844 725.089844 604.214844 720.253906 L 604.214844 592.714844 C 604.273438 587.882812 600.417969 583.914062 595.585938 583.855469 C 590.8125 583.855469 586.84375 587.652344 586.789062 592.484375 C 586.789062 592.542969 586.789062 592.601562 586.789062 592.714844 L 586.789062 711.570312 L 159.894531 711.570312 L 159.894531 98.429688 L 586.789062 98.429688 L 586.789062 315.714844 C 586.730469 320.546875 590.582031 324.519531 595.414062 324.574219 C 600.1875 324.632812 604.101562 320.777344 604.214844 315.945312 C 604.214844 315.886719 604.214844 315.832031 604.214844 315.714844 L 604.214844 89.746094 C 604.214844 84.910156 600.304688 81 595.53125 81 L 151.152344 81 C 150.867188 81 150.578125 81 150.289062 81 " fill-opacity="1" fill-rule="nonzero"/></g></svg>