<svg xmlns="http://www.w3.org/2000/svg" xmlns:xlink="http://www.w3.org/1999/xlink" width="1080" zoomAndPan="magnify" viewBox="0 0 810 809.999993" height="1080" preserveAspectRatio="xMidYMid meet" version="1.0"><defs><clipPath id="a65cefe2a1"><path d="M 81 159 L 729 159 L 729 654.117188 L 81 654.117188 Z M 81 159 " clip-rule="nonzero"/></clipPath><clipPath id="293fb2fb22"><path d="M 336.636719 159 L 728.886719 159 L 728.886719 654.117188 L 336.636719 654.117188 Z M 336.636719 159 " clip-rule="nonzero"/></clipPath></defs><path fill="#0d02b1" d="M 404.847656 608.324219 C 404.847656 608.550781 404.839844 608.789062 404.832031 609.019531 C 404.820312 609.488281 404.785156 609.957031 404.738281 610.421875 C 404.785156 609.949219 404.820312 609.488281 404.832031 609.019531 C 404.839844 608.789062 404.847656 608.550781 404.847656 608.324219 " fill-opacity="1" fill-rule="nonzero"/><g clip-path="url(#a65cefe2a1)"><path fill="#0d02b1" d="M 603.734375 464.539062 C 613.78125 464.539062 622.023438 456.300781 622.023438 446.238281 C 622.023438 436.1875 613.78125 427.941406 603.734375 427.941406 C 593.675781 427.941406 585.441406 436.1875 585.441406 446.238281 C 585.441406 456.300781 593.675781 464.539062 603.734375 464.539062 Z M 603.734375 470.285156 C 616.957031 470.285156 627.765625 459.472656 627.765625 446.238281 C 627.765625 433.007812 616.957031 422.195312 603.734375 422.195312 C 590.507812 422.195312 579.773438 433.007812 579.773438 446.238281 C 579.773438 459.472656 590.507812 470.285156 603.734375 470.285156 Z M 562.164062 507.714844 C 572.21875 507.714844 580.378906 499.550781 580.378906 489.417969 C 580.378906 479.359375 572.21875 471.195312 562.164062 471.195312 C 552.117188 471.195312 543.875 479.359375 543.875 489.417969 C 543.875 499.550781 552.117188 507.714844 562.164062 507.714844 Z M 562.164062 513.457031 C 575.394531 513.457031 586.121094 502.644531 586.121094 489.417969 C 586.121094 476.261719 575.394531 465.445312 562.164062 465.445312 C 548.9375 465.445312 538.128906 476.261719 538.128906 489.417969 C 538.128906 502.644531 548.9375 513.457031 562.164062 513.457031 Z M 370.207031 520.492188 C 380.257812 520.492188 388.417969 512.324219 388.417969 502.269531 C 388.417969 492.210938 380.257812 483.972656 370.207031 483.972656 C 360.15625 483.972656 351.914062 492.210938 351.914062 502.269531 C 351.914062 512.324219 360.15625 520.492188 370.207031 520.492188 Z M 370.207031 526.238281 C 383.433594 526.238281 394.164062 515.503906 394.164062 502.269531 C 394.164062 489.035156 383.433594 478.226562 370.207031 478.226562 C 356.976562 478.226562 346.171875 489.035156 346.171875 502.269531 C 346.171875 515.503906 356.976562 526.238281 370.207031 526.238281 Z M 286.996094 488.507812 C 297.050781 488.507812 305.285156 480.34375 305.285156 470.210938 C 305.285156 460.15625 297.050781 451.988281 286.996094 451.988281 C 276.945312 451.988281 268.707031 460.15625 268.707031 470.210938 C 268.707031 480.34375 276.945312 488.507812 286.996094 488.507812 Z M 286.996094 494.253906 C 300.222656 494.253906 311.03125 483.4375 311.03125 470.210938 C 311.03125 457.054688 300.222656 446.238281 286.996094 446.238281 C 273.773438 446.238281 263.039062 457.054688 263.039062 470.210938 C 263.039062 483.4375 273.773438 494.253906 286.996094 494.253906 Z M 213.386719 466.125 C 223.515625 466.125 231.675781 457.886719 231.675781 447.832031 C 231.675781 437.773438 223.515625 429.535156 213.386719 429.535156 C 203.335938 429.535156 195.175781 437.773438 195.175781 447.832031 C 195.175781 457.886719 203.335938 466.125 213.386719 466.125 Z M 213.386719 471.871094 C 226.613281 471.871094 237.417969 461.0625 237.417969 447.832031 C 237.417969 434.59375 226.613281 423.863281 213.386719 423.863281 C 200.238281 423.863281 189.429688 434.59375 189.429688 447.832031 C 189.429688 461.0625 200.238281 471.871094 213.386719 471.871094 Z M 349.421875 402.082031 C 359.472656 402.082031 367.632812 393.917969 367.632812 383.785156 C 367.632812 373.734375 359.472656 365.5625 349.421875 365.5625 C 339.292969 365.5625 331.132812 373.734375 331.132812 383.785156 C 331.132812 393.917969 339.292969 402.082031 349.421875 402.082031 Z M 349.421875 407.832031 C 362.648438 407.832031 373.378906 397.019531 373.378906 383.785156 C 373.378906 370.632812 362.648438 359.816406 349.421875 359.816406 C 336.195312 359.816406 325.390625 370.632812 325.390625 383.785156 C 325.390625 397.019531 336.195312 407.832031 349.421875 407.832031 Z M 486.96875 437.316406 C 497.015625 437.316406 505.257812 429.078125 505.257812 419.023438 C 505.257812 408.964844 497.015625 400.726562 486.96875 400.726562 C 476.914062 400.726562 468.679688 408.964844 468.679688 419.023438 C 468.679688 429.078125 476.914062 437.316406 486.96875 437.316406 Z M 486.96875 443.0625 C 500.191406 443.0625 511.003906 432.253906 511.003906 419.023438 C 511.003906 405.785156 500.191406 395.054688 486.96875 395.054688 C 473.746094 395.054688 462.933594 405.785156 462.933594 419.023438 C 462.933594 432.253906 473.746094 443.0625 486.96875 443.0625 Z M 605.304688 346.949219 C 619.339844 346.949219 630.835938 335.445312 630.835938 321.414062 C 630.835938 307.371094 619.339844 295.863281 605.304688 295.863281 C 591.269531 295.863281 579.871094 307.371094 579.871094 321.414062 C 579.871094 335.445312 591.269531 346.949219 605.304688 346.949219 Z M 720.363281 461.417969 C 719.554688 453.03125 714.695312 439.933594 711.957031 433.515625 C 710.738281 430.523438 710.761719 429.1875 711.09375 427.042969 C 711.179688 426.460938 711.292969 425.722656 711.355469 424.632812 C 711.394531 424.015625 711.402344 423.4375 711.417969 422.839844 L 564.472656 491.261719 L 554.460938 538.066406 C 556.320312 539.132812 558.273438 541.023438 560.558594 543.246094 C 562.261719 544.914062 564.027344 546.628906 565.359375 547.601562 C 576.003906 555.375 579.578125 557.984375 591.453125 562.726562 C 592.21875 563.007812 592.796875 563.355469 593.226562 563.613281 C 593.628906 563.847656 593.84375 563.980469 594.378906 564.144531 L 605.234375 567.296875 C 617.515625 570.140625 630.941406 570.324219 642.835938 567.761719 L 643.328125 567.65625 C 647.855469 566.738281 651.433594 566.015625 655.5625 564.5 C 656.472656 564.144531 657.460938 563.8125 658.4375 563.476562 C 659.425781 563.132812 660.40625 562.804688 661.355469 562.421875 L 661.953125 562.199219 C 662.886719 561.855469 663.308594 561.707031 664.179688 561.300781 C 669.78125 558.898438 675.457031 555.707031 680.289062 552.265625 L 681.375 551.46875 C 691.730469 543.882812 704.855469 530.933594 710.675781 517.335938 C 711.25 515.960938 711.949219 514.574219 712.648438 513.175781 C 713.589844 511.3125 714.476562 509.554688 715.105469 507.707031 C 717.367188 500.742188 718.925781 494.363281 719.859375 488.246094 C 721.160156 479.273438 721.304688 471.496094 720.363281 461.417969 Z M 559.058594 491.296875 L 397.261719 446.234375 L 373.910156 500.351562 L 549.035156 537.832031 C 549.0625 537.816406 549.085938 537.800781 549.113281 537.789062 Z M 546.109375 542.617188 L 372.410156 505.449219 L 363.515625 565.808594 C 365.78125 567.367188 367.957031 570.277344 370.589844 574.03125 C 371.1875 574.875 371.710938 575.632812 372.125 576.160156 C 377.078125 582.507812 384.679688 589.363281 391.972656 594.054688 L 404.746094 601.449219 C 412.257812 605.839844 422.660156 609.035156 435.675781 610.960938 C 454.269531 613.800781 475.117188 610.433594 494.371094 601.519531 C 502.566406 597.757812 511.210938 591.894531 518.726562 585 C 523.527344 580.636719 527.347656 576.351562 531.125 571.070312 C 535.429688 565.207031 538.636719 560.359375 541.417969 554.238281 C 541.789062 553.414062 542.085938 552.882812 542.367188 552.398438 C 542.550781 552.066406 542.726562 551.765625 542.925781 551.253906 C 543.03125 551 543.234375 550.394531 543.527344 549.585938 C 544.632812 546.492188 545.453125 544.253906 546.109375 542.617188 Z M 367.28125 503.972656 L 284.464844 472.074219 L 281.414062 422.867188 L 215.984375 449.625 L 211.375 615.847656 L 237.511719 576.566406 L 357.351562 566.042969 C 357.632812 565.808594 357.925781 565.585938 358.234375 565.371094 Z M 353.238281 571.71875 L 240.503906 581.613281 L 212.527344 623.671875 C 233.019531 644.171875 253.566406 651.097656 272.015625 643.648438 C 289.191406 636.710938 300.640625 618.160156 300.675781 608.9375 L 300.683594 607.707031 L 301.417969 606.710938 C 303.773438 603.511719 304.878906 601.609375 305.535156 600.472656 C 307.226562 597.558594 308.246094 596.878906 311.601562 596.414062 C 312.796875 596.253906 314.601562 596.007812 317.652344 595.296875 C 326.039062 593.308594 333.777344 589.722656 340.019531 584.9375 C 340.539062 584.527344 341.019531 584.183594 341.460938 583.863281 C 342.03125 583.445312 342.53125 583.09375 343.074219 582.589844 C 347.382812 578.644531 350.566406 575.21875 353.238281 571.71875 Z M 210.667969 450.566406 L 115.789062 453.632812 C 114.980469 454.851562 114.042969 455.84375 112.96875 456.9375 C 110.320312 459.664062 106.308594 463.777344 100.742188 475.941406 C 96.855469 484.554688 95.082031 498.839844 96.722656 508.4375 C 97.574219 513.308594 98.671875 516.851562 100.066406 521.34375 L 100.460938 522.625 C 101.410156 525.667969 104.394531 530.976562 106.527344 533.925781 L 117.914062 546.871094 C 119.226562 548.0625 120.378906 548.875 121.394531 549.601562 C 123.738281 551.261719 126.398438 553.152344 126.398438 557.617188 C 126.164062 570.980469 129.277344 583.332031 135.167969 592.464844 L 143.304688 603.375 C 147.640625 608.136719 156.191406 614.839844 162.601562 617.484375 C 173.128906 621.734375 189.015625 625.140625 198.980469 622.539062 L 200.230469 622.175781 C 201.949219 621.679688 203.835938 621.160156 205.9375 621.0625 Z M 109.984375 442.464844 C 110.257812 442.652344 110.703125 442.871094 111.171875 443.105469 C 112.339844 443.699219 113.742188 444.425781 114.898438 445.480469 L 230.503906 332.445312 L 118.683594 357.488281 L 118.429688 357.824219 C 117.667969 358.804688 116.90625 359.300781 116.347656 359.671875 C 116.199219 359.757812 116.035156 359.871094 115.84375 360.011719 L 115.464844 360.25 C 115.011719 360.5 114.683594 360.671875 114.402344 360.8125 C 113.910156 361.0625 113.835938 361.101562 113.289062 361.546875 C 112.171875 362.453125 111.214844 363.367188 110.4375 364.257812 L 110.070312 364.683594 L 109.59375 364.988281 C 96.457031 373.261719 88.613281 387.472656 88.613281 402.988281 C 88.613281 416.28125 94.402344 428.789062 104.5 437.300781 L 104.984375 437.792969 C 106.457031 439.585938 108.1875 441.207031 109.984375 442.464844 Z M 119.050781 351.988281 L 236.355469 325.71875 L 236.214844 216.246094 C 232.292969 215.949219 228.40625 217.25 225.414062 219.894531 L 224.085938 220.820312 L 223.261719 220.953125 C 207.402344 223.417969 193.964844 234.40625 188.203125 249.632812 L 187.871094 250.511719 L 187.160156 251.132812 C 182.746094 255.011719 178.996094 259.925781 176.015625 265.746094 C 175.726562 266.324219 175.472656 266.8125 175.285156 267.3125 L 174.777344 268.671875 L 173.488281 269.339844 C 162.226562 275.199219 151.492188 283.976562 142.441406 294.734375 C 127.242188 312.808594 118.660156 333.941406 119.050781 351.988281 Z M 119.664062 448.214844 L 212.828125 445.199219 L 282.691406 416.628906 L 343.699219 383.851562 L 239.503906 331.058594 Z M 340.546875 391.5625 L 286.570312 420.554688 L 289.183594 462.667969 Z M 291.152344 468.976562 L 368.785156 498.886719 L 392.699219 443.457031 L 349.503906 388.1875 Z M 343.25 288.851562 C 342.03125 290.125 340.953125 291.535156 340.035156 293.054688 L 241.507812 218.101562 L 241.648438 324.65625 L 336.660156 307.113281 C 336.792969 308.90625 337.101562 310.652344 337.609375 312.316406 L 247.1875 329.011719 L 347.324219 379.757812 L 354.617188 328.632812 C 356.300781 329.070312 358.050781 329.332031 359.855469 329.386719 L 352.199219 383.042969 L 396.757812 440.066406 L 481.558594 417.714844 L 376.550781 323.273438 C 377.863281 322.089844 379.046875 320.773438 380.078125 319.335938 L 485.683594 414.300781 L 512.503906 328.949219 C 514.101562 329.660156 515.789062 330.203125 517.550781 330.550781 L 492.167969 411.304688 L 585.261719 334.519531 C 586.234375 336.007812 587.359375 337.378906 588.621094 338.609375 L 492.78125 417.660156 L 601.96875 443.117188 L 650.234375 294.320312 L 626.582031 310.265625 C 625.757812 308.695312 624.761719 307.226562 623.621094 305.882812 L 651.300781 287.21875 C 650.71875 266.710938 632.886719 243.179688 606.648438 228.449219 C 589.242188 218.679688 570.316406 213.988281 553.984375 215.234375 L 596.804688 298.960938 C 595.144531 299.597656 593.566406 300.398438 592.101562 301.375 L 550.019531 219.101562 L 531.265625 284.800781 C 529.652344 284.136719 527.945312 283.660156 526.179688 283.359375 L 546.023438 213.835938 L 545.839844 213.398438 C 542.523438 205.546875 537.019531 198.789062 529.929688 193.855469 C 517.132812 185.039062 500.613281 183.53125 486.351562 189.714844 L 517.246094 283.519531 C 515.492188 283.886719 513.820312 284.460938 512.226562 285.195312 L 481.542969 192.035156 L 379.542969 290.742188 C 378.457031 289.335938 377.242188 288.046875 375.882812 286.921875 L 478.304688 187.804688 C 475.828125 184.9375 473.042969 182.425781 469.972656 180.355469 C 455.757812 170.488281 437.53125 169.609375 422.367188 178.027344 L 421.21875 178.671875 L 418.398438 178.203125 L 417.585938 177.480469 C 416.546875 176.566406 415.457031 175.707031 413.941406 174.605469 C 398.441406 163.960938 377.648438 164.132812 362.269531 175.078125 L 361.523438 175.613281 L 360.617188 175.742188 C 358.910156 175.992188 357.457031 176.277344 356.042969 176.644531 C 354.300781 177.085938 353.132812 177.410156 352.265625 177.660156 L 361.199219 281.445312 C 361 281.4375 360.808594 281.410156 360.609375 281.410156 C 359.007812 281.410156 357.445312 281.574219 355.929688 281.871094 L 346.972656 177.855469 C 331.746094 173.488281 313.480469 173.734375 295.320312 178.679688 C 272.5 184.890625 253.269531 197.566406 243.304688 212.816406 Z M 598.597656 447.765625 L 488.761719 422.152344 L 488.253906 423.738281 L 486.261719 421.945312 L 405.867188 443.140625 L 561.351562 486.445312 Z M 573.914062 481.023438 L 688.710938 427.566406 L 605.109375 448.621094 Z M 656.535156 292.0625 L 607.726562 442.511719 L 711.796875 416.304688 C 719.535156 396.695312 712.898438 374.753906 695.527344 362.78125 C 694.046875 361.683594 692.476562 360.730469 690.492188 359.695312 L 689.839844 359.359375 L 688.851562 358.183594 C 688.652344 357.933594 688.449219 357.675781 688.199219 357.429688 L 686.402344 355.621094 L 687.390625 353.28125 C 695.671875 333.730469 688.988281 310.792969 671.492188 298.738281 C 666.902344 295.53125 661.863281 293.328125 656.535156 292.0625 Z M 727.332031 489.355469 C 726.335938 495.914062 724.683594 502.6875 722.273438 510.09375 C 721.457031 512.492188 720.414062 514.566406 719.394531 516.582031 C 718.773438 517.820312 718.148438 519.039062 717.632812 520.289062 C 712.179688 533.050781 700.296875 546.976562 685.847656 557.566406 L 684.710938 558.394531 C 679.417969 562.175781 673.238281 565.640625 667.265625 568.203125 C 666.269531 568.667969 665.742188 568.863281 664.554688 569.304688 L 664.0625 569.484375 C 663.101562 569.867188 662 570.246094 660.886719 570.625 C 660 570.929688 659.097656 571.242188 658.222656 571.582031 C 653.496094 573.3125 649.480469 574.121094 644.832031 575.070312 L 644.386719 575.15625 C 631.46875 577.945312 616.871094 577.75 603.328125 574.605469 L 592.175781 571.378906 C 590.722656 570.917969 589.941406 570.453125 589.367188 570.113281 C 589.179688 569.996094 589 569.878906 588.730469 569.773438 C 575.894531 564.652344 571.511719 561.453125 560.917969 553.710938 C 559.148438 552.433594 557.179688 550.515625 555.277344 548.65625 C 554.542969 547.945312 553.628906 547.054688 552.792969 546.277344 C 551.976562 548.382812 551.054688 550.972656 550.648438 552.125 C 550.308594 553.066406 550.0625 553.769531 549.957031 554.03125 C 549.597656 554.953125 549.285156 555.503906 548.9375 556.121094 C 548.757812 556.445312 548.558594 556.792969 548.308594 557.355469 C 545.242188 564.082031 541.8125 569.285156 537.25 575.5 C 533.222656 581.128906 528.953125 585.933594 523.820312 590.585938 C 515.757812 597.984375 506.414062 604.316406 497.535156 608.386719 C 476.96875 617.921875 454.597656 621.492188 434.558594 618.441406 C 420.597656 616.375 409.28125 612.859375 400.949219 607.984375 L 388.035156 600.507812 C 379.925781 595.296875 371.605469 587.78125 366.167969 580.808594 C 365.703125 580.207031 365.09375 579.351562 364.410156 578.382812 C 363.660156 577.3125 362.289062 575.359375 361.066406 573.875 L 360.734375 574.332031 C 357.496094 578.914062 353.625 583.179688 348.195312 588.15625 C 347.378906 588.910156 346.621094 589.460938 345.890625 589.992188 C 345.511719 590.261719 345.101562 590.558594 344.636719 590.917969 C 337.539062 596.367188 328.8125 600.417969 319.382812 602.652344 C 315.976562 603.449219 313.875 603.742188 312.625 603.90625 C 312.488281 603.929688 312.363281 603.941406 312.25 603.964844 C 312.199219 604.050781 312.136719 604.15625 312.074219 604.265625 C 311.40625 605.421875 310.328125 607.285156 308.179688 610.261719 C 307.273438 622.273438 294.730469 642.625 274.847656 650.652344 C 269.832031 652.679688 263.847656 654.148438 257.027344 654.148438 C 243.617188 654.148438 226.988281 648.425781 208.253906 630.089844 L 205.574219 634.121094 L 205.726562 628.714844 C 204.679688 628.84375 203.59375 629.078125 202.335938 629.441406 C 201.867188 629.578125 201.394531 629.71875 200.917969 629.84375 C 189.210938 632.910156 171.808594 629.359375 159.75 624.484375 C 152.179688 621.367188 142.539062 613.820312 137.574219 608.308594 L 137.351562 608.042969 L 128.960938 596.769531 C 122.121094 586.183594 118.578125 572.324219 118.84375 557.550781 C 118.84375 557.285156 118.804688 557.171875 118.804688 557.171875 C 118.65625 556.925781 117.710938 556.253906 117.019531 555.761719 C 115.84375 554.929688 114.382812 553.894531 112.660156 552.308594 L 112.378906 552.023438 L 100.527344 538.523438 C 97.996094 535.066406 94.492188 528.863281 93.242188 524.875 L 92.84375 523.582031 C 91.433594 519.027344 90.214844 515.085938 89.273438 509.730469 C 87.386719 498.652344 89.359375 482.78125 93.863281 472.8125 C 99.980469 459.4375 104.539062 454.753906 107.5625 451.660156 C 108.027344 451.183594 108.433594 450.761719 108.773438 450.378906 C 108.414062 450.179688 108.027344 449.984375 107.753906 449.847656 C 106.957031 449.445312 106.230469 449.058594 105.683594 448.683594 C 103.347656 447.042969 101.242188 445.089844 99.367188 442.863281 C 87.722656 432.910156 81.058594 418.402344 81.058594 402.988281 C 81.058594 385.046875 90.035156 368.59375 105.105469 358.878906 C 106.089844 357.800781 107.238281 356.722656 108.523438 355.675781 C 109.613281 354.789062 110.175781 354.484375 110.96875 354.078125 C 111.132812 353.992188 111.316406 353.894531 111.539062 353.78125 C 110.574219 333.554688 119.863281 309.835938 136.660156 289.867188 C 146.027344 278.738281 157.121094 269.5625 168.8125 263.261719 C 168.953125 262.972656 169.105469 262.660156 169.273438 262.328125 C 172.546875 255.929688 176.648438 250.476562 181.472656 246.078125 C 188.25 229.089844 203.292969 216.773438 221.09375 213.648438 C 225.566406 210 231.222656 208.246094 236.9375 208.699219 C 247.902344 191.921875 268.769531 178.070312 293.335938 171.378906 C 312.917969 166.058594 332.761719 165.800781 349.363281 170.632812 C 350.300781 170.359375 351.730469 169.941406 354.15625 169.324219 C 355.550781 168.957031 357.027344 168.65625 358.636719 168.398438 C 376.515625 156.136719 400.367188 156.117188 418.292969 168.433594 C 419.039062 168.972656 419.890625 169.59375 420.792969 170.316406 C 438.050781 161.6875 458.324219 163.066406 474.238281 174.117188 C 477.714844 176.457031 480.921875 179.28125 483.765625 182.519531 L 483.929688 182.367188 L 483.972656 182.492188 C 500.484375 175.597656 519.464844 177.46875 534.234375 187.636719 C 541.714844 192.851562 547.671875 199.789062 551.609375 207.832031 C 569.816406 205.980469 591.042969 211.023438 610.34375 221.859375 C 637.378906 237.027344 655.65625 260.277344 658.476562 282.386719 L 660.007812 281.351562 L 658.894531 284.792969 C 664.917969 286.308594 670.601562 288.898438 675.800781 292.519531 C 695.472656 306.082031 703.4375 331.457031 695.335938 353.71875 C 697.078125 354.675781 698.558594 355.621094 699.921875 356.628906 C 720.027344 370.492188 727.816406 395.976562 718.953125 418.804688 C 719.054688 420.878906 719.042969 422.953125 718.894531 425.097656 C 718.820312 426.476562 718.675781 427.429688 718.558594 428.191406 C 718.394531 429.277344 718.394531 429.277344 718.929688 430.59375 C 722.523438 439.011719 727.042969 451.988281 727.886719 460.699219 C 728.890625 471.429688 728.730469 479.730469 727.332031 489.355469 Z M 545.183594 313.644531 L 581.4375 319.945312 C 581.546875 318.144531 581.835938 316.398438 582.320312 314.726562 L 546.066406 308.429688 C 545.964844 310.230469 545.664062 311.972656 545.183594 313.644531 Z M 384.375 308.265625 L 498.277344 309.378906 C 498.191406 308.582031 498.152344 307.78125 498.152344 306.96875 C 498.152344 305.992188 498.226562 305.03125 498.347656 304.089844 L 384.441406 302.96875 C 384.519531 303.761719 384.5625 304.566406 384.5625 305.378906 C 384.5625 306.355469 384.488281 307.316406 384.375 308.265625 Z M 522.199219 332.28125 C 536.117188 332.28125 547.410156 320.976562 547.410156 306.953125 C 547.410156 293.03125 536.117188 281.734375 522.199219 281.734375 C 508.1875 281.734375 496.882812 293.03125 496.882812 306.953125 C 496.882812 320.976562 508.1875 332.28125 522.199219 332.28125 Z M 239.007812 346.058594 C 249.058594 346.058594 257.296875 337.886719 257.296875 327.835938 C 257.296875 317.777344 249.058594 309.539062 239.007812 309.539062 C 228.957031 309.539062 220.71875 317.777344 220.71875 327.835938 C 220.71875 337.886719 228.957031 346.058594 239.007812 346.058594 Z M 239.007812 351.804688 C 252.234375 351.804688 263.039062 341.066406 263.039062 327.835938 C 263.039062 314.605469 252.234375 303.789062 239.007812 303.789062 C 225.78125 303.789062 215.050781 314.605469 215.050781 327.835938 C 215.050781 341.066406 225.78125 351.804688 239.007812 351.804688 Z M 360.621094 330.34375 C 346.898438 330.34375 335.652344 319.09375 335.652344 305.363281 C 335.652344 291.632812 346.898438 280.484375 360.621094 280.484375 C 374.34375 280.484375 385.484375 291.632812 385.484375 305.363281 C 385.484375 319.09375 374.34375 330.34375 360.621094 330.34375 " fill-opacity="1" fill-rule="nonzero"/></g><path fill="#000000" d="M 404.847656 608.324219 C 404.847656 608.550781 404.839844 608.789062 404.832031 609.019531 C 404.820312 609.488281 404.785156 609.957031 404.738281 610.421875 C 404.785156 609.949219 404.820312 609.488281 404.832031 609.019531 C 404.839844 608.789062 404.847656 608.550781 404.847656 608.324219 " fill-opacity="1" fill-rule="nonzero"/><g clip-path="url(#293fb2fb22)"><path fill="#000000" d="M 603.734375 464.539062 C 613.78125 464.539062 622.023438 456.300781 622.023438 446.238281 C 622.023438 436.1875 613.78125 427.941406 603.734375 427.941406 C 593.675781 427.941406 585.441406 436.1875 585.441406 446.238281 C 585.441406 456.300781 593.675781 464.539062 603.734375 464.539062 Z M 603.734375 470.285156 C 616.957031 470.285156 627.765625 459.472656 627.765625 446.238281 C 627.765625 433.007812 616.957031 422.195312 603.734375 422.195312 C 590.507812 422.195312 579.773438 433.007812 579.773438 446.238281 C 579.773438 459.472656 590.507812 470.285156 603.734375 470.285156 Z M 562.164062 507.714844 C 572.21875 507.714844 580.378906 499.550781 580.378906 489.417969 C 580.378906 479.359375 572.21875 471.195312 562.164062 471.195312 C 552.117188 471.195312 543.875 479.359375 543.875 489.417969 C 543.875 499.550781 552.117188 507.714844 562.164062 507.714844 Z M 562.164062 513.457031 C 575.394531 513.457031 586.121094 502.644531 586.121094 489.417969 C 586.121094 476.261719 575.394531 465.445312 562.164062 465.445312 C 548.9375 465.445312 538.128906 476.261719 538.128906 489.417969 C 538.128906 502.644531 548.9375 513.457031 562.164062 513.457031 Z M 370.207031 520.492188 C 380.257812 520.492188 388.417969 512.324219 388.417969 502.269531 C 388.417969 492.210938 380.257812 483.972656 370.207031 483.972656 C 360.15625 483.972656 351.914062 492.210938 351.914062 502.269531 C 351.914062 512.324219 360.15625 520.492188 370.207031 520.492188 Z M 370.207031 526.238281 C 383.433594 526.238281 394.164062 515.503906 394.164062 502.269531 C 394.164062 489.035156 383.433594 478.226562 370.207031 478.226562 C 356.976562 478.226562 346.171875 489.035156 346.171875 502.269531 C 346.171875 515.503906 356.976562 526.238281 370.207031 526.238281 Z M 286.996094 488.507812 C 297.050781 488.507812 305.285156 480.34375 305.285156 470.210938 C 305.285156 460.15625 297.050781 451.988281 286.996094 451.988281 C 276.945312 451.988281 268.707031 460.15625 268.707031 470.210938 C 268.707031 480.34375 276.945312 488.507812 286.996094 488.507812 Z M 286.996094 494.253906 C 300.222656 494.253906 311.03125 483.4375 311.03125 470.210938 C 311.03125 457.054688 300.222656 446.238281 286.996094 446.238281 C 273.773438 446.238281 263.039062 457.054688 263.039062 470.210938 C 263.039062 483.4375 273.773438 494.253906 286.996094 494.253906 Z M 213.386719 466.125 C 223.515625 466.125 231.675781 457.886719 231.675781 447.832031 C 231.675781 437.773438 223.515625 429.535156 213.386719 429.535156 C 203.335938 429.535156 195.175781 437.773438 195.175781 447.832031 C 195.175781 457.886719 203.335938 466.125 213.386719 466.125 Z M 213.386719 471.871094 C 226.613281 471.871094 237.417969 461.0625 237.417969 447.832031 C 237.417969 434.59375 226.613281 423.863281 213.386719 423.863281 C 200.238281 423.863281 189.429688 434.59375 189.429688 447.832031 C 189.429688 461.0625 200.238281 471.871094 213.386719 471.871094 Z M 349.421875 402.082031 C 359.472656 402.082031 367.632812 393.917969 367.632812 383.785156 C 367.632812 373.734375 359.472656 365.5625 349.421875 365.5625 C 339.292969 365.5625 331.132812 373.734375 331.132812 383.785156 C 331.132812 393.917969 339.292969 402.082031 349.421875 402.082031 Z M 349.421875 407.832031 C 362.648438 407.832031 373.378906 397.019531 373.378906 383.785156 C 373.378906 370.632812 362.648438 359.816406 349.421875 359.816406 C 336.195312 359.816406 325.390625 370.632812 325.390625 383.785156 C 325.390625 397.019531 336.195312 407.832031 349.421875 407.832031 Z M 486.96875 437.316406 C 497.015625 437.316406 505.257812 429.078125 505.257812 419.023438 C 505.257812 408.964844 497.015625 400.726562 486.96875 400.726562 C 476.914062 400.726562 468.679688 408.964844 468.679688 419.023438 C 468.679688 429.078125 476.914062 437.316406 486.96875 437.316406 Z M 486.96875 443.0625 C 500.191406 443.0625 511.003906 432.253906 511.003906 419.023438 C 511.003906 405.785156 500.191406 395.054688 486.96875 395.054688 C 473.746094 395.054688 462.933594 405.785156 462.933594 419.023438 C 462.933594 432.253906 473.746094 443.0625 486.96875 443.0625 Z M 605.304688 346.949219 C 619.339844 346.949219 630.835938 335.445312 630.835938 321.414062 C 630.835938 307.371094 619.339844 295.863281 605.304688 295.863281 C 591.269531 295.863281 579.871094 307.371094 579.871094 321.414062 C 579.871094 335.445312 591.269531 346.949219 605.304688 346.949219 Z M 720.363281 461.417969 C 719.554688 453.03125 714.695312 439.933594 711.957031 433.515625 C 710.738281 430.523438 710.761719 429.1875 711.09375 427.042969 C 711.179688 426.460938 711.292969 425.722656 711.355469 424.632812 C 711.394531 424.015625 711.402344 423.4375 711.417969 422.839844 L 564.472656 491.261719 L 554.460938 538.066406 C 556.320312 539.132812 558.273438 541.023438 560.558594 543.246094 C 562.261719 544.914062 564.027344 546.628906 565.359375 547.601562 C 576.003906 555.375 579.578125 557.984375 591.453125 562.726562 C 592.21875 563.007812 592.796875 563.355469 593.226562 563.613281 C 593.628906 563.847656 593.84375 563.980469 594.378906 564.144531 L 605.234375 567.296875 C 617.515625 570.140625 630.941406 570.324219 642.835938 567.761719 L 643.328125 567.65625 C 647.855469 566.738281 651.433594 566.015625 655.5625 564.5 C 656.472656 564.144531 657.460938 563.8125 658.4375 563.476562 C 659.425781 563.132812 660.40625 562.804688 661.355469 562.421875 L 661.953125 562.199219 C 662.886719 561.855469 663.308594 561.707031 664.179688 561.300781 C 669.78125 558.898438 675.457031 555.707031 680.289062 552.265625 L 681.375 551.46875 C 691.730469 543.882812 704.855469 530.933594 710.675781 517.335938 C 711.25 515.960938 711.949219 514.574219 712.648438 513.175781 C 713.589844 511.3125 714.476562 509.554688 715.105469 507.707031 C 717.367188 500.742188 718.925781 494.363281 719.859375 488.246094 C 721.160156 479.273438 721.304688 471.496094 720.363281 461.417969 Z M 559.058594 491.296875 L 397.261719 446.234375 L 373.910156 500.351562 L 549.035156 537.832031 C 549.0625 537.816406 549.085938 537.800781 549.113281 537.789062 Z M 546.109375 542.617188 L 372.410156 505.449219 L 363.515625 565.808594 C 365.78125 567.367188 367.957031 570.277344 370.589844 574.03125 C 371.1875 574.875 371.710938 575.632812 372.125 576.160156 C 377.078125 582.507812 384.679688 589.363281 391.972656 594.054688 L 404.746094 601.449219 C 412.257812 605.839844 422.660156 609.035156 435.675781 610.960938 C 454.269531 613.800781 475.117188 610.433594 494.371094 601.519531 C 502.566406 597.757812 511.210938 591.894531 518.726562 585 C 523.527344 580.636719 527.347656 576.351562 531.125 571.070312 C 535.429688 565.207031 538.636719 560.359375 541.417969 554.238281 C 541.789062 553.414062 542.085938 552.882812 542.367188 552.398438 C 542.550781 552.066406 542.726562 551.765625 542.925781 551.253906 C 543.03125 551 543.234375 550.394531 543.527344 549.585938 C 544.632812 546.492188 545.453125 544.253906 546.109375 542.617188 Z M 367.28125 503.972656 L 284.464844 472.074219 L 281.414062 422.867188 L 215.984375 449.625 L 211.375 615.847656 L 237.511719 576.566406 L 357.351562 566.042969 C 357.632812 565.808594 357.925781 565.585938 358.234375 565.371094 Z M 353.238281 571.71875 L 240.503906 581.613281 L 212.527344 623.671875 C 233.019531 644.171875 253.566406 651.097656 272.015625 643.648438 C 289.191406 636.710938 300.640625 618.160156 300.675781 608.9375 L 300.683594 607.707031 L 301.417969 606.710938 C 303.773438 603.511719 304.878906 601.609375 305.535156 600.472656 C 307.226562 597.558594 308.246094 596.878906 311.601562 596.414062 C 312.796875 596.253906 314.601562 596.007812 317.652344 595.296875 C 326.039062 593.308594 333.777344 589.722656 340.019531 584.9375 C 340.539062 584.527344 341.019531 584.183594 341.460938 583.863281 C 342.03125 583.445312 342.53125 583.09375 343.074219 582.589844 C 347.382812 578.644531 350.566406 575.21875 353.238281 571.71875 Z M 210.667969 450.566406 L 115.789062 453.632812 C 114.980469 454.851562 114.042969 455.84375 112.96875 456.9375 C 110.320312 459.664062 106.308594 463.777344 100.742188 475.941406 C 96.855469 484.554688 95.082031 498.839844 96.722656 508.4375 C 97.574219 513.308594 98.671875 516.851562 100.066406 521.34375 L 100.460938 522.625 C 101.410156 525.667969 104.394531 530.976562 106.527344 533.925781 L 117.914062 546.871094 C 119.226562 548.0625 120.378906 548.875 121.394531 549.601562 C 123.738281 551.261719 126.398438 553.152344 126.398438 557.617188 C 126.164062 570.980469 129.277344 583.332031 135.167969 592.464844 L 143.304688 603.375 C 147.640625 608.136719 156.191406 614.839844 162.601562 617.484375 C 173.128906 621.734375 189.015625 625.140625 198.980469 622.539062 L 200.230469 622.175781 C 201.949219 621.679688 203.835938 621.160156 205.9375 621.0625 Z M 109.984375 442.464844 C 110.257812 442.652344 110.703125 442.871094 111.171875 443.105469 C 112.339844 443.699219 113.742188 444.425781 114.898438 445.480469 L 230.503906 332.445312 L 118.683594 357.488281 L 118.429688 357.824219 C 117.667969 358.804688 116.90625 359.300781 116.347656 359.671875 C 116.199219 359.757812 116.035156 359.871094 115.84375 360.011719 L 115.464844 360.25 C 115.011719 360.5 114.683594 360.671875 114.402344 360.8125 C 113.910156 361.0625 113.835938 361.101562 113.289062 361.546875 C 112.171875 362.453125 111.214844 363.367188 110.4375 364.257812 L 110.070312 364.683594 L 109.59375 364.988281 C 96.457031 373.261719 88.613281 387.472656 88.613281 402.988281 C 88.613281 416.28125 94.402344 428.789062 104.5 437.300781 L 104.984375 437.792969 C 106.457031 439.585938 108.1875 441.207031 109.984375 442.464844 Z M 119.050781 351.988281 L 236.355469 325.71875 L 236.214844 216.246094 C 232.292969 215.949219 228.40625 217.25 225.414062 219.894531 L 224.085938 220.820312 L 223.261719 220.953125 C 207.402344 223.417969 193.964844 234.40625 188.203125 249.632812 L 187.871094 250.511719 L 187.160156 251.132812 C 182.746094 255.011719 178.996094 259.925781 176.015625 265.746094 C 175.726562 266.324219 175.472656 266.8125 175.285156 267.3125 L 174.777344 268.671875 L 173.488281 269.339844 C 162.226562 275.199219 151.492188 283.976562 142.441406 294.734375 C 127.242188 312.808594 118.660156 333.941406 119.050781 351.988281 Z M 119.664062 448.214844 L 212.828125 445.199219 L 282.691406 416.628906 L 343.699219 383.851562 L 239.503906 331.058594 Z M 340.546875 391.5625 L 286.570312 420.554688 L 289.183594 462.667969 Z M 291.152344 468.976562 L 368.785156 498.886719 L 392.699219 443.457031 L 349.503906 388.1875 Z M 343.25 288.851562 C 342.03125 290.125 340.953125 291.535156 340.035156 293.054688 L 241.507812 218.101562 L 241.648438 324.65625 L 336.660156 307.113281 C 336.792969 308.90625 337.101562 310.652344 337.609375 312.316406 L 247.1875 329.011719 L 347.324219 379.757812 L 354.617188 328.632812 C 356.300781 329.070312 358.050781 329.332031 359.855469 329.386719 L 352.199219 383.042969 L 396.757812 440.066406 L 481.558594 417.714844 L 376.550781 323.273438 C 377.863281 322.089844 379.046875 320.773438 380.078125 319.335938 L 485.683594 414.300781 L 512.503906 328.949219 C 514.101562 329.660156 515.789062 330.203125 517.550781 330.550781 L 492.167969 411.304688 L 585.261719 334.519531 C 586.234375 336.007812 587.359375 337.378906 588.621094 338.609375 L 492.78125 417.660156 L 601.96875 443.117188 L 650.234375 294.320312 L 626.582031 310.265625 C 625.757812 308.695312 624.761719 307.226562 623.621094 305.882812 L 651.300781 287.21875 C 650.71875 266.710938 632.886719 243.179688 606.648438 228.449219 C 589.242188 218.679688 570.316406 213.988281 553.984375 215.234375 L 596.804688 298.960938 C 595.144531 299.597656 593.566406 300.398438 592.101562 301.375 L 550.019531 219.101562 L 531.265625 284.800781 C 529.652344 284.136719 527.945312 283.660156 526.179688 283.359375 L 546.023438 213.835938 L 545.839844 213.398438 C 542.523438 205.546875 537.019531 198.789062 529.929688 193.855469 C 517.132812 185.039062 500.613281 183.53125 486.351562 189.714844 L 517.246094 283.519531 C 515.492188 283.886719 513.820312 284.460938 512.226562 285.195312 L 481.542969 192.035156 L 379.542969 290.742188 C 378.457031 289.335938 377.242188 288.046875 375.882812 286.921875 L 478.304688 187.804688 C 475.828125 184.9375 473.042969 182.425781 469.972656 180.355469 C 455.757812 170.488281 437.53125 169.609375 422.367188 178.027344 L 421.21875 178.671875 L 418.398438 178.203125 L 417.585938 177.480469 C 416.546875 176.566406 415.457031 175.707031 413.941406 174.605469 C 398.441406 163.960938 377.648438 164.132812 362.269531 175.078125 L 361.523438 175.613281 L 360.617188 175.742188 C 358.910156 175.992188 357.457031 176.277344 356.042969 176.644531 C 354.300781 177.085938 353.132812 177.410156 352.265625 177.660156 L 361.199219 281.445312 C 361 281.4375 360.808594 281.410156 360.609375 281.410156 C 359.007812 281.410156 357.445312 281.574219 355.929688 281.871094 L 346.972656 177.855469 C 331.746094 173.488281 313.480469 173.734375 295.320312 178.679688 C 272.5 184.890625 253.269531 197.566406 243.304688 212.816406 Z M 598.597656 447.765625 L 488.761719 422.152344 L 488.253906 423.738281 L 486.261719 421.945312 L 405.867188 443.140625 L 561.351562 486.445312 Z M 573.914062 481.023438 L 688.710938 427.566406 L 605.109375 448.621094 Z M 656.535156 292.0625 L 607.726562 442.511719 L 711.796875 416.304688 C 719.535156 396.695312 712.898438 374.753906 695.527344 362.78125 C 694.046875 361.683594 692.476562 360.730469 690.492188 359.695312 L 689.839844 359.359375 L 688.851562 358.183594 C 688.652344 357.933594 688.449219 357.675781 688.199219 357.429688 L 686.402344 355.621094 L 687.390625 353.28125 C 695.671875 333.730469 688.988281 310.792969 671.492188 298.738281 C 666.902344 295.53125 661.863281 293.328125 656.535156 292.0625 Z M 727.332031 489.355469 C 726.335938 495.914062 724.683594 502.6875 722.273438 510.09375 C 721.457031 512.492188 720.414062 514.566406 719.394531 516.582031 C 718.773438 517.820312 718.148438 519.039062 717.632812 520.289062 C 712.179688 533.050781 700.296875 546.976562 685.847656 557.566406 L 684.710938 558.394531 C 679.417969 562.175781 673.238281 565.640625 667.265625 568.203125 C 666.269531 568.667969 665.742188 568.863281 664.554688 569.304688 L 664.0625 569.484375 C 663.101562 569.867188 662 570.246094 660.886719 570.625 C 660 570.929688 659.097656 571.242188 658.222656 571.582031 C 653.496094 573.3125 649.480469 574.121094 644.832031 575.070312 L 644.386719 575.15625 C 631.46875 577.945312 616.871094 577.75 603.328125 574.605469 L 592.175781 571.378906 C 590.722656 570.917969 589.941406 570.453125 589.367188 570.113281 C 589.179688 569.996094 589 569.878906 588.730469 569.773438 C 575.894531 564.652344 571.511719 561.453125 560.917969 553.710938 C 559.148438 552.433594 557.179688 550.515625 555.277344 548.65625 C 554.542969 547.945312 553.628906 547.054688 552.792969 546.277344 C 551.976562 548.382812 551.054688 550.972656 550.648438 552.125 C 550.308594 553.066406 550.0625 553.769531 549.957031 554.03125 C 549.597656 554.953125 549.285156 555.503906 548.9375 556.121094 C 548.757812 556.445312 548.558594 556.792969 548.308594 557.355469 C 545.242188 564.082031 541.8125 569.285156 537.25 575.5 C 533.222656 581.128906 528.953125 585.933594 523.820312 590.585938 C 515.757812 597.984375 506.414062 604.316406 497.535156 608.386719 C 476.96875 617.921875 454.597656 621.492188 434.558594 618.441406 C 420.597656 616.375 409.28125 612.859375 400.949219 607.984375 L 388.035156 600.507812 C 379.925781 595.296875 371.605469 587.78125 366.167969 580.808594 C 365.703125 580.207031 365.09375 579.351562 364.410156 578.382812 C 363.660156 577.3125 362.289062 575.359375 361.066406 573.875 L 360.734375 574.332031 C 357.496094 578.914062 353.625 583.179688 348.195312 588.15625 C 347.378906 588.910156 346.621094 589.460938 345.890625 589.992188 C 345.511719 590.261719 345.101562 590.558594 344.636719 590.917969 C 337.539062 596.367188 328.8125 600.417969 319.382812 602.652344 C 315.976562 603.449219 313.875 603.742188 312.625 603.90625 C 312.488281 603.929688 312.363281 603.941406 312.25 603.964844 C 312.199219 604.050781 312.136719 604.15625 312.074219 604.265625 C 311.40625 605.421875 310.328125 607.285156 308.179688 610.261719 C 307.273438 622.273438 294.730469 642.625 274.847656 650.652344 C 269.832031 652.679688 263.847656 654.148438 257.027344 654.148438 C 243.617188 654.148438 226.988281 648.425781 208.253906 630.089844 L 205.574219 634.121094 L 205.726562 628.714844 C 204.679688 628.84375 203.59375 629.078125 202.335938 629.441406 C 201.867188 629.578125 201.394531 629.71875 200.917969 629.84375 C 189.210938 632.910156 171.808594 629.359375 159.75 624.484375 C 152.179688 621.367188 142.539062 613.820312 137.574219 608.308594 L 137.351562 608.042969 L 128.960938 596.769531 C 122.121094 586.183594 118.578125 572.324219 118.84375 557.550781 C 118.84375 557.285156 118.804688 557.171875 118.804688 557.171875 C 118.65625 556.925781 117.710938 556.253906 117.019531 555.761719 C 115.84375 554.929688 114.382812 553.894531 112.660156 552.308594 L 112.378906 552.023438 L 100.527344 538.523438 C 97.996094 535.066406 94.492188 528.863281 93.242188 524.875 L 92.84375 523.582031 C 91.433594 519.027344 90.214844 515.085938 89.273438 509.730469 C 87.386719 498.652344 89.359375 482.78125 93.863281 472.8125 C 99.980469 459.4375 104.539062 454.753906 107.5625 451.660156 C 108.027344 451.183594 108.433594 450.761719 108.773438 450.378906 C 108.414062 450.179688 108.027344 449.984375 107.753906 449.847656 C 106.957031 449.445312 106.230469 449.058594 105.683594 448.683594 C 103.347656 447.042969 101.242188 445.089844 99.367188 442.863281 C 87.722656 432.910156 81.058594 418.402344 81.058594 402.988281 C 81.058594 385.046875 90.035156 368.59375 105.105469 358.878906 C 106.089844 357.800781 107.238281 356.722656 108.523438 355.675781 C 109.613281 354.789062 110.175781 354.484375 110.96875 354.078125 C 111.132812 353.992188 111.316406 353.894531 111.539062 353.78125 C 110.574219 333.554688 119.863281 309.835938 136.660156 289.867188 C 146.027344 278.738281 157.121094 269.5625 168.8125 263.261719 C 168.953125 262.972656 169.105469 262.660156 169.273438 262.328125 C 172.546875 255.929688 176.648438 250.476562 181.472656 246.078125 C 188.25 229.089844 203.292969 216.773438 221.09375 213.648438 C 225.566406 210 231.222656 208.246094 236.9375 208.699219 C 247.902344 191.921875 268.769531 178.070312 293.335938 171.378906 C 312.917969 166.058594 332.761719 165.800781 349.363281 170.632812 C 350.300781 170.359375 351.730469 169.941406 354.15625 169.324219 C 355.550781 168.957031 357.027344 168.65625 358.636719 168.398438 C 376.515625 156.136719 400.367188 156.117188 418.292969 168.433594 C 419.039062 168.972656 419.890625 169.59375 420.792969 170.316406 C 438.050781 161.6875 458.324219 163.066406 474.238281 174.117188 C 477.714844 176.457031 480.921875 179.28125 483.765625 182.519531 L 483.929688 182.367188 L 483.972656 182.492188 C 500.484375 175.597656 519.464844 177.46875 534.234375 187.636719 C 541.714844 192.851562 547.671875 199.789062 551.609375 207.832031 C 569.816406 205.980469 591.042969 211.023438 610.34375 221.859375 C 637.378906 237.027344 655.65625 260.277344 658.476562 282.386719 L 660.007812 281.351562 L 658.894531 284.792969 C 664.917969 286.308594 670.601562 288.898438 675.800781 292.519531 C 695.472656 306.082031 703.4375 331.457031 695.335938 353.71875 C 697.078125 354.675781 698.558594 355.621094 699.921875 356.628906 C 720.027344 370.492188 727.816406 395.976562 718.953125 418.804688 C 719.054688 420.878906 719.042969 422.953125 718.894531 425.097656 C 718.820312 426.476562 718.675781 427.429688 718.558594 428.191406 C 718.394531 429.277344 718.394531 429.277344 718.929688 430.59375 C 722.523438 439.011719 727.042969 451.988281 727.886719 460.699219 C 728.890625 471.429688 728.730469 479.730469 727.332031 489.355469 Z M 545.183594 313.644531 L 581.4375 319.945312 C 581.546875 318.144531 581.835938 316.398438 582.320312 314.726562 L 546.066406 308.429688 C 545.964844 310.230469 545.664062 311.972656 545.183594 313.644531 Z M 384.375 308.265625 L 498.277344 309.378906 C 498.191406 308.582031 498.152344 307.78125 498.152344 306.96875 C 498.152344 305.992188 498.226562 305.03125 498.347656 304.089844 L 384.441406 302.96875 C 384.519531 303.761719 384.5625 304.566406 384.5625 305.378906 C 384.5625 306.355469 384.488281 307.316406 384.375 308.265625 Z M 522.199219 332.28125 C 536.117188 332.28125 547.410156 320.976562 547.410156 306.953125 C 547.410156 293.03125 536.117188 281.734375 522.199219 281.734375 C 508.1875 281.734375 496.882812 293.03125 496.882812 306.953125 C 496.882812 320.976562 508.1875 332.28125 522.199219 332.28125 Z M 239.007812 346.058594 C 249.058594 346.058594 257.296875 337.886719 257.296875 327.835938 C 257.296875 317.777344 249.058594 309.539062 239.007812 309.539062 C 228.957031 309.539062 220.71875 317.777344 220.71875 327.835938 C 220.71875 337.886719 228.957031 346.058594 239.007812 346.058594 Z M 239.007812 351.804688 C 252.234375 351.804688 263.039062 341.066406 263.039062 327.835938 C 263.039062 314.605469 252.234375 303.789062 239.007812 303.789062 C 225.78125 303.789062 215.050781 314.605469 215.050781 327.835938 C 215.050781 341.066406 225.78125 351.804688 239.007812 351.804688 Z M 360.621094 330.34375 C 346.898438 330.34375 335.652344 319.09375 335.652344 305.363281 C 335.652344 291.632812 346.898438 280.484375 360.621094 280.484375 C 374.34375 280.484375 385.484375 291.632812 385.484375 305.363281 C 385.484375 319.09375 374.34375 330.34375 360.621094 330.34375 " fill-opacity="1" fill-rule="nonzero"/></g></svg>