<svg xmlns="http://www.w3.org/2000/svg" xmlns:xlink="http://www.w3.org/1999/xlink" width="1080" zoomAndPan="magnify" viewBox="0 0 810 809.999993" height="1080" preserveAspectRatio="xMidYMid meet" version="1.0"><defs><clipPath id="1a1f0cc5af"><path d="M 107.566406 120 L 701 120 L 701 712.574219 L 107.566406 712.574219 Z M 107.566406 120 " clip-rule="nonzero"/></clipPath><clipPath id="14139f5d39"><path d="M 359.125 120 L 701 120 L 701 712.574219 L 359.125 712.574219 Z M 359.125 120 " clip-rule="nonzero"/></clipPath><clipPath id="006fd0519b"><path d="M 359.125 520 L 417 520 L 417 634 L 359.125 634 Z M 359.125 520 " clip-rule="nonzero"/></clipPath></defs><g clip-path="url(#1a1f0cc5af)"><path fill="#0d02b1" d="M 687.570312 618.871094 L 613.695312 535.726562 C 608.417969 529.789062 601.164062 526.488281 593.25 525.828125 C 585.335938 525.171875 577.417969 527.808594 571.484375 533.089844 L 558.953125 544.304688 L 531.25 512.632812 C 593.25 452.585938 615.675781 363.5 589.292969 281.019531 L 645.355469 224.929688 L 660.527344 240.105469 C 663.164062 242.746094 667.121094 243.40625 670.421875 242.746094 C 673.71875 241.425781 676.355469 238.785156 677.015625 234.828125 L 693.503906 131.886719 C 694.164062 128.585938 692.847656 125.289062 690.867188 123.308594 C 688.886719 121.328125 685.589844 120.007812 682.292969 120.667969 L 580.058594 137.164062 C 576.101562 137.824219 573.460938 140.464844 572.144531 143.765625 C 570.824219 147.0625 572.144531 151.023438 574.78125 153.664062 L 589.953125 168.839844 L 550.375 207.773438 C 548.398438 205.132812 545.761719 202.492188 543.78125 199.855469 C 461.332031 106.8125 318.207031 97.574219 224.546875 180.058594 C 212.011719 191.273438 201.460938 203.152344 192.226562 215.691406 C 192.226562 215.691406 191.566406 216.351562 191.566406 216.351562 C 179.035156 233.507812 169.140625 252.644531 161.886719 272.441406 C 161.226562 275.078125 160.566406 276.398438 160.566406 277.71875 C 139.460938 340.40625 146.054688 411.011719 182.332031 469.742188 L 117.695312 469.742188 C 112.417969 469.082031 107.800781 473.699219 107.800781 478.980469 L 107.800781 675.621094 C 107.800781 680.898438 112.417969 685.519531 117.695312 685.519531 L 452.757812 685.519531 C 458.035156 685.519531 462.652344 680.898438 462.652344 675.621094 L 462.652344 557.503906 C 481.78125 549.585938 500.25 538.367188 516.738281 525.171875 L 544.441406 556.84375 L 531.910156 568.0625 C 525.972656 573.339844 522.675781 580.597656 522.015625 588.519531 C 521.355469 596.4375 523.992188 604.355469 529.269531 610.292969 L 603.144531 693.4375 C 614.355469 705.976562 629.527344 712.574219 645.355469 712.574219 C 658.546875 712.574219 671.738281 707.953125 682.292969 698.714844 C 693.503906 688.816406 700.101562 674.960938 700.761719 660.445312 C 702.078125 644.605469 697.460938 630.089844 687.570312 618.871094 Z M 611.058594 162.242188 L 602.484375 153.664062 L 673.058594 142.445312 L 661.84375 213.050781 L 653.269531 204.472656 C 649.3125 200.511719 643.378906 200.511719 639.417969 204.472656 L 571.484375 271.121094 L 464.632812 378.019531 L 411.207031 324.570312 C 407.25 320.609375 401.3125 320.609375 397.355469 324.570312 L 313.589844 407.714844 L 181.671875 276.398438 C 186.289062 263.203125 192.886719 250.664062 200.140625 239.445312 L 306.332031 345.683594 C 310.289062 349.644531 316.226562 349.644531 320.183594 345.683594 L 403.949219 262.542969 L 457.375 315.992188 C 461.332031 319.949219 467.269531 319.949219 471.226562 315.992188 L 610.398438 177.417969 C 612.378906 175.4375 613.035156 172.800781 613.035156 170.160156 C 613.035156 167.519531 612.378906 164.21875 611.058594 162.242188 Z M 237.738281 195.894531 C 322.824219 120.667969 453.417969 128.585938 528.609375 213.710938 C 531.25 216.351562 533.886719 219.648438 535.867188 222.949219 L 464.632812 294.214844 L 411.207031 240.765625 C 407.25 236.804688 401.3125 236.804688 397.355469 240.765625 L 313.589844 323.910156 L 212.011719 222.949219 C 219.929688 213.050781 228.503906 203.8125 237.738281 195.894531 Z M 442.867188 665.722656 L 127.585938 665.722656 L 127.585938 488.878906 L 442.867188 488.878906 Z M 452.757812 469.082031 L 206.078125 469.082031 C 169.800781 418.269531 159.90625 354.921875 175.078125 297.515625 L 306.332031 428.828125 C 308.3125 430.808594 310.949219 431.46875 313.589844 431.46875 C 316.226562 431.46875 318.863281 430.808594 320.84375 428.828125 L 404.609375 345.683594 L 458.035156 399.136719 C 461.992188 403.09375 467.929688 403.09375 471.886719 399.136719 L 574.121094 297.515625 C 593.910156 372.738281 570.164062 452.585938 511.460938 504.714844 C 496.949219 517.910156 480.460938 528.46875 463.3125 536.386719 L 463.3125 479.640625 C 462.652344 473.699219 458.035156 469.082031 452.757812 469.082031 Z M 669.761719 683.539062 C 654.589844 696.738281 631.503906 695.417969 618.3125 680.238281 L 544.441406 596.4375 C 542.460938 594.457031 541.800781 591.816406 541.800781 589.175781 C 541.800781 586.539062 543.121094 583.898438 545.101562 582.578125 L 584.675781 547.605469 C 586.652344 546.285156 588.632812 544.964844 591.269531 544.964844 C 591.269531 544.964844 591.929688 544.964844 591.929688 544.964844 C 594.570312 544.964844 597.207031 546.285156 598.527344 548.265625 L 672.398438 632.070312 C 678.996094 639.328125 681.632812 648.566406 681.632812 658.464844 C 680.972656 668.363281 676.355469 676.941406 669.761719 683.539062 Z M 669.761719 683.539062 " fill-opacity="1" fill-rule="nonzero"/></g><path fill="#0d02b1" d="M 153.96875 554.203125 C 153.96875 572.679688 169.140625 587.199219 186.949219 587.199219 L 192.226562 587.199219 C 199.480469 587.199219 205.417969 593.136719 205.417969 600.394531 C 205.417969 607.652344 199.480469 613.59375 192.226562 613.59375 L 163.863281 613.59375 C 158.585938 613.59375 153.96875 618.210938 153.96875 623.492188 C 153.96875 628.769531 158.585938 633.390625 163.863281 633.390625 L 192.226562 633.390625 C 210.695312 633.390625 225.203125 618.871094 225.203125 600.394531 C 225.203125 581.917969 210.035156 567.402344 192.226562 567.402344 L 186.949219 567.402344 C 179.695312 567.402344 173.757812 561.464844 173.757812 554.203125 C 173.757812 546.945312 179.695312 541.007812 186.949219 541.007812 L 215.3125 541.007812 C 220.589844 541.007812 225.203125 536.386719 225.203125 531.109375 C 225.203125 525.828125 220.589844 521.210938 215.3125 521.210938 L 186.949219 521.210938 C 169.140625 521.210938 153.96875 535.726562 153.96875 554.203125 Z M 153.96875 554.203125 " fill-opacity="1" fill-rule="nonzero"/><path fill="#0d02b1" d="M 259.503906 633.390625 L 310.949219 633.390625 C 316.226562 633.390625 320.84375 628.769531 320.84375 623.492188 C 320.84375 618.210938 316.226562 613.59375 310.949219 613.59375 L 269.398438 613.59375 L 269.398438 587.199219 L 310.949219 587.199219 C 316.226562 587.199219 320.84375 582.578125 320.84375 577.300781 C 320.84375 572.019531 316.226562 567.402344 310.949219 567.402344 L 269.398438 567.402344 L 269.398438 541.007812 L 310.949219 541.007812 C 316.226562 541.007812 320.84375 536.386719 320.84375 531.109375 C 320.84375 525.828125 316.226562 521.210938 310.949219 521.210938 L 259.503906 521.210938 C 254.226562 521.210938 249.609375 525.828125 249.609375 531.109375 L 249.609375 623.492188 C 249.609375 628.769531 254.226562 633.390625 259.503906 633.390625 Z M 259.503906 633.390625 " fill-opacity="1" fill-rule="nonzero"/><path fill="#0d02b1" d="M 380.867188 633.390625 C 400.652344 633.390625 416.484375 617.550781 416.484375 597.757812 L 416.484375 556.183594 C 416.484375 536.386719 400.652344 520.550781 380.867188 520.550781 C 361.078125 520.550781 345.25 536.386719 345.25 556.183594 L 345.25 597.757812 C 345.25 617.550781 361.078125 633.390625 380.867188 633.390625 Z M 365.035156 556.84375 C 365.035156 548.265625 372.289062 541.007812 380.867188 541.007812 C 389.441406 541.007812 396.695312 548.265625 396.695312 556.84375 L 396.695312 598.414062 C 396.695312 606.996094 389.441406 614.253906 380.867188 614.253906 C 372.289062 614.253906 365.035156 606.996094 365.035156 598.414062 Z M 365.035156 556.84375 " fill-opacity="1" fill-rule="nonzero"/><g clip-path="url(#14139f5d39)"><path fill="#000000" d="M 687.570312 618.871094 L 613.695312 535.726562 C 608.417969 529.789062 601.164062 526.488281 593.25 525.832031 C 585.335938 525.171875 577.417969 527.808594 571.484375 533.089844 L 558.953125 544.304688 L 531.25 512.632812 C 593.25 452.585938 615.675781 363.5 589.292969 281.019531 L 645.355469 224.929688 L 660.527344 240.105469 C 663.164062 242.746094 667.121094 243.40625 670.421875 242.746094 C 673.71875 241.425781 676.355469 238.785156 677.015625 234.828125 L 693.503906 131.886719 C 694.164062 128.585938 692.847656 125.289062 690.867188 123.308594 C 688.886719 121.328125 685.589844 120.007812 682.292969 120.667969 L 580.058594 137.164062 C 576.101562 137.824219 573.460938 140.464844 572.144531 143.765625 C 570.824219 147.0625 572.144531 151.023438 574.78125 153.664062 L 589.953125 168.839844 L 550.375 207.773438 C 548.398438 205.132812 545.761719 202.492188 543.78125 199.855469 C 461.332031 106.8125 318.207031 97.574219 224.546875 180.058594 C 212.011719 191.273438 201.460938 203.152344 192.226562 215.691406 C 192.226562 215.691406 191.566406 216.351562 191.566406 216.351562 C 179.035156 233.507812 169.140625 252.644531 161.886719 272.441406 C 161.226562 275.078125 160.566406 276.398438 160.566406 277.71875 C 139.460938 340.40625 146.054688 411.011719 182.332031 469.742188 L 117.695312 469.742188 C 112.417969 469.082031 107.800781 473.699219 107.800781 478.980469 L 107.800781 675.621094 C 107.800781 680.898438 112.417969 685.519531 117.695312 685.519531 L 452.757812 685.519531 C 458.035156 685.519531 462.652344 680.898438 462.652344 675.621094 L 462.652344 557.503906 C 481.78125 549.585938 500.25 538.367188 516.738281 525.171875 L 544.441406 556.84375 L 531.910156 568.0625 C 525.972656 573.339844 522.675781 580.597656 522.015625 588.519531 C 521.355469 596.4375 523.992188 604.355469 529.269531 610.292969 L 603.144531 693.4375 C 614.355469 705.976562 629.527344 712.574219 645.355469 712.574219 C 658.546875 712.574219 671.738281 707.953125 682.292969 698.714844 C 693.503906 688.816406 700.101562 674.960938 700.761719 660.445312 C 702.078125 644.605469 697.460938 630.089844 687.570312 618.871094 Z M 611.058594 162.242188 L 602.484375 153.664062 L 673.058594 142.445312 L 661.84375 213.050781 L 653.269531 204.472656 C 649.3125 200.511719 643.378906 200.511719 639.417969 204.472656 L 571.484375 271.121094 L 464.632812 378.019531 L 411.207031 324.570312 C 407.25 320.609375 401.3125 320.609375 397.355469 324.570312 L 313.589844 407.714844 L 181.671875 276.398438 C 186.289062 263.203125 192.886719 250.664062 200.140625 239.445312 L 306.332031 345.683594 C 310.289062 349.644531 316.226562 349.644531 320.183594 345.683594 L 403.949219 262.542969 L 457.375 315.992188 C 461.332031 319.949219 467.269531 319.949219 471.226562 315.992188 L 610.398438 177.417969 C 612.378906 175.4375 613.035156 172.800781 613.035156 170.160156 C 613.035156 167.519531 612.378906 164.21875 611.058594 162.242188 Z M 237.738281 195.894531 C 322.824219 120.667969 453.417969 128.585938 528.609375 213.710938 C 531.25 216.351562 533.886719 219.648438 535.867188 222.949219 L 464.632812 294.214844 L 411.207031 240.765625 C 407.25 236.804688 401.3125 236.804688 397.355469 240.765625 L 313.589844 323.910156 L 212.011719 222.949219 C 219.929688 213.050781 228.503906 203.8125 237.738281 195.894531 Z M 442.867188 665.722656 L 127.585938 665.722656 L 127.585938 488.878906 L 442.867188 488.878906 Z M 452.757812 469.082031 L 206.078125 469.082031 C 169.800781 418.269531 159.90625 354.921875 175.078125 297.515625 L 306.332031 428.828125 C 308.3125 430.808594 310.949219 431.46875 313.589844 431.46875 C 316.226562 431.46875 318.863281 430.808594 320.84375 428.828125 L 404.609375 345.683594 L 458.035156 399.136719 C 461.992188 403.09375 467.929688 403.09375 471.886719 399.136719 L 574.121094 297.515625 C 593.910156 372.738281 570.164062 452.585938 511.460938 504.714844 C 496.949219 517.910156 480.460938 528.46875 463.3125 536.386719 L 463.3125 479.640625 C 462.652344 473.699219 458.035156 469.082031 452.757812 469.082031 Z M 669.761719 683.539062 C 654.589844 696.738281 631.503906 695.417969 618.3125 680.238281 L 544.441406 596.4375 C 542.460938 594.457031 541.800781 591.816406 541.800781 589.179688 C 541.800781 586.539062 543.121094 583.898438 545.101562 582.578125 L 584.675781 547.605469 C 586.652344 546.285156 588.632812 544.964844 591.269531 544.964844 C 591.269531 544.964844 591.929688 544.964844 591.929688 544.964844 C 594.570312 544.964844 597.207031 546.285156 598.527344 548.265625 L 672.398438 632.070312 C 678.996094 639.328125 681.632812 648.566406 681.632812 658.464844 C 680.972656 668.363281 676.355469 676.941406 669.761719 683.539062 Z M 669.761719 683.539062 " fill-opacity="1" fill-rule="nonzero"/></g><g clip-path="url(#006fd0519b)"><path fill="#000000" d="M 380.867188 633.390625 C 400.652344 633.390625 416.484375 617.550781 416.484375 597.757812 L 416.484375 556.183594 C 416.484375 536.386719 400.652344 520.550781 380.867188 520.550781 C 361.078125 520.550781 345.25 536.386719 345.25 556.183594 L 345.25 597.757812 C 345.25 617.550781 361.078125 633.390625 380.867188 633.390625 Z M 365.035156 556.84375 C 365.035156 548.265625 372.289062 541.007812 380.867188 541.007812 C 389.441406 541.007812 396.695312 548.265625 396.695312 556.84375 L 396.695312 598.414062 C 396.695312 606.996094 389.441406 614.253906 380.867188 614.253906 C 372.289062 614.253906 365.035156 606.996094 365.035156 598.414062 Z M 365.035156 556.84375 " fill-opacity="1" fill-rule="nonzero"/></g></svg>