<svg xmlns="http://www.w3.org/2000/svg" xmlns:xlink="http://www.w3.org/1999/xlink" width="1080" zoomAndPan="magnify" viewBox="0 0 810 809.999993" height="1080" preserveAspectRatio="xMidYMid meet" version="1.0"><defs><clipPath id="00f033fdd8"><path d="M 280.003906 193 L 325 193 L 325 285 L 280.003906 285 Z M 280.003906 193 " clip-rule="nonzero"/></clipPath><clipPath id="adb665bbb5"><path d="M 280.003906 304 L 325 304 L 325 396 L 280.003906 396 Z M 280.003906 304 " clip-rule="nonzero"/></clipPath><clipPath id="857be27293"><path d="M 280.003906 415 L 325 415 L 325 507 L 280.003906 507 Z M 280.003906 415 " clip-rule="nonzero"/></clipPath><clipPath id="386e6e7952"><path d="M 280.003906 526 L 325 526 L 325 618 L 280.003906 618 Z M 280.003906 526 " clip-rule="nonzero"/></clipPath><clipPath id="d1468869e1"><path d="M 280.003906 82 L 476 82 L 476 729 L 280.003906 729 Z M 280.003906 82 " clip-rule="nonzero"/></clipPath><clipPath id="10ca4defd8"><path d="M 233 193 L 287.25 193 L 287.25 285 L 233 285 Z M 233 193 " clip-rule="nonzero"/></clipPath><clipPath id="491bb375e0"><path d="M 233 304 L 287.25 304 L 287.25 396 L 233 396 Z M 233 304 " clip-rule="nonzero"/></clipPath><clipPath id="971d7e73e8"><path d="M 233 415 L 287.25 415 L 287.25 507 L 233 507 Z M 233 415 " clip-rule="nonzero"/></clipPath><clipPath id="5b54587855"><path d="M 233 526 L 287.25 526 L 287.25 618 L 233 618 Z M 233 526 " clip-rule="nonzero"/></clipPath><clipPath id="ff148d13d1"><path d="M 81 82 L 287.25 82 L 287.25 729 L 81 729 Z M 81 82 " clip-rule="nonzero"/></clipPath></defs><g clip-path="url(#00f033fdd8)"><path fill="#ffffff" d="M 324.125 213.429688 C 324.125 202.308594 315.027344 193.210938 303.90625 193.210938 L 253.363281 193.210938 C 242.242188 193.210938 233.144531 202.308594 233.144531 213.429688 L 233.144531 263.976562 C 233.144531 275.097656 242.242188 284.195312 253.363281 284.195312 L 303.90625 284.195312 C 315.027344 284.195312 324.125 275.097656 324.125 263.976562 Z M 253.363281 263.976562 L 253.363281 213.429688 L 303.90625 213.429688 L 303.90625 263.976562 Z M 253.363281 263.976562 " fill-opacity="1" fill-rule="nonzero"/></g><g clip-path="url(#adb665bbb5)"><path fill="#ffffff" d="M 324.125 324.632812 C 324.125 313.511719 315.027344 304.414062 303.90625 304.414062 L 253.363281 304.414062 C 242.242188 304.414062 233.144531 313.511719 233.144531 324.632812 L 233.144531 375.179688 C 233.144531 386.296875 242.242188 395.394531 253.363281 395.394531 L 303.90625 395.394531 C 315.027344 395.394531 324.125 386.296875 324.125 375.179688 Z M 324.125 324.632812 " fill-opacity="1" fill-rule="nonzero"/></g><path fill="#ffffff" d="M 681.488281 152.269531 C 683.507812 147.214844 683.507812 142.160156 681.488281 137.105469 L 662.785156 93.636719 C 660.761719 89.085938 656.71875 85.042969 652.171875 83.023438 C 647.117188 81 642.0625 81 637.007812 83.023438 L 593.535156 102.230469 C 588.988281 104.25 584.945312 108.292969 582.921875 112.84375 C 580.898438 117.898438 580.898438 122.953125 582.921875 128.007812 L 601.625 171.476562 C 603.644531 176.027344 607.691406 180.070312 612.238281 182.09375 C 614.765625 183.101562 616.789062 183.609375 619.316406 183.609375 C 621.84375 183.609375 624.371094 183.101562 626.898438 182.09375 L 670.367188 163.390625 C 675.925781 160.863281 679.464844 156.820312 681.488281 152.269531 Z M 681.488281 152.269531 " fill-opacity="1" fill-rule="nonzero"/><path fill="#ffffff" d="M 643.578125 297.84375 C 652.171875 290.765625 653.179688 277.625 645.597656 269.535156 L 612.742188 231.121094 C 609.207031 227.078125 604.152344 224.550781 599.097656 224.046875 C 593.535156 223.539062 588.480469 225.5625 584.4375 229.101562 L 546.023438 261.953125 C 537.429688 269.03125 536.417969 282.171875 544 290.261719 L 576.855469 328.675781 C 580.394531 332.71875 585.449219 335.246094 590.503906 335.753906 C 591.007812 335.753906 591.515625 335.753906 592.019531 335.753906 C 597.074219 335.753906 601.625 334.234375 605.164062 330.699219 Z M 592.019531 315.535156 L 559.164062 277.117188 L 597.582031 244.261719 L 630.433594 282.679688 Z M 592.019531 315.535156 " fill-opacity="1" fill-rule="nonzero"/><path fill="#ffffff" d="M 481.324219 210.398438 L 527.828125 230.109375 C 537.9375 234.15625 550.066406 229.605469 554.109375 219.496094 L 573.824219 172.992188 C 578.371094 162.882812 573.316406 150.753906 563.210938 146.710938 L 516.203125 126.492188 C 506.09375 121.941406 493.960938 126.996094 489.917969 137.105469 C 489.917969 137.105469 470.203125 183.609375 470.203125 183.609375 C 468.6875 187.148438 468.6875 190.683594 469.195312 194.222656 C 470.203125 201.300781 474.753906 207.363281 481.324219 210.398438 Z M 481.324219 210.398438 " fill-opacity="1" fill-rule="nonzero"/><path fill="#ffffff" d="M 579.382812 382.253906 C 575.339844 378.210938 570.285156 376.1875 565.230469 376.1875 C 560.175781 376.1875 554.617188 378.210938 551.078125 382.253906 L 515.191406 418.140625 C 511.148438 422.1875 509.125 427.242188 509.125 432.292969 C 509.125 437.855469 511.148438 442.910156 515.191406 446.449219 L 551.078125 482.335938 C 555.121094 486.378906 560.175781 488.402344 565.230469 488.402344 C 570.285156 488.402344 575.84375 486.378906 579.382812 482.335938 L 615.269531 446.449219 C 619.316406 442.402344 621.335938 437.347656 621.335938 432.292969 C 621.335938 426.734375 619.316406 421.679688 615.269531 418.140625 Z M 579.382812 382.253906 " fill-opacity="1" fill-rule="nonzero"/><path fill="#ffffff" d="M 687.046875 320.589844 C 679.464844 313.007812 666.324219 313.007812 658.742188 320.589844 L 623.359375 355.96875 C 615.777344 363.550781 615.777344 376.695312 623.359375 384.277344 L 658.742188 419.660156 C 662.785156 423.703125 667.332031 425.722656 672.894531 425.722656 C 678.453125 425.722656 683.507812 423.703125 687.046875 419.660156 L 722.429688 384.277344 C 726.472656 380.234375 728.496094 375.683594 728.496094 370.125 C 728.496094 364.5625 726.472656 359.507812 722.429688 355.96875 Z M 687.046875 320.589844 " fill-opacity="1" fill-rule="nonzero"/><path fill="#ffffff" d="M 580.394531 521.257812 C 578.371094 526.308594 578.371094 531.871094 580.394531 536.925781 L 600.613281 583.425781 C 602.636719 588.480469 606.679688 592.019531 611.734375 594.042969 C 614.261719 595.054688 616.789062 595.558594 619.316406 595.558594 C 621.84375 595.558594 624.875 595.054688 627.402344 594.042969 L 673.90625 573.824219 C 678.960938 571.800781 682.496094 567.757812 684.519531 562.703125 C 686.542969 557.648438 686.542969 552.089844 684.519531 547.035156 L 664.300781 500.53125 C 662.277344 495.476562 658.234375 491.9375 653.179688 489.917969 C 648.125 487.894531 642.566406 487.894531 637.511719 489.917969 L 591.007812 510.136719 C 586.460938 512.15625 582.417969 516.203125 580.394531 521.257812 Z M 645.597656 508.621094 L 665.816406 555.121094 L 619.316406 575.339844 L 599.097656 528.835938 Z M 645.597656 508.621094 " fill-opacity="1" fill-rule="nonzero"/><g clip-path="url(#857be27293)"><path fill="#ffffff" d="M 324.125 435.832031 C 324.125 424.714844 315.027344 415.613281 303.90625 415.613281 L 253.363281 415.613281 C 242.242188 415.613281 233.144531 424.714844 233.144531 435.832031 L 233.144531 486.378906 C 233.144531 497.5 242.242188 506.597656 253.363281 506.597656 L 303.90625 506.597656 C 315.027344 506.597656 324.125 497.5 324.125 486.378906 Z M 253.363281 486.378906 L 253.363281 435.832031 L 303.90625 435.832031 L 303.90625 486.378906 Z M 253.363281 486.378906 " fill-opacity="1" fill-rule="nonzero"/></g><g clip-path="url(#386e6e7952)"><path fill="#ffffff" d="M 303.90625 526.816406 L 253.363281 526.816406 C 242.242188 526.816406 233.144531 535.914062 233.144531 547.035156 L 233.144531 597.582031 C 233.144531 608.699219 242.242188 617.796875 253.363281 617.796875 L 303.90625 617.796875 C 315.027344 617.796875 324.125 608.699219 324.125 597.582031 L 324.125 547.035156 C 324.125 535.914062 315.027344 526.816406 303.90625 526.816406 Z M 303.90625 526.816406 " fill-opacity="1" fill-rule="nonzero"/></g><path fill="#ffffff" d="M 344.34375 597.582031 C 344.34375 608.699219 353.441406 617.796875 364.5625 617.796875 L 415.109375 617.796875 C 426.230469 617.796875 434.820312 609.207031 435.328125 598.589844 L 422.1875 593.03125 C 419.660156 592.019531 417.636719 590.503906 415.613281 589.492188 L 415.613281 598.085938 L 364.5625 598.085938 L 364.5625 547.035156 L 397.921875 547.035156 C 398.429688 544.507812 398.933594 541.980469 399.945312 539.957031 L 405.503906 526.816406 L 364.5625 526.816406 C 353.441406 526.816406 344.34375 535.914062 344.34375 547.035156 Z M 344.34375 597.582031 " fill-opacity="1" fill-rule="nonzero"/><path fill="#ffffff" d="M 344.34375 486.378906 C 344.34375 497.5 353.441406 506.597656 364.5625 506.597656 L 414.097656 506.597656 L 419.660156 493.457031 C 422.691406 485.875 428.25 479.300781 434.820312 475.257812 L 434.820312 435.832031 C 434.820312 424.714844 425.722656 415.613281 414.605469 415.613281 L 364.5625 415.613281 C 353.441406 415.613281 344.34375 424.714844 344.34375 435.832031 Z M 344.34375 486.378906 " fill-opacity="1" fill-rule="nonzero"/><path fill="#ffffff" d="M 421.175781 292.28125 L 401.460938 338.785156 C 396.914062 348.894531 401.96875 361.023438 412.078125 365.070312 C 412.078125 365.070312 458.578125 384.78125 458.578125 384.78125 C 468.6875 388.824219 480.820312 384.277344 484.863281 374.167969 L 504.574219 327.664062 C 509.125 317.554688 504.070312 305.425781 493.960938 301.378906 C 493.960938 301.378906 447.457031 281.667969 447.457031 281.667969 C 437.855469 277.117188 425.21875 282.679688 421.175781 292.28125 Z M 466.667969 366.585938 L 420.164062 346.871094 L 439.875 300.371094 L 486.378906 320.082031 Z M 466.667969 366.585938 " fill-opacity="1" fill-rule="nonzero"/><path fill="#ffffff" d="M 503.058594 582.921875 L 522.773438 536.417969 C 527.320312 526.308594 522.265625 514.179688 512.15625 510.136719 L 465.65625 490.421875 C 460.601562 488.402344 455.039062 488.402344 449.984375 490.421875 C 444.929688 492.445312 440.886719 496.488281 438.867188 501.542969 C 438.867188 501.542969 418.140625 551.078125 418.140625 553.101562 C 417.132812 561.1875 420.667969 569.273438 427.242188 573.316406 C 428.25 573.824219 476.777344 594.546875 476.777344 594.546875 C 486.378906 598.085938 498.511719 593.03125 503.058594 582.921875 Z M 503.058594 582.921875 " fill-opacity="1" fill-rule="nonzero"/><g clip-path="url(#d1468869e1)"><path fill="#ffffff" d="M 142.160156 729 L 415.109375 729 C 448.46875 729 475.765625 701.707031 475.765625 668.34375 L 475.765625 614.765625 C 473.238281 614.261719 470.710938 613.25 468.6875 612.746094 L 455.546875 607.183594 L 455.546875 628.414062 C 455.546875 650.652344 437.347656 668.851562 415.109375 668.851562 L 142.160156 668.851562 C 119.921875 668.851562 101.722656 650.652344 101.722656 628.414062 L 101.722656 142.667969 C 101.722656 120.425781 119.921875 102.230469 142.160156 102.230469 L 203.320312 102.230469 L 213.429688 114.359375 C 229.101562 132.050781 251.339844 142.667969 273.582031 142.667969 C 295.820312 142.667969 318.0625 132.050781 333.730469 114.359375 L 343.839844 102.230469 L 415.109375 102.230469 C 437.347656 102.230469 455.546875 120.425781 455.546875 142.667969 L 455.546875 166.929688 L 471.214844 129.523438 C 471.722656 128.007812 472.226562 126.996094 473.238281 125.984375 C 465.65625 100.207031 442.402344 82.011719 415.109375 82.011719 L 142.160156 82.011719 C 108.800781 82.011719 81.503906 109.304688 81.503906 142.667969 L 81.503906 668.34375 C 81.503906 701.707031 108.800781 729 142.160156 729 Z M 142.160156 688.5625 L 415.109375 688.5625 C 430.273438 688.5625 444.425781 683.003906 455.039062 673.398438 C 452.511719 693.617188 435.328125 708.78125 415.109375 708.78125 L 142.160156 708.78125 C 121.4375 708.78125 104.757812 693.113281 102.230469 673.398438 C 112.84375 683.003906 126.996094 688.5625 142.160156 688.5625 Z M 317.050781 102.230469 C 305.425781 115.371094 289.753906 122.449219 273.582031 122.449219 C 257.40625 122.449219 242.242188 115.371094 230.109375 102.230469 Z M 317.050781 102.230469 " fill-opacity="1" fill-rule="nonzero"/></g><path fill="#ffffff" d="M 344.34375 375.179688 C 344.34375 386.296875 353.441406 395.394531 364.5625 395.394531 L 415.109375 395.394531 C 418.648438 395.394531 422.1875 394.386719 425.21875 392.867188 L 404.496094 384.277344 C 399.441406 382.253906 394.890625 379.222656 391.351562 375.179688 L 364.5625 375.179688 L 364.5625 324.632812 L 385.792969 324.632812 L 394.386719 304.414062 L 364.5625 304.414062 C 353.441406 304.414062 344.34375 313.511719 344.34375 324.632812 Z M 344.34375 375.179688 " fill-opacity="1" fill-rule="nonzero"/><path fill="#ffffff" d="M 415.109375 193.210938 L 364.5625 193.210938 C 353.441406 193.210938 344.34375 202.308594 344.34375 213.429688 L 344.34375 263.976562 C 344.34375 275.097656 353.441406 284.195312 364.5625 284.195312 L 402.472656 284.195312 C 408.03125 270.546875 420.667969 261.449219 435.328125 259.933594 L 435.328125 213.429688 C 435.328125 202.308594 426.230469 193.210938 415.109375 193.210938 Z M 415.109375 193.210938 " fill-opacity="1" fill-rule="nonzero"/><path fill="#ffffff" d="M 455.546875 214.441406 L 455.546875 262.964844 L 475.765625 271.558594 L 475.765625 230.109375 L 473.238281 228.59375 C 466.160156 225.5625 460.09375 220.507812 455.546875 214.441406 Z M 455.546875 214.441406 " fill-opacity="1" fill-rule="nonzero"/><path fill="#ffffff" d="M 455.546875 468.6875 C 456.050781 468.6875 456.558594 468.6875 457.0625 468.6875 C 462.621094 468.6875 467.675781 469.699219 472.730469 471.722656 L 475.765625 472.730469 L 475.765625 405.503906 C 472.730469 406.011719 469.699219 406.515625 466.667969 406.515625 C 462.621094 406.515625 459.085938 406.011719 455.546875 405 Z M 455.546875 468.6875 " fill-opacity="1" fill-rule="nonzero"/><path fill="#0d02b1" d="M 212.925781 213.429688 C 212.925781 202.308594 203.828125 193.210938 192.707031 193.210938 L 142.160156 193.210938 C 131.039062 193.210938 121.941406 202.308594 121.941406 213.429688 L 121.941406 263.976562 C 121.941406 275.097656 131.039062 284.195312 142.160156 284.195312 L 192.707031 284.195312 C 203.828125 284.195312 212.925781 275.097656 212.925781 263.976562 Z M 212.925781 213.429688 " fill-opacity="1" fill-rule="nonzero"/><g clip-path="url(#10ca4defd8)"><path fill="#0d02b1" d="M 324.125 213.429688 C 324.125 202.308594 315.027344 193.210938 303.90625 193.210938 L 253.363281 193.210938 C 242.242188 193.210938 233.144531 202.308594 233.144531 213.429688 L 233.144531 263.976562 C 233.144531 275.097656 242.242188 284.195312 253.363281 284.195312 L 303.90625 284.195312 C 315.027344 284.195312 324.125 275.097656 324.125 263.976562 Z M 253.363281 263.976562 L 253.363281 213.429688 L 303.90625 213.429688 L 303.90625 263.976562 Z M 253.363281 263.976562 " fill-opacity="1" fill-rule="nonzero"/></g><path fill="#0d02b1" d="M 212.925781 324.632812 C 212.925781 313.511719 203.828125 304.414062 192.707031 304.414062 L 142.160156 304.414062 C 131.039062 304.414062 121.941406 313.511719 121.941406 324.632812 L 121.941406 375.179688 C 121.941406 386.296875 131.039062 395.394531 142.160156 395.394531 L 192.707031 395.394531 C 203.828125 395.394531 212.925781 386.296875 212.925781 375.179688 Z M 142.160156 375.179688 L 142.160156 324.632812 L 192.707031 324.632812 L 192.707031 375.179688 Z M 142.160156 375.179688 " fill-opacity="1" fill-rule="nonzero"/><g clip-path="url(#491bb375e0)"><path fill="#0d02b1" d="M 324.125 324.632812 C 324.125 313.511719 315.027344 304.414062 303.90625 304.414062 L 253.363281 304.414062 C 242.242188 304.414062 233.144531 313.511719 233.144531 324.632812 L 233.144531 375.179688 C 233.144531 386.296875 242.242188 395.394531 253.363281 395.394531 L 303.90625 395.394531 C 315.027344 395.394531 324.125 386.296875 324.125 375.179688 Z M 324.125 324.632812 " fill-opacity="1" fill-rule="nonzero"/></g><path fill="#0d02b1" d="M 212.925781 435.832031 C 212.925781 424.714844 203.828125 415.613281 192.707031 415.613281 L 142.160156 415.613281 C 131.039062 415.613281 121.941406 424.714844 121.941406 435.832031 L 121.941406 486.378906 C 121.941406 497.5 131.039062 506.597656 142.160156 506.597656 L 192.707031 506.597656 C 203.828125 506.597656 212.925781 497.5 212.925781 486.378906 Z M 212.925781 435.832031 " fill-opacity="1" fill-rule="nonzero"/><g clip-path="url(#971d7e73e8)"><path fill="#0d02b1" d="M 324.125 435.832031 C 324.125 424.714844 315.027344 415.613281 303.90625 415.613281 L 253.363281 415.613281 C 242.242188 415.613281 233.144531 424.714844 233.144531 435.832031 L 233.144531 486.378906 C 233.144531 497.5 242.242188 506.597656 253.363281 506.597656 L 303.90625 506.597656 C 315.027344 506.597656 324.125 497.5 324.125 486.378906 Z M 253.363281 486.378906 L 253.363281 435.832031 L 303.90625 435.832031 L 303.90625 486.378906 Z M 253.363281 486.378906 " fill-opacity="1" fill-rule="nonzero"/></g><path fill="#0d02b1" d="M 192.707031 526.816406 L 142.160156 526.816406 C 131.039062 526.816406 121.941406 535.914062 121.941406 547.035156 L 121.941406 597.582031 C 121.941406 608.699219 131.039062 617.796875 142.160156 617.796875 L 192.707031 617.796875 C 203.828125 617.796875 212.925781 608.699219 212.925781 597.582031 L 212.925781 547.035156 C 212.925781 535.914062 203.828125 526.816406 192.707031 526.816406 Z M 142.160156 597.582031 L 142.160156 547.035156 L 192.707031 547.035156 L 192.707031 597.582031 Z M 142.160156 597.582031 " fill-opacity="1" fill-rule="nonzero"/><g clip-path="url(#5b54587855)"><path fill="#0d02b1" d="M 303.90625 526.816406 L 253.363281 526.816406 C 242.242188 526.816406 233.144531 535.914062 233.144531 547.035156 L 233.144531 597.582031 C 233.144531 608.699219 242.242188 617.796875 253.363281 617.796875 L 303.90625 617.796875 C 315.027344 617.796875 324.125 608.699219 324.125 597.582031 L 324.125 547.035156 C 324.125 535.914062 315.027344 526.816406 303.90625 526.816406 Z M 303.90625 526.816406 " fill-opacity="1" fill-rule="nonzero"/></g><g clip-path="url(#ff148d13d1)"><path fill="#0d02b1" d="M 142.160156 729 L 415.109375 729 C 448.46875 729 475.765625 701.707031 475.765625 668.34375 L 475.765625 614.765625 C 473.238281 614.261719 470.710938 613.25 468.6875 612.746094 L 455.546875 607.183594 L 455.546875 628.414062 C 455.546875 650.652344 437.347656 668.851562 415.109375 668.851562 L 142.160156 668.851562 C 119.921875 668.851562 101.722656 650.652344 101.722656 628.414062 L 101.722656 142.667969 C 101.722656 120.425781 119.921875 102.230469 142.160156 102.230469 L 203.320312 102.230469 L 213.429688 114.359375 C 229.101562 132.050781 251.339844 142.667969 273.582031 142.667969 C 295.820312 142.667969 318.0625 132.050781 333.730469 114.359375 L 343.839844 102.230469 L 415.109375 102.230469 C 437.347656 102.230469 455.546875 120.425781 455.546875 142.667969 L 455.546875 166.929688 L 471.214844 129.523438 C 471.722656 128.007812 472.226562 126.996094 473.238281 125.984375 C 465.65625 100.207031 442.402344 82.011719 415.109375 82.011719 L 142.160156 82.011719 C 108.800781 82.011719 81.503906 109.304688 81.503906 142.667969 L 81.503906 668.34375 C 81.503906 701.707031 108.800781 729 142.160156 729 Z M 142.160156 688.5625 L 415.109375 688.5625 C 430.273438 688.5625 444.425781 683.003906 455.039062 673.398438 C 452.511719 693.617188 435.328125 708.78125 415.109375 708.78125 L 142.160156 708.78125 C 121.4375 708.78125 104.757812 693.113281 102.230469 673.398438 C 112.84375 683.003906 126.996094 688.5625 142.160156 688.5625 Z M 317.050781 102.230469 C 305.425781 115.371094 289.753906 122.449219 273.582031 122.449219 C 257.40625 122.449219 242.242188 115.371094 230.109375 102.230469 Z M 317.050781 102.230469 " fill-opacity="1" fill-rule="nonzero"/></g></svg>