<svg xmlns="http://www.w3.org/2000/svg" xmlns:xlink="http://www.w3.org/1999/xlink" width="810" zoomAndPan="magnify" viewBox="0 0 607.5 607.499986" height="810" preserveAspectRatio="xMidYMid meet" version="1.0"><defs><clipPath id="647fda4522"><path d="M 45 282 L 224 282 L 224 566.011719 L 45 566.011719 Z M 45 282 " clip-rule="nonzero"/></clipPath><clipPath id="5de53c22d4"><path d="M 253 41.761719 L 563 41.761719 L 563 274 L 253 274 Z M 253 41.761719 " clip-rule="nonzero"/></clipPath><clipPath id="84e1ac5ef9"><path d="M 208 278 L 411 278 L 411 566.011719 L 208 566.011719 Z M 208 278 " clip-rule="nonzero"/></clipPath><clipPath id="23c9f2c72b"><path d="M 352 282 L 559 282 L 559 566.011719 L 352 566.011719 Z M 352 282 " clip-rule="nonzero"/></clipPath><clipPath id="831fd5c130"><path d="M 291.945312 282 L 312 282 L 312 335 L 291.945312 335 Z M 291.945312 282 " clip-rule="nonzero"/></clipPath><clipPath id="5e802c4e82"><path d="M 291.945312 41.761719 L 563 41.761719 L 563 274 L 291.945312 274 Z M 291.945312 41.761719 " clip-rule="nonzero"/></clipPath><clipPath id="4968a5910e"><path d="M 291.945312 278 L 411 278 L 411 566.011719 L 291.945312 566.011719 Z M 291.945312 278 " clip-rule="nonzero"/></clipPath><clipPath id="572ea94a51"><path d="M 352 282 L 559 282 L 559 566.011719 L 352 566.011719 Z M 352 282 " clip-rule="nonzero"/></clipPath></defs><path fill="#ffffff" d="M 382.230469 278.222656 C 382.875 278.222656 383.527344 278.074219 384.144531 277.769531 L 392.734375 273.472656 C 394.859375 272.410156 395.71875 269.832031 394.65625 267.707031 C 393.597656 265.585938 391.011719 264.726562 388.894531 265.789062 L 380.304688 270.082031 C 378.179688 271.144531 377.320312 273.722656 378.382812 275.847656 C 379.136719 277.351562 380.65625 278.222656 382.230469 278.222656 " fill-opacity="1" fill-rule="nonzero"/><path fill="#ffffff" d="M 384.144531 295.855469 C 382.027344 294.792969 379.441406 295.652344 378.382812 297.777344 C 377.320312 299.898438 378.179688 302.480469 380.304688 303.539062 L 388.894531 307.835938 C 389.511719 308.140625 390.164062 308.289062 390.816406 308.289062 C 392.386719 308.289062 393.90625 307.421875 394.65625 305.914062 C 395.71875 303.792969 394.859375 301.210938 392.734375 300.152344 L 384.144531 295.855469 " fill-opacity="1" fill-rule="nonzero"/><path fill="#ffffff" d="M 382.222656 291.105469 L 390.816406 291.105469 C 393.1875 291.105469 395.109375 289.1875 395.109375 286.8125 C 395.109375 284.4375 393.1875 282.515625 390.816406 282.515625 L 382.222656 282.515625 C 379.855469 282.515625 377.929688 284.4375 377.929688 286.8125 C 377.929688 289.1875 379.855469 291.105469 382.222656 291.105469 " fill-opacity="1" fill-rule="nonzero"/><path fill="#ffffff" d="M 301.496094 312.582031 C 300.699219 312.582031 299.914062 312.261719 299.347656 311.695312 C 298.78125 311.128906 298.457031 310.34375 298.457031 309.546875 L 298.457031 303.992188 C 298.457031 301.617188 296.535156 299.699219 294.164062 299.699219 L 287.09375 299.699219 C 282.035156 299.699219 277.832031 295.964844 277.09375 291.105469 L 294.164062 291.105469 C 298.898438 291.105469 302.753906 294.960938 302.753906 299.699219 L 302.753906 312.582031 Z M 307.046875 334.0625 C 309.421875 334.0625 311.34375 332.140625 311.34375 329.765625 L 311.34375 299.699219 C 311.34375 290.226562 303.632812 282.515625 294.164062 282.515625 L 272.6875 282.515625 C 270.3125 282.515625 268.390625 284.4375 268.390625 286.8125 L 268.390625 289.585938 C 268.390625 294.105469 270.003906 298.257812 272.6875 301.496094 L 272.6875 316.878906 C 272.6875 326.351562 280.394531 334.0625 289.867188 334.0625 L 291.949219 334.0625 C 294.316406 334.0625 296.242188 332.140625 296.242188 329.765625 C 296.242188 327.390625 294.316406 325.46875 291.949219 325.46875 L 289.867188 325.46875 C 285.132812 325.46875 281.277344 321.613281 281.277344 316.878906 L 281.277344 307.351562 C 283.109375 307.953125 285.058594 308.289062 287.09375 308.289062 L 289.867188 308.289062 L 289.867188 309.546875 C 289.867188 312.652344 291.074219 315.570312 293.273438 317.769531 C 295.472656 319.964844 298.390625 321.175781 301.496094 321.175781 L 302.753906 321.175781 L 302.753906 329.765625 C 302.753906 332.140625 304.675781 334.0625 307.046875 334.0625 " fill-opacity="1" fill-rule="nonzero"/><g clip-path="url(#647fda4522)"><path fill="#ffffff" d="M 201.8125 411.378906 L 176.042969 411.378906 L 176.042969 398.511719 C 176.042969 398.511719 176.042969 398.507812 176.042969 398.503906 L 201.8125 398.511719 Z M 167.449219 411.378906 L 128.851562 411.378906 C 128.847656 411.378906 128.839844 411.378906 128.832031 411.378906 L 110.429688 411.378906 C 103.648438 411.378906 97.480469 407.371094 94.730469 401.171875 L 84.625 378.4375 L 98.457031 371.863281 L 108.621094 395.871094 C 109.296875 397.460938 110.851562 398.492188 112.578125 398.492188 L 167.449219 398.511719 Z M 133.089844 374.414062 L 140.226562 389.902344 L 133.089844 389.902344 Z M 178.695312 364.128906 L 212.042969 364.128906 L 199.148438 389.921875 L 165.808594 389.910156 Z M 103.023438 325.46875 C 100.648438 325.46875 98.726562 327.390625 98.726562 329.765625 C 98.726562 332.140625 100.648438 334.0625 103.023438 334.0625 C 100.648438 334.0625 98.726562 335.980469 98.726562 338.355469 C 98.726562 339.148438 98.316406 339.664062 98.078125 339.898438 C 97.828125 340.132812 97.277344 340.539062 96.515625 340.507812 C 95.308594 340.46875 94.429688 339.5625 94.429688 338.355469 L 94.429688 321.175781 L 95.691406 321.175781 C 98.796875 321.175781 101.714844 319.964844 103.910156 317.769531 C 106.109375 315.570312 107.316406 312.652344 107.316406 309.546875 L 107.316406 308.289062 L 115.90625 308.289062 L 115.90625 316.878906 C 115.90625 321.613281 112.054688 325.46875 107.316406 325.46875 Z M 94.429688 299.699219 C 94.429688 294.960938 98.285156 291.105469 103.023438 291.105469 L 115.90625 291.105469 C 118.277344 291.105469 120.203125 293.03125 120.203125 295.402344 C 120.203125 297.773438 118.277344 299.699219 115.90625 299.699219 L 103.023438 299.699219 C 100.648438 299.699219 98.726562 301.617188 98.726562 303.992188 L 98.726562 309.546875 C 98.726562 310.34375 98.402344 311.128906 97.835938 311.695312 C 97.269531 312.261719 96.488281 312.582031 95.691406 312.582031 L 94.429688 312.582031 Z M 210.402344 398.511719 C 210.402344 396.210938 209.507812 394.050781 207.875 392.425781 C 207.789062 392.339844 207.703125 392.269531 207.617188 392.195312 L 222.835938 361.753906 C 223.5 360.425781 223.433594 358.839844 222.648438 357.574219 C 221.867188 356.308594 220.484375 355.539062 218.996094 355.539062 L 176.042969 355.539062 C 174.414062 355.539062 172.929688 356.457031 172.199219 357.910156 L 156.207031 389.902344 L 149.691406 389.902344 L 130.792969 348.921875 C 130.78125 348.890625 130.761719 348.863281 130.742188 348.835938 C 126.707031 340.121094 117.886719 334.0625 107.671875 334.0625 L 107.316406 334.0625 C 116.792969 334.0625 124.5 326.351562 124.5 316.878906 L 124.5 304.980469 C 127.128906 302.621094 128.792969 299.207031 128.792969 295.402344 C 128.792969 288.296875 123.011719 282.515625 115.90625 282.515625 L 103.023438 282.515625 C 93.546875 282.515625 85.839844 290.226562 85.839844 299.699219 L 85.839844 338.355469 C 85.839844 344.199219 90.417969 348.917969 96.261719 349.089844 C 99.179688 349.191406 101.960938 348.101562 104.058594 346.0625 C 105.082031 345.070312 105.878906 343.914062 106.429688 342.652344 L 107.671875 342.652344 C 116.949219 342.652344 124.5 350.199219 124.5 359.480469 L 124.5 389.90625 L 115.425781 389.902344 L 100.273438 354.128906 C 99.351562 351.941406 96.832031 350.921875 94.644531 351.847656 C 92.460938 352.773438 91.441406 355.289062 92.363281 357.476562 L 95.105469 363.945312 L 81.128906 370.582031 L 73.652344 353.746094 C 72.003906 350.042969 73.507812 346.453125 75.734375 344.535156 C 77.53125 342.988281 77.730469 340.273438 76.183594 338.472656 C 74.636719 336.679688 71.921875 336.480469 70.125 338.023438 C 66.035156 341.550781 64.019531 346.65625 64.417969 351.769531 C 64.398438 351.949219 64.363281 352.128906 64.363281 352.316406 L 64.363281 415.671875 C 64.363281 418.046875 66.285156 419.96875 68.660156 419.96875 L 81.546875 419.96875 C 83.917969 419.96875 85.839844 418.046875 85.839844 415.671875 C 85.839844 413.296875 83.917969 411.378906 81.546875 411.378906 L 72.953125 411.378906 L 72.953125 373.335938 L 86.875 404.660156 C 91.007812 413.960938 100.253906 419.96875 110.429688 419.96875 L 125.25 419.96875 L 137.796875 484.796875 L 137.410156 544.535156 L 128.792969 544.535156 C 126.417969 544.535156 124.5 546.453125 124.5 548.828125 C 124.5 551.203125 126.417969 553.125 128.792969 553.125 L 139.902344 553.125 L 144.195312 557.417969 L 115.933594 557.417969 L 116.324219 484.417969 C 116.324219 484.136719 116.296875 483.859375 116.242188 483.582031 L 107.929688 440.625 C 107.539062 438.609375 105.769531 437.148438 103.714844 437.148438 L 97.117188 437.148438 C 94.847656 437.148438 92.972656 438.914062 92.828125 441.175781 L 90.160156 483.839844 L 78.023438 544.535156 L 68.746094 544.535156 C 66.378906 544.535156 64.453125 546.453125 64.453125 548.828125 C 64.453125 551.203125 66.378906 553.125 68.746094 553.125 L 79.765625 553.125 L 84.0625 557.417969 L 54.539062 557.417969 L 68.578125 485.222656 C 68.617188 485.035156 68.636719 484.851562 68.652344 484.667969 L 71.867188 433.199219 C 72.015625 430.832031 70.214844 428.792969 67.84375 428.644531 C 65.472656 428.515625 63.441406 430.296875 63.292969 432.664062 L 60.09375 483.851562 L 45.113281 560.894531 C 44.867188 562.15625 45.199219 563.457031 46.015625 564.445312 C 46.832031 565.4375 48.046875 566.011719 49.332031 566.011719 L 94.429688 566.011719 C 96.167969 566.011719 97.738281 564.960938 98.398438 563.359375 C 99.066406 561.753906 98.695312 559.90625 97.46875 558.679688 L 86.210938 547.417969 L 98.640625 485.242188 C 98.679688 485.054688 98.707031 484.859375 98.71875 484.667969 L 100.910156 449.570312 L 107.730469 484.796875 L 107.316406 561.695312 C 107.308594 562.835938 107.761719 563.933594 108.566406 564.742188 C 109.371094 565.554688 110.46875 566.011719 111.613281 566.011719 L 154.566406 566.011719 C 156.300781 566.011719 157.867188 564.960938 158.535156 563.359375 C 159.195312 561.753906 158.832031 559.90625 157.601562 558.679688 L 145.988281 547.0625 L 146.390625 484.421875 C 146.394531 484.144531 146.363281 483.863281 146.308594 483.582031 L 134 419.96875 L 201.8125 419.96875 C 206.550781 419.96875 210.402344 416.113281 210.402344 411.378906 L 210.402344 398.511719 " fill-opacity="1" fill-rule="nonzero"/></g><path fill="#ffffff" d="M 180.335938 341.609375 C 180.785156 341.609375 181.242188 341.539062 181.695312 341.390625 C 183.945312 340.636719 185.160156 338.203125 184.414062 335.957031 L 181.378906 326.839844 C 180.625 324.59375 178.195312 323.382812 175.941406 324.128906 C 173.691406 324.875 172.476562 327.3125 173.226562 329.558594 L 176.261719 338.671875 C 176.863281 340.472656 178.539062 341.609375 180.335938 341.609375 " fill-opacity="1" fill-rule="nonzero"/><path fill="#ffffff" d="M 154.359375 348.425781 C 152.117188 347.679688 149.679688 348.894531 148.925781 351.140625 C 148.175781 353.394531 149.394531 355.828125 151.640625 356.578125 L 160.757812 359.613281 C 161.207031 359.761719 161.664062 359.832031 162.117188 359.832031 C 163.910156 359.832031 165.589844 358.695312 166.1875 356.898438 C 166.9375 354.644531 165.722656 352.210938 163.46875 351.460938 L 154.359375 348.425781 " fill-opacity="1" fill-rule="nonzero"/><path fill="#ffffff" d="M 171.226562 350.722656 C 172.324219 350.722656 173.425781 350.300781 174.261719 349.464844 C 175.941406 347.785156 175.941406 345.0625 174.261719 343.390625 L 168.1875 337.3125 C 166.511719 335.636719 163.789062 335.636719 162.113281 337.3125 C 160.4375 338.988281 160.4375 341.710938 162.113281 343.390625 L 168.1875 349.464844 C 169.027344 350.300781 170.128906 350.722656 171.226562 350.722656 " fill-opacity="1" fill-rule="nonzero"/><path fill="#ffffff" d="M 394.648438 465.296875 C 393.585938 463.171875 391.003906 462.3125 388.886719 463.375 C 386.761719 464.4375 385.902344 467.015625 386.964844 469.136719 L 391.257812 477.730469 C 392.011719 479.234375 393.527344 480.101562 395.105469 480.101562 C 395.753906 480.101562 396.40625 479.957031 397.023438 479.648438 C 399.144531 478.589844 400.003906 476.007812 398.945312 473.886719 L 394.648438 465.296875 " fill-opacity="1" fill-rule="nonzero"/><path fill="#ffffff" d="M 366.957031 463.375 C 364.832031 462.3125 362.253906 463.171875 361.191406 465.296875 L 356.898438 473.886719 C 355.835938 476.007812 356.695312 478.589844 358.820312 479.648438 C 359.433594 479.957031 360.089844 480.101562 360.734375 480.101562 C 362.3125 480.101562 363.832031 479.234375 364.582031 477.730469 L 368.878906 469.136719 C 369.9375 467.015625 369.078125 464.4375 366.957031 463.375 " fill-opacity="1" fill-rule="nonzero"/><path fill="#ffffff" d="M 377.921875 462.921875 C 375.546875 462.921875 373.625 464.84375 373.625 467.21875 L 373.625 475.808594 C 373.625 478.183594 375.546875 480.101562 377.921875 480.101562 C 380.292969 480.101562 382.214844 478.183594 382.214844 475.808594 L 382.214844 467.21875 C 382.214844 464.84375 380.292969 462.921875 377.921875 462.921875 " fill-opacity="1" fill-rule="nonzero"/><path fill="#ffffff" d="M 94.429688 147.875 L 94.429688 175.132812 C 94.429688 176.34375 94.941406 177.496094 95.835938 178.3125 L 143.085938 221.265625 C 143.894531 222 144.925781 222.382812 145.976562 222.382812 C 146.5625 222.382812 147.152344 222.257812 147.710938 222.011719 C 149.265625 221.328125 150.269531 219.785156 150.269531 218.085938 L 150.269531 196.964844 L 171.746094 196.964844 C 172.605469 196.964844 173.445312 196.710938 174.160156 196.226562 L 200.015625 178.6875 C 201.976562 177.355469 202.488281 174.683594 201.160156 172.71875 C 199.824219 170.757812 197.152344 170.246094 195.191406 171.574219 L 170.425781 188.375 L 145.976562 188.375 C 143.601562 188.375 141.679688 190.300781 141.679688 192.667969 L 141.679688 208.375 L 103.023438 173.230469 L 103.023438 146.136719 C 103.023438 145.023438 102.589844 143.953125 101.8125 143.152344 L 81.546875 122.207031 L 81.546875 94.765625 L 104.980469 67.746094 L 165.546875 67.746094 L 191.167969 118.375 L 179.886719 129.0625 C 178.179688 130.675781 178.09375 133.367188 179.6875 135.09375 L 209.75 167.664062 C 211.355469 169.40625 214.074219 169.515625 215.820312 167.910156 C 217.558594 166.296875 217.667969 163.578125 216.0625 161.839844 L 188.875 132.378906 L 199.398438 122.410156 C 200.777344 121.105469 201.132812 119.046875 200.277344 117.355469 L 172.023438 61.515625 C 171.289062 60.066406 169.808594 59.15625 168.1875 59.15625 L 103.023438 59.15625 C 101.777344 59.15625 100.59375 59.699219 99.773438 60.636719 L 74.003906 90.347656 C 73.328125 91.128906 72.953125 92.128906 72.953125 93.164062 L 72.953125 123.945312 C 72.953125 125.058594 73.386719 126.128906 74.164062 126.929688 L 94.429688 147.875 " fill-opacity="1" fill-rule="nonzero"/><path fill="#ffffff" d="M 184.632812 302.214844 L 184.632812 261.039062 C 184.632812 260.191406 184.378906 259.363281 183.910156 258.65625 L 169.785156 237.464844 L 181.78125 233.191406 C 183.492188 232.582031 184.632812 230.964844 184.632812 229.148438 L 184.632812 215.457031 L 227.585938 229.773438 L 227.585938 243.859375 C 227.585938 245 228.039062 246.089844 228.84375 246.894531 L 234.398438 252.449219 Z M 243.507812 249.410156 L 236.175781 242.078125 L 236.175781 226.675781 C 236.175781 224.828125 234.992188 223.1875 233.238281 222.597656 L 181.695312 205.417969 C 180.386719 204.980469 178.945312 205.203125 177.824219 206.007812 C 176.703125 206.820312 176.042969 208.113281 176.042969 209.496094 L 176.042969 226.117188 L 161.714844 231.21875 C 160.46875 231.664062 159.5 232.65625 159.078125 233.914062 C 158.664062 235.171875 158.847656 236.546875 159.582031 237.648438 L 176.042969 262.339844 L 176.042969 312.582031 C 176.042969 314.320312 177.089844 315.886719 178.691406 316.550781 C 179.226562 316.769531 179.785156 316.878906 180.335938 316.878906 C 181.453125 316.878906 182.550781 316.441406 183.375 315.621094 L 243.507812 255.484375 C 245.1875 253.808594 245.1875 251.089844 243.507812 249.410156 " fill-opacity="1" fill-rule="nonzero"/><g clip-path="url(#5de53c22d4)"><path fill="#ffffff" d="M 561.007812 111.644531 L 518.054688 77.28125 C 517.292969 76.667969 516.34375 76.339844 515.371094 76.339844 L 442.351562 76.339844 L 442.351562 46.269531 C 442.351562 44.722656 441.519531 43.296875 440.171875 42.535156 C 438.828125 41.769531 437.175781 41.789062 435.84375 42.585938 L 392.890625 68.359375 C 391.597656 69.136719 390.804688 70.53125 390.804688 72.042969 L 390.804688 85.707031 L 352.753906 93.3125 L 319.707031 76.792969 C 317.925781 75.902344 315.761719 76.355469 314.484375 77.882812 L 271.53125 129.425781 C 270.890625 130.199219 270.539062 131.171875 270.539062 132.179688 L 270.539062 166.542969 C 270.539062 167.921875 271.199219 169.21875 272.320312 170.027344 C 273.441406 170.832031 274.882812 171.050781 276.191406 170.617188 L 299.449219 162.863281 L 314.75 178.167969 C 316.421875 179.847656 319.148438 179.847656 320.824219 178.167969 L 330.671875 168.320312 L 330.671875 188.019531 L 310.972656 188.019531 L 297.199219 174.242188 C 295.972656 173.011719 294.132812 172.648438 292.527344 173.308594 L 256.015625 188.339844 C 254.410156 189.003906 253.355469 190.574219 253.355469 192.3125 L 253.355469 218.085938 C 253.355469 219.714844 254.277344 221.199219 255.730469 221.929688 L 272.914062 230.519531 C 273.507812 230.816406 274.167969 230.972656 274.832031 230.972656 L 287.71875 230.972656 L 287.71875 243.859375 C 287.71875 245 288.171875 246.089844 288.976562 246.894531 L 314.75 272.667969 C 315.570312 273.492188 316.675781 273.925781 317.785156 273.925781 C 318.441406 273.925781 319.097656 273.777344 319.707031 273.472656 L 336.890625 264.882812 C 338.34375 264.152344 339.261719 262.667969 339.261719 261.039062 L 339.261719 245.636719 L 342.972656 241.929688 C 344.648438 240.25 344.648438 237.53125 342.972656 235.855469 C 341.296875 234.175781 338.570312 234.175781 336.898438 235.855469 L 331.929688 240.820312 C 331.125 241.625 330.671875 242.71875 330.671875 243.859375 L 330.671875 258.382812 L 318.632812 264.402344 L 296.308594 242.078125 L 296.308594 226.675781 C 296.308594 224.300781 294.390625 222.382812 292.015625 222.382812 L 275.847656 222.382812 L 261.949219 215.429688 L 261.949219 195.191406 L 293.152344 182.34375 L 306.160156 195.351562 C 306.964844 196.15625 308.054688 196.609375 309.195312 196.609375 L 334.96875 196.609375 C 337.34375 196.609375 339.261719 194.6875 339.261719 192.3125 L 339.261719 157.949219 C 339.261719 156.214844 338.214844 154.648438 336.613281 153.980469 C 335.003906 153.320312 333.160156 153.683594 331.929688 154.914062 L 317.785156 169.058594 L 303.640625 154.914062 C 302.492188 153.765625 300.789062 153.363281 299.246094 153.875 L 279.128906 160.582031 L 279.128906 133.734375 L 318.910156 85.996094 L 350.226562 101.65625 C 351.082031 102.085938 352.050781 102.214844 352.992188 102.027344 L 395.945312 93.4375 C 397.949219 93.039062 399.398438 91.273438 399.398438 89.222656 L 399.398438 74.476562 L 433.757812 53.855469 L 433.757812 80.632812 C 433.757812 83.007812 435.679688 84.929688 438.054688 84.929688 L 513.863281 84.929688 L 546.078125 110.703125 L 515.371094 110.703125 C 514.019531 110.703125 512.746094 111.339844 511.933594 112.421875 L 486.164062 146.785156 C 485.605469 147.527344 485.304688 148.433594 485.304688 149.359375 L 485.304688 179.425781 L 463.828125 179.425781 C 461.453125 179.425781 459.53125 181.347656 459.53125 183.722656 L 459.53125 200.902344 C 459.53125 202.046875 459.984375 203.136719 460.789062 203.941406 L 465.878906 209.027344 L 442.351562 226.675781 L 442.351562 209.496094 C 442.351562 208.355469 441.898438 207.261719 441.089844 206.457031 L 423.910156 189.277344 C 422.238281 187.597656 419.511719 187.597656 417.835938 189.277344 L 390.804688 216.308594 L 390.804688 200.902344 C 390.804688 199.761719 390.355469 198.671875 389.546875 197.867188 L 380.957031 189.277344 C 380.152344 188.472656 379.0625 188.019531 377.921875 188.019531 L 360.738281 188.019531 C 358.367188 188.019531 356.445312 189.9375 356.445312 192.3125 L 356.445312 216.308594 L 348.84375 223.90625 C 347.164062 225.585938 347.164062 228.304688 348.84375 229.980469 C 350.515625 231.660156 353.242188 231.660156 354.917969 229.980469 L 363.777344 221.121094 C 364.582031 220.316406 365.035156 219.226562 365.035156 218.085938 L 365.035156 196.609375 L 376.140625 196.609375 L 382.214844 202.683594 L 382.214844 226.675781 C 382.214844 228.414062 383.265625 229.976562 384.867188 230.644531 C 386.46875 231.308594 388.320312 230.941406 389.546875 229.714844 L 420.875 198.386719 L 433.757812 211.273438 L 433.757812 235.265625 C 433.757812 236.894531 434.679688 238.378906 436.132812 239.109375 C 437.589844 239.835938 439.328125 239.679688 440.628906 238.703125 L 474.992188 212.929688 C 475.992188 212.183594 476.613281 211.042969 476.699219 209.796875 C 476.789062 208.558594 476.335938 207.339844 475.453125 206.457031 L 468.121094 199.125 L 468.121094 188.019531 L 489.597656 188.019531 C 491.972656 188.019531 493.894531 186.097656 493.894531 183.722656 L 493.894531 150.789062 L 517.519531 119.292969 L 558.324219 119.292969 C 560.148438 119.292969 561.769531 118.136719 562.375 116.417969 C 562.980469 114.699219 562.429688 112.78125 561.007812 111.644531 " fill-opacity="1" fill-rule="nonzero"/></g><path fill="#ffffff" d="M 253.355469 59.15625 L 253.355469 79.9375 L 245.453125 103.648438 L 224.957031 117.3125 L 195.878906 59.15625 Z M 219.449219 125.507812 C 220 126.613281 220.996094 127.421875 222.1875 127.738281 C 222.550781 127.835938 222.921875 127.882812 223.289062 127.882812 C 224.128906 127.882812 224.960938 127.636719 225.671875 127.160156 L 251.445312 109.980469 C 252.242188 109.453125 252.835938 108.671875 253.140625 107.765625 L 261.730469 81.992188 C 261.871094 81.550781 261.949219 81.09375 261.949219 80.632812 L 261.949219 54.863281 C 261.949219 52.488281 260.027344 50.566406 257.652344 50.566406 L 188.925781 50.566406 C 187.4375 50.566406 186.054688 51.339844 185.273438 52.605469 C 184.488281 53.867188 184.421875 55.453125 185.085938 56.78125 L 219.449219 125.507812 " fill-opacity="1" fill-rule="nonzero"/><path fill="#ffffff" d="M 533.910156 214.007812 L 508.136719 205.417969 C 506.800781 204.972656 505.328125 205.210938 504.203125 206.058594 L 469.839844 231.832031 C 468.757812 232.640625 468.121094 233.917969 468.121094 235.265625 L 468.121094 269.628906 C 468.121094 272.003906 470.042969 273.925781 472.417969 273.925781 L 515.371094 273.925781 C 515.722656 273.925781 516.070312 273.882812 516.410156 273.800781 L 525.144531 271.613281 C 527.445312 271.039062 528.847656 268.707031 528.273438 266.40625 C 527.695312 264.101562 525.359375 262.703125 523.0625 263.277344 L 514.839844 265.335938 L 476.710938 265.335938 L 476.710938 237.414062 L 507.554688 214.28125 L 528.257812 221.179688 L 528.257812 235.265625 C 528.257812 237.640625 530.175781 239.5625 532.550781 239.5625 L 539.363281 239.5625 L 545.4375 245.636719 L 545.4375 257.6875 L 540.226562 258.988281 C 537.925781 259.5625 536.523438 261.894531 537.097656 264.199219 C 537.675781 266.5 540.007812 267.898438 542.308594 267.324219 L 550.773438 265.207031 C 552.6875 264.730469 554.027344 263.011719 554.027344 261.039062 L 554.027344 243.859375 C 554.027344 242.71875 553.574219 241.625 552.769531 240.820312 L 544.179688 232.230469 C 543.375 231.425781 542.28125 230.972656 541.140625 230.972656 L 536.847656 230.972656 L 536.847656 218.085938 C 536.847656 216.234375 535.664062 214.59375 533.910156 214.007812 " fill-opacity="1" fill-rule="nonzero"/><path fill="#ffffff" d="M 472.417969 153.65625 C 474.792969 153.65625 476.710938 151.734375 476.710938 149.359375 L 476.710938 142.199219 L 501.625 108.980469 C 503.046875 107.085938 502.664062 104.390625 500.765625 102.96875 C 498.867188 101.546875 496.175781 101.933594 494.753906 103.832031 L 468.980469 138.195312 C 468.425781 138.9375 468.121094 139.84375 468.121094 140.769531 L 468.121094 149.359375 C 468.121094 151.734375 470.042969 153.65625 472.417969 153.65625 " fill-opacity="1" fill-rule="nonzero"/><g clip-path="url(#84e1ac5ef9)"><path fill="#ffffff" d="M 259.9375 376.109375 L 245.71875 371.367188 L 251.449219 354.351562 C 253.800781 347.355469 260.34375 342.652344 267.722656 342.652344 L 281.785156 342.652344 C 283.746094 351.246094 291.4375 357.683594 300.613281 357.683594 C 309.796875 357.683594 317.484375 351.246094 319.449219 342.652344 L 333.324219 342.652344 C 336.425781 342.652344 339.488281 343.5 342.164062 345.097656 L 356.890625 353.933594 L 349.847656 368.910156 L 332.605469 360.285156 C 331.273438 359.617188 329.691406 359.691406 328.425781 360.472656 C 327.15625 361.253906 326.390625 362.640625 326.390625 364.128906 L 326.390625 411.378906 L 274.847656 411.378906 L 274.847656 357.683594 C 274.847656 355.574219 273.316406 353.78125 271.230469 353.445312 C 269.140625 353.113281 267.132812 354.335938 266.46875 356.339844 Z M 237.476562 444.105469 C 237.058594 445.371094 237.253906 446.765625 238.003906 447.867188 L 238.992188 449.3125 L 236.886719 450.273438 C 235.796875 450.769531 234.964844 451.695312 234.589844 452.832031 L 231.691406 461.601562 L 217.203125 456.089844 L 242.980469 379.511719 L 257.246094 384.265625 Z M 364.292969 358.378906 L 380.019531 367.8125 C 380.707031 368.222656 381.46875 368.421875 382.222656 368.421875 C 383.433594 368.421875 384.621094 367.914062 385.457031 366.957031 C 386.832031 365.390625 386.878906 363.066406 385.582031 361.445312 L 353.566406 321.429688 C 352.660156 320.296875 352.160156 318.867188 352.160156 317.402344 C 352.160156 317.398438 352.15625 317.398438 352.15625 317.394531 L 352.15625 291.105469 L 353.800781 291.105469 L 361.207031 305.914062 C 361.351562 306.207031 361.53125 306.488281 361.746094 306.746094 L 397.191406 349.289062 C 400.214844 352.914062 401.875 357.507812 401.875 362.226562 C 401.875 363.570312 401.746094 364.902344 401.484375 366.183594 C 400.246094 372.417969 396.253906 377.589844 390.550781 380.382812 C 384.84375 383.171875 378.3125 383.144531 372.628906 380.304688 L 357.535156 372.753906 Z M 343.566406 316.878906 L 334.976562 316.878906 L 334.976562 286.8125 L 343.566406 286.8125 Z M 347.695312 546.882812 L 336.628906 432.523438 C 336.402344 430.160156 334.3125 428.433594 331.9375 428.664062 C 329.578125 428.890625 327.847656 430.992188 328.074219 433.351562 L 338.839844 544.535156 L 326.464844 544.535156 C 324.09375 544.535156 322.171875 546.453125 322.171875 548.828125 C 322.171875 551.203125 324.09375 553.125 326.464844 553.125 L 341.789062 553.125 L 346.082031 557.417969 L 317.796875 557.417969 L 317.796875 548.828125 C 317.796875 548.691406 317.789062 548.550781 317.773438 548.414062 L 307.382812 441.03125 C 307.171875 438.828125 305.320312 437.148438 303.109375 437.148438 L 298.121094 437.148438 C 295.90625 437.148438 294.058594 438.828125 293.84375 441.03125 L 283.453125 548.414062 C 283.441406 548.550781 283.433594 548.691406 283.433594 548.828125 L 283.433594 557.417969 L 255.144531 557.417969 L 259.4375 553.125 L 270.539062 553.125 C 272.914062 553.125 274.832031 551.203125 274.832031 548.828125 C 274.832031 546.453125 272.914062 544.535156 270.539062 544.535156 L 262.390625 544.535156 L 274.449219 419.96875 L 330.679688 419.96875 C 330.679688 419.96875 330.679688 419.96875 330.683594 419.96875 C 333.054688 419.96875 334.980469 418.046875 334.980469 415.671875 L 334.980469 371.078125 L 368.785156 387.988281 C 376.878906 392.035156 386.1875 392.078125 394.320312 388.097656 C 402.453125 384.121094 408.140625 376.746094 409.914062 367.875 C 410.28125 366.039062 410.464844 364.140625 410.464844 362.226562 C 410.464844 355.503906 408.097656 348.957031 403.792969 343.789062 L 368.664062 301.628906 L 360.300781 284.890625 C 359.570312 283.433594 358.082031 282.515625 356.457031 282.515625 L 351.78125 282.515625 C 350.894531 280.019531 348.511719 278.222656 345.714844 278.222656 L 332.828125 278.222656 C 329.277344 278.222656 326.386719 281.109375 326.386719 284.664062 L 326.386719 319.027344 C 326.386719 322.578125 329.277344 325.46875 332.828125 325.46875 L 345.714844 325.46875 C 345.78125 325.46875 345.851562 325.460938 345.914062 325.457031 C 346.210938 325.921875 346.519531 326.371094 346.863281 326.800781 L 363.941406 348.144531 L 346.578125 337.730469 C 342.5625 335.332031 337.984375 334.0625 333.324219 334.0625 L 315.648438 334.0625 C 313.277344 334.0625 311.351562 335.980469 311.351562 338.355469 C 311.351562 344.277344 306.535156 349.09375 300.613281 349.09375 C 294.695312 349.09375 289.875 344.277344 289.875 338.355469 L 289.867188 338.355469 C 289.867188 335.980469 287.945312 334.0625 285.570312 334.0625 L 267.722656 334.0625 C 256.648438 334.0625 246.839844 341.113281 243.308594 351.609375 L 237.570312 368.652344 L 237.542969 368.640625 L 234.824219 376.796875 L 234.828125 376.796875 L 209.066406 453.332031 C 207.574219 457.710938 209.804688 462.449219 214.144531 464.113281 L 228.632812 469.628906 C 229.617188 470.007812 230.652344 470.191406 231.6875 470.191406 C 232.957031 470.191406 234.230469 469.910156 235.390625 469.355469 C 237.496094 468.355469 239.121094 466.507812 239.847656 464.300781 L 242.15625 457.308594 L 247.191406 455.019531 C 248.34375 454.496094 249.203125 453.488281 249.546875 452.265625 C 249.886719 451.046875 249.675781 449.738281 248.960938 448.6875 L 246.300781 444.785156 L 266.253906 384.378906 L 266.253906 415.453125 L 253.535156 546.882812 L 241.738281 558.679688 C 240.507812 559.90625 240.144531 561.753906 240.808594 563.359375 C 241.472656 564.960938 243.039062 566.011719 244.773438 566.011719 L 287.726562 566.011719 C 290.101562 566.011719 292.023438 564.089844 292.023438 561.714844 L 292.023438 549.035156 L 300.613281 460.261719 L 309.203125 549.035156 L 309.203125 561.714844 C 309.203125 564.089844 311.128906 566.011719 313.5 566.011719 L 356.453125 566.011719 C 358.195312 566.011719 359.757812 564.960938 360.421875 563.359375 C 361.085938 561.753906 360.71875 559.90625 359.488281 558.679688 L 347.695312 546.882812 " fill-opacity="1" fill-rule="nonzero"/></g><path fill="#ffffff" d="M 468.121094 166.542969 C 468.121094 168.914062 470.042969 170.835938 472.417969 170.835938 C 474.792969 170.835938 476.710938 168.914062 476.710938 166.542969 L 476.710938 162.246094 C 476.710938 159.871094 474.792969 157.949219 472.417969 157.949219 C 470.042969 157.949219 468.121094 159.871094 468.121094 162.246094 L 468.121094 166.542969 " fill-opacity="1" fill-rule="nonzero"/><g clip-path="url(#23c9f2c72b)"><path fill="#ffffff" d="M 506.78125 354.523438 L 498.640625 370.796875 C 498.234375 371.613281 498.097656 372.53125 498.246094 373.421875 L 501.707031 394.195312 L 460.308594 394.195312 L 463.769531 373.421875 C 464.011719 371.96875 463.488281 370.492188 462.382812 369.511719 C 457.574219 365.230469 455.398438 358.652344 456.710938 352.339844 L 458.730469 342.652344 L 462.15625 342.652344 C 464.117188 351.25 471.820312 357.683594 481.003906 357.683594 C 490.1875 357.683594 497.894531 351.25 499.855469 342.652344 L 506.78125 342.652344 Z M 511.855469 482.183594 L 544.433594 528.671875 L 528.257812 544.851562 L 528.257812 538.78125 L 534.460938 532.574219 C 536.140625 530.898438 536.140625 528.179688 534.460938 526.5 C 532.785156 524.824219 530.0625 524.824219 528.386719 526.5 L 524.660156 530.226562 L 491.636719 479.890625 C 489.914062 477.253906 488.53125 474.449219 487.5 471.511719 L 504.519531 471.511719 Z M 434.203125 396.335938 L 389.601562 444.90625 L 384.441406 439.746094 L 399.011719 425.171875 C 400.6875 423.496094 400.6875 420.777344 399.011719 419.101562 L 396.238281 416.328125 L 419.617188 392.9375 C 420.089844 392.46875 420.441406 391.894531 420.65625 391.257812 L 434.410156 349.988281 C 435.871094 345.601562 439.964844 342.652344 444.59375 342.652344 L 449.539062 342.652344 Z M 371.679688 440.359375 L 362.5625 431.246094 L 380.789062 413.027344 L 389.902344 422.136719 Z M 481.898438 312.582031 C 481.101562 312.582031 480.316406 312.261719 479.75 311.695312 C 479.183594 311.128906 478.859375 310.34375 478.859375 309.546875 L 478.859375 303.992188 C 478.859375 301.617188 476.9375 299.699219 474.566406 299.699219 L 461.679688 299.699219 C 459.308594 299.699219 457.382812 297.773438 457.382812 295.402344 C 457.382812 293.03125 459.308594 291.105469 461.679688 291.105469 L 474.566406 291.105469 C 479.300781 291.105469 483.15625 294.960938 483.15625 299.699219 L 483.15625 311.324219 C 483.15625 312.023438 482.59375 312.582031 481.898438 312.582031 Z M 533.265625 345.78125 C 532.070312 343.730469 529.4375 343.039062 527.390625 344.238281 C 525.339844 345.433594 524.648438 348.058594 525.84375 350.109375 L 545.929688 384.539062 C 548.414062 388.804688 549.734375 393.671875 549.734375 398.609375 L 549.734375 454.332031 L 536.847656 454.332031 L 536.847656 445.738281 C 536.847656 444.894531 536.59375 444.0625 536.125 443.359375 L 533.417969 439.296875 L 536.125 435.238281 C 536.59375 434.53125 536.847656 433.703125 536.847656 432.855469 L 536.847656 389.902344 C 536.847656 389.140625 536.644531 388.394531 536.257812 387.734375 L 515.371094 351.917969 L 515.371094 340.039062 C 518.183594 337.816406 519.996094 334.386719 519.996094 330.535156 C 519.996094 329.1875 519.769531 327.847656 519.320312 326.566406 C 518.167969 323.238281 518.261719 319.605469 519.574219 316.351562 L 520.167969 314.886719 C 521.289062 312.113281 521.855469 309.195312 521.855469 306.214844 C 521.855469 304.242188 521.601562 302.269531 521.109375 300.363281 C 520.492188 297.976562 519.492188 295.703125 518.125 293.597656 C 516.765625 291.515625 515.097656 289.679688 513.175781 288.148438 C 504.609375 281.300781 492.929688 280.132812 483.269531 284.910156 C 480.714844 283.398438 477.746094 282.515625 474.566406 282.515625 L 461.679688 282.515625 C 454.574219 282.515625 448.792969 288.296875 448.792969 295.402344 C 448.792969 299.207031 450.457031 302.621094 453.089844 304.980469 L 453.089844 316.878906 C 453.089844 326.351562 460.796875 334.0625 470.269531 334.0625 L 474.566406 334.0625 C 476.9375 334.0625 478.859375 332.140625 478.859375 329.765625 C 478.859375 327.390625 476.9375 325.46875 474.566406 325.46875 L 470.269531 325.46875 C 465.535156 325.46875 461.679688 321.613281 461.679688 316.878906 L 461.679688 308.289062 L 470.269531 308.289062 L 470.269531 309.546875 C 470.269531 312.652344 471.476562 315.570312 473.675781 317.769531 C 475.875 319.964844 478.792969 321.175781 481.898438 321.175781 C 482.324219 321.175781 482.738281 321.136719 483.15625 321.082031 L 483.15625 329.765625 C 483.15625 332.140625 485.078125 334.0625 487.449219 334.0625 C 489.824219 334.0625 491.746094 332.140625 491.746094 329.765625 L 491.746094 305.214844 C 492.972656 305.425781 494.128906 306.003906 495.011719 306.890625 C 496.621094 308.5 497.199219 310.839844 496.519531 313.011719 L 495.222656 317.214844 C 494.453125 319.699219 494.359375 322.347656 494.949219 324.890625 C 495.414062 326.871094 497.179688 328.207031 499.128906 328.207031 C 499.457031 328.207031 499.78125 328.171875 500.109375 328.097656 C 502.421875 327.554688 503.855469 325.246094 503.316406 322.9375 C 503.070312 321.882812 503.109375 320.789062 503.433594 319.757812 L 504.726562 315.558594 C 506.355469 310.339844 504.964844 304.6875 501.085938 300.816406 C 498.527344 298.257812 495.046875 296.742188 491.445312 296.554688 C 491.113281 294.773438 490.515625 293.085938 489.683594 291.542969 C 495.789062 289.5625 502.625 290.710938 507.820312 294.859375 C 509.027344 295.824219 510.078125 296.984375 510.929688 298.285156 C 511.78125 299.597656 512.40625 301.019531 512.789062 302.519531 C 513.105469 303.730469 513.265625 304.96875 513.265625 306.214844 C 513.265625 308.085938 512.90625 309.925781 512.207031 311.660156 L 511.613281 313.125 C 509.519531 318.320312 509.371094 324.09375 511.210938 329.386719 C 511.339844 329.765625 511.40625 330.152344 511.40625 330.535156 C 511.40625 332.230469 510.050781 334.0625 507.867188 334.0625 L 496.039062 334.0625 C 493.667969 334.0625 491.742188 335.980469 491.742188 338.355469 C 491.742188 344.277344 486.925781 349.09375 481.003906 349.09375 C 475.132812 349.09375 470.339844 344.355469 470.265625 338.5 C 470.269531 338.449219 470.269531 338.402344 470.269531 338.355469 C 470.269531 335.980469 468.347656 334.0625 465.972656 334.0625 L 444.59375 334.0625 C 436.253906 334.0625 428.890625 339.371094 426.257812 347.273438 L 412.824219 387.582031 L 390.164062 410.25 L 383.828125 403.914062 C 382.148438 402.238281 379.425781 402.238281 377.753906 403.914062 L 353.453125 428.210938 C 352.648438 429.015625 352.195312 430.109375 352.195312 431.246094 C 352.195312 432.386719 352.648438 433.480469 353.453125 434.285156 L 368.640625 449.472656 C 369.449219 450.277344 370.539062 450.730469 371.679688 450.730469 C 372.816406 450.730469 373.910156 450.277344 374.714844 449.472656 L 378.371094 445.820312 L 383.527344 450.980469 C 385.152344 452.605469 387.300781 453.496094 389.59375 453.496094 C 389.652344 453.496094 389.710938 453.496094 389.769531 453.492188 C 392.097656 453.445312 394.339844 452.433594 395.925781 450.71875 L 441.21875 401.398438 C 441.671875 400.902344 442.003906 400.3125 442.1875 399.667969 L 451.007812 368.78125 C 452.078125 370.734375 453.382812 372.566406 454.925781 374.21875 L 451.023438 397.621094 L 434.550781 466.214844 C 434.476562 466.539062 434.425781 466.875 434.425781 467.21875 C 434.425781 467.433594 434.457031 467.640625 434.488281 467.851562 L 446.371094 547.324219 L 435.019531 558.679688 C 433.789062 559.90625 433.425781 561.753906 434.085938 563.359375 C 434.753906 564.960938 436.316406 566.011719 438.054688 566.011719 L 478.859375 566.011719 C 480.121094 566.011719 481.324219 565.453125 482.136719 564.492188 C 482.953125 563.527344 483.304688 562.257812 483.097656 561.011719 L 480.953125 548.164062 L 470.804688 483.777344 C 470.4375 481.4375 468.234375 479.832031 465.894531 480.207031 C 463.554688 480.574219 461.953125 482.773438 462.320312 485.117188 L 472.476562 549.535156 L 473.789062 557.417969 L 448.425781 557.417969 L 452.71875 553.125 L 459.53125 553.125 C 461.90625 553.125 463.828125 551.203125 463.828125 548.828125 C 463.828125 546.453125 461.90625 544.535156 459.53125 544.535156 L 454.640625 544.535156 L 443.710938 471.511719 L 478.503906 471.511719 C 479.808594 476.144531 481.792969 480.535156 484.449219 484.59375 L 519.664062 538.265625 L 519.664062 555.226562 C 519.664062 556.960938 520.714844 558.527344 522.316406 559.195312 C 522.847656 559.414062 523.40625 559.519531 523.960938 559.519531 C 525.078125 559.519531 526.175781 559.085938 526.996094 558.261719 L 553.058594 532.203125 C 554.535156 530.726562 554.738281 528.40625 553.542969 526.699219 L 518.910156 477.285156 L 514.945312 471.511719 L 515.371094 471.511719 C 516.601562 471.511719 517.773438 470.984375 518.589844 470.0625 C 519.40625 469.132812 519.78125 467.910156 519.632812 466.683594 L 513.179688 415.074219 C 512.886719 412.71875 510.738281 411.042969 508.386719 411.34375 C 506.03125 411.636719 504.363281 413.785156 504.65625 416.136719 L 510.503906 462.921875 L 506.75 462.921875 C 506.746094 462.921875 506.742188 462.921875 506.734375 462.921875 L 444.171875 462.921875 L 458.621094 402.785156 L 506.78125 402.785156 C 508.042969 402.785156 509.242188 402.230469 510.054688 401.269531 C 510.875 400.304688 511.226562 399.03125 511.015625 397.785156 L 506.953125 373.390625 L 512.027344 363.238281 L 528.257812 391.0625 L 528.257812 431.554688 L 524.683594 436.914062 C 523.722656 438.359375 523.722656 440.238281 524.683594 441.679688 L 528.257812 447.039062 L 528.257812 454.332031 C 528.257812 459.066406 532.109375 462.921875 536.847656 462.921875 L 549.734375 462.921875 C 554.46875 462.921875 558.324219 459.066406 558.324219 454.332031 L 558.324219 398.609375 C 558.324219 392.148438 556.601562 385.785156 553.34375 380.210938 L 533.265625 345.78125 " fill-opacity="1" fill-rule="nonzero"/></g><path fill="#0d02b1" d="M 382.230469 278.222656 C 382.875 278.222656 383.527344 278.074219 384.144531 277.769531 L 392.734375 273.472656 C 394.859375 272.410156 395.71875 269.832031 394.65625 267.707031 C 393.597656 265.585938 391.011719 264.726562 388.894531 265.789062 L 380.304688 270.082031 C 378.179688 271.144531 377.320312 273.722656 378.382812 275.847656 C 379.136719 277.351562 380.65625 278.222656 382.230469 278.222656 " fill-opacity="1" fill-rule="nonzero"/><path fill="#0d02b1" d="M 384.144531 295.855469 C 382.027344 294.792969 379.441406 295.652344 378.382812 297.777344 C 377.320312 299.898438 378.179688 302.480469 380.304688 303.539062 L 388.894531 307.835938 C 389.511719 308.140625 390.164062 308.289062 390.816406 308.289062 C 392.386719 308.289062 393.90625 307.421875 394.65625 305.914062 C 395.71875 303.792969 394.859375 301.210938 392.734375 300.152344 L 384.144531 295.855469 " fill-opacity="1" fill-rule="nonzero"/><path fill="#0d02b1" d="M 382.222656 291.105469 L 390.816406 291.105469 C 393.1875 291.105469 395.109375 289.1875 395.109375 286.8125 C 395.109375 284.4375 393.1875 282.515625 390.816406 282.515625 L 382.222656 282.515625 C 379.855469 282.515625 377.929688 284.4375 377.929688 286.8125 C 377.929688 289.1875 379.855469 291.105469 382.222656 291.105469 " fill-opacity="1" fill-rule="nonzero"/><g clip-path="url(#831fd5c130)"><path fill="#0d02b1" d="M 301.496094 312.582031 C 300.699219 312.582031 299.914062 312.261719 299.347656 311.695312 C 298.78125 311.128906 298.457031 310.34375 298.457031 309.546875 L 298.457031 303.992188 C 298.457031 301.617188 296.535156 299.699219 294.164062 299.699219 L 287.09375 299.699219 C 282.035156 299.699219 277.832031 295.964844 277.09375 291.105469 L 294.164062 291.105469 C 298.898438 291.105469 302.753906 294.960938 302.753906 299.699219 L 302.753906 312.582031 Z M 307.046875 334.0625 C 309.421875 334.0625 311.34375 332.140625 311.34375 329.765625 L 311.34375 299.699219 C 311.34375 290.226562 303.632812 282.515625 294.164062 282.515625 L 272.6875 282.515625 C 270.3125 282.515625 268.390625 284.4375 268.390625 286.8125 L 268.390625 289.585938 C 268.390625 294.105469 270.003906 298.257812 272.6875 301.496094 L 272.6875 316.878906 C 272.6875 326.351562 280.394531 334.0625 289.867188 334.0625 L 291.949219 334.0625 C 294.316406 334.0625 296.242188 332.140625 296.242188 329.765625 C 296.242188 327.390625 294.316406 325.46875 291.949219 325.46875 L 289.867188 325.46875 C 285.132812 325.46875 281.277344 321.613281 281.277344 316.878906 L 281.277344 307.351562 C 283.109375 307.953125 285.058594 308.289062 287.09375 308.289062 L 289.867188 308.289062 L 289.867188 309.546875 C 289.867188 312.652344 291.074219 315.570312 293.273438 317.769531 C 295.472656 319.964844 298.390625 321.175781 301.496094 321.175781 L 302.753906 321.175781 L 302.753906 329.765625 C 302.753906 332.140625 304.675781 334.0625 307.046875 334.0625 " fill-opacity="1" fill-rule="nonzero"/></g><path fill="#0d02b1" d="M 394.648438 465.296875 C 393.585938 463.171875 391.003906 462.3125 388.886719 463.375 C 386.761719 464.4375 385.902344 467.015625 386.964844 469.136719 L 391.257812 477.730469 C 392.011719 479.234375 393.527344 480.101562 395.105469 480.101562 C 395.753906 480.101562 396.40625 479.957031 397.023438 479.648438 C 399.144531 478.589844 400.003906 476.007812 398.945312 473.886719 L 394.648438 465.296875 " fill-opacity="1" fill-rule="nonzero"/><path fill="#0d02b1" d="M 366.957031 463.375 C 364.832031 462.3125 362.253906 463.171875 361.191406 465.296875 L 356.898438 473.886719 C 355.835938 476.007812 356.695312 478.589844 358.820312 479.648438 C 359.433594 479.957031 360.089844 480.101562 360.734375 480.101562 C 362.3125 480.101562 363.832031 479.234375 364.582031 477.730469 L 368.878906 469.136719 C 369.9375 467.015625 369.078125 464.4375 366.957031 463.375 " fill-opacity="1" fill-rule="nonzero"/><path fill="#0d02b1" d="M 377.921875 462.921875 C 375.546875 462.921875 373.625 464.84375 373.625 467.21875 L 373.625 475.808594 C 373.625 478.183594 375.546875 480.101562 377.921875 480.101562 C 380.292969 480.101562 382.214844 478.183594 382.214844 475.808594 L 382.214844 467.21875 C 382.214844 464.84375 380.292969 462.921875 377.921875 462.921875 " fill-opacity="1" fill-rule="nonzero"/><g clip-path="url(#5e802c4e82)"><path fill="#0d02b1" d="M 561.007812 111.644531 L 518.054688 77.28125 C 517.292969 76.667969 516.34375 76.339844 515.371094 76.339844 L 442.351562 76.339844 L 442.351562 46.269531 C 442.351562 44.722656 441.519531 43.296875 440.171875 42.535156 C 438.828125 41.769531 437.175781 41.789062 435.84375 42.585938 L 392.890625 68.359375 C 391.597656 69.136719 390.804688 70.53125 390.804688 72.042969 L 390.804688 85.707031 L 352.753906 93.3125 L 319.707031 76.792969 C 317.925781 75.902344 315.761719 76.355469 314.484375 77.882812 L 271.53125 129.425781 C 270.890625 130.199219 270.539062 131.171875 270.539062 132.179688 L 270.539062 166.542969 C 270.539062 167.921875 271.199219 169.21875 272.320312 170.027344 C 273.441406 170.832031 274.882812 171.050781 276.191406 170.617188 L 299.449219 162.863281 L 314.75 178.167969 C 316.421875 179.847656 319.148438 179.847656 320.824219 178.167969 L 330.671875 168.320312 L 330.671875 188.019531 L 310.972656 188.019531 L 297.199219 174.242188 C 295.972656 173.011719 294.132812 172.648438 292.527344 173.308594 L 256.015625 188.339844 C 254.410156 189.003906 253.355469 190.574219 253.355469 192.3125 L 253.355469 218.085938 C 253.355469 219.714844 254.277344 221.199219 255.730469 221.929688 L 272.914062 230.519531 C 273.507812 230.816406 274.167969 230.972656 274.832031 230.972656 L 287.71875 230.972656 L 287.71875 243.859375 C 287.71875 245 288.171875 246.089844 288.976562 246.894531 L 314.75 272.667969 C 315.570312 273.492188 316.675781 273.925781 317.785156 273.925781 C 318.441406 273.925781 319.097656 273.777344 319.707031 273.472656 L 336.890625 264.882812 C 338.34375 264.152344 339.261719 262.667969 339.261719 261.039062 L 339.261719 245.636719 L 342.972656 241.929688 C 344.648438 240.25 344.648438 237.53125 342.972656 235.855469 C 341.296875 234.175781 338.570312 234.175781 336.898438 235.855469 L 331.929688 240.820312 C 331.125 241.625 330.671875 242.71875 330.671875 243.859375 L 330.671875 258.382812 L 318.632812 264.402344 L 296.308594 242.078125 L 296.308594 226.675781 C 296.308594 224.300781 294.390625 222.382812 292.015625 222.382812 L 275.847656 222.382812 L 261.949219 215.429688 L 261.949219 195.191406 L 293.152344 182.34375 L 306.160156 195.351562 C 306.964844 196.15625 308.054688 196.609375 309.195312 196.609375 L 334.96875 196.609375 C 337.34375 196.609375 339.261719 194.6875 339.261719 192.3125 L 339.261719 157.949219 C 339.261719 156.214844 338.214844 154.648438 336.613281 153.980469 C 335.003906 153.320312 333.160156 153.683594 331.929688 154.914062 L 317.785156 169.058594 L 303.640625 154.914062 C 302.492188 153.765625 300.789062 153.363281 299.246094 153.875 L 279.128906 160.582031 L 279.128906 133.734375 L 318.910156 85.996094 L 350.226562 101.65625 C 351.082031 102.085938 352.050781 102.214844 352.992188 102.027344 L 395.945312 93.4375 C 397.949219 93.039062 399.398438 91.273438 399.398438 89.222656 L 399.398438 74.476562 L 433.757812 53.855469 L 433.757812 80.632812 C 433.757812 83.007812 435.679688 84.929688 438.054688 84.929688 L 513.863281 84.929688 L 546.078125 110.703125 L 515.371094 110.703125 C 514.019531 110.703125 512.746094 111.339844 511.933594 112.421875 L 486.164062 146.785156 C 485.605469 147.527344 485.304688 148.433594 485.304688 149.359375 L 485.304688 179.425781 L 463.828125 179.425781 C 461.453125 179.425781 459.53125 181.347656 459.53125 183.722656 L 459.53125 200.902344 C 459.53125 202.046875 459.984375 203.136719 460.789062 203.941406 L 465.878906 209.027344 L 442.351562 226.675781 L 442.351562 209.496094 C 442.351562 208.355469 441.898438 207.261719 441.089844 206.457031 L 423.910156 189.277344 C 422.238281 187.597656 419.511719 187.597656 417.835938 189.277344 L 390.804688 216.308594 L 390.804688 200.902344 C 390.804688 199.761719 390.355469 198.671875 389.546875 197.867188 L 380.957031 189.277344 C 380.152344 188.472656 379.0625 188.019531 377.921875 188.019531 L 360.738281 188.019531 C 358.367188 188.019531 356.445312 189.9375 356.445312 192.3125 L 356.445312 216.308594 L 348.84375 223.90625 C 347.164062 225.585938 347.164062 228.304688 348.84375 229.980469 C 350.515625 231.660156 353.242188 231.660156 354.917969 229.980469 L 363.777344 221.121094 C 364.582031 220.316406 365.035156 219.226562 365.035156 218.085938 L 365.035156 196.609375 L 376.140625 196.609375 L 382.214844 202.683594 L 382.214844 226.675781 C 382.214844 228.414062 383.265625 229.976562 384.867188 230.644531 C 386.46875 231.308594 388.320312 230.941406 389.546875 229.714844 L 420.875 198.386719 L 433.757812 211.273438 L 433.757812 235.265625 C 433.757812 236.894531 434.679688 238.378906 436.132812 239.109375 C 437.589844 239.835938 439.328125 239.679688 440.628906 238.703125 L 474.992188 212.929688 C 475.992188 212.183594 476.613281 211.042969 476.699219 209.796875 C 476.789062 208.558594 476.335938 207.339844 475.453125 206.457031 L 468.121094 199.125 L 468.121094 188.019531 L 489.597656 188.019531 C 491.972656 188.019531 493.894531 186.097656 493.894531 183.722656 L 493.894531 150.789062 L 517.519531 119.292969 L 558.324219 119.292969 C 560.148438 119.292969 561.769531 118.136719 562.375 116.417969 C 562.980469 114.699219 562.429688 112.78125 561.007812 111.644531 " fill-opacity="1" fill-rule="nonzero"/></g><path fill="#0d02b1" d="M 533.910156 214.007812 L 508.136719 205.417969 C 506.800781 204.972656 505.328125 205.210938 504.203125 206.058594 L 469.839844 231.832031 C 468.757812 232.640625 468.121094 233.917969 468.121094 235.265625 L 468.121094 269.628906 C 468.121094 272.003906 470.042969 273.925781 472.417969 273.925781 L 515.371094 273.925781 C 515.722656 273.925781 516.070312 273.882812 516.410156 273.800781 L 525.144531 271.613281 C 527.445312 271.039062 528.847656 268.707031 528.273438 266.40625 C 527.695312 264.101562 525.359375 262.703125 523.0625 263.277344 L 514.839844 265.335938 L 476.710938 265.335938 L 476.710938 237.414062 L 507.554688 214.28125 L 528.257812 221.179688 L 528.257812 235.265625 C 528.257812 237.640625 530.175781 239.5625 532.550781 239.5625 L 539.363281 239.5625 L 545.4375 245.636719 L 545.4375 257.6875 L 540.226562 258.988281 C 537.925781 259.5625 536.523438 261.894531 537.097656 264.199219 C 537.675781 266.5 540.007812 267.898438 542.308594 267.324219 L 550.773438 265.207031 C 552.6875 264.730469 554.027344 263.011719 554.027344 261.039062 L 554.027344 243.859375 C 554.027344 242.71875 553.574219 241.625 552.769531 240.820312 L 544.179688 232.230469 C 543.375 231.425781 542.28125 230.972656 541.140625 230.972656 L 536.847656 230.972656 L 536.847656 218.085938 C 536.847656 216.234375 535.664062 214.59375 533.910156 214.007812 " fill-opacity="1" fill-rule="nonzero"/><path fill="#0d02b1" d="M 472.417969 153.65625 C 474.792969 153.65625 476.710938 151.734375 476.710938 149.359375 L 476.710938 142.199219 L 501.625 108.980469 C 503.046875 107.085938 502.664062 104.390625 500.765625 102.96875 C 498.867188 101.546875 496.175781 101.933594 494.753906 103.832031 L 468.980469 138.195312 C 468.425781 138.9375 468.121094 139.84375 468.121094 140.769531 L 468.121094 149.359375 C 468.121094 151.734375 470.042969 153.65625 472.417969 153.65625 " fill-opacity="1" fill-rule="nonzero"/><g clip-path="url(#4968a5910e)"><path fill="#0d02b1" d="M 259.9375 376.109375 L 245.71875 371.367188 L 251.449219 354.351562 C 253.800781 347.355469 260.34375 342.652344 267.722656 342.652344 L 281.785156 342.652344 C 283.746094 351.246094 291.4375 357.683594 300.613281 357.683594 C 309.796875 357.683594 317.484375 351.246094 319.449219 342.652344 L 333.324219 342.652344 C 336.425781 342.652344 339.488281 343.5 342.164062 345.097656 L 356.890625 353.933594 L 349.847656 368.910156 L 332.605469 360.285156 C 331.273438 359.617188 329.691406 359.691406 328.425781 360.472656 C 327.15625 361.253906 326.390625 362.640625 326.390625 364.128906 L 326.390625 411.378906 L 274.847656 411.378906 L 274.847656 357.683594 C 274.847656 355.574219 273.316406 353.78125 271.230469 353.445312 C 269.140625 353.113281 267.132812 354.335938 266.46875 356.339844 Z M 237.476562 444.105469 C 237.058594 445.371094 237.253906 446.765625 238.003906 447.867188 L 238.992188 449.3125 L 236.886719 450.273438 C 235.796875 450.769531 234.964844 451.695312 234.589844 452.832031 L 231.691406 461.601562 L 217.203125 456.089844 L 242.980469 379.511719 L 257.246094 384.265625 Z M 364.292969 358.378906 L 380.019531 367.8125 C 380.707031 368.222656 381.46875 368.421875 382.222656 368.421875 C 383.433594 368.421875 384.621094 367.914062 385.457031 366.957031 C 386.828125 365.390625 386.878906 363.066406 385.578125 361.445312 L 353.566406 321.429688 C 352.660156 320.296875 352.160156 318.867188 352.160156 317.402344 C 352.160156 317.398438 352.15625 317.398438 352.15625 317.394531 L 352.15625 291.105469 L 353.800781 291.105469 L 361.207031 305.914062 C 361.351562 306.207031 361.53125 306.488281 361.746094 306.746094 L 397.191406 349.289062 C 400.214844 352.914062 401.875 357.507812 401.875 362.226562 C 401.875 363.570312 401.746094 364.902344 401.484375 366.183594 C 400.246094 372.417969 396.253906 377.589844 390.550781 380.382812 C 384.84375 383.171875 378.3125 383.144531 372.628906 380.304688 L 357.535156 372.753906 Z M 343.566406 316.878906 L 334.976562 316.878906 L 334.976562 286.8125 L 343.566406 286.8125 Z M 347.695312 546.882812 L 336.628906 432.523438 C 336.402344 430.160156 334.3125 428.433594 331.9375 428.664062 C 329.578125 428.890625 327.847656 430.992188 328.074219 433.351562 L 338.839844 544.535156 L 326.464844 544.535156 C 324.09375 544.535156 322.167969 546.453125 322.167969 548.828125 C 322.167969 551.203125 324.09375 553.125 326.464844 553.125 L 341.789062 553.125 L 346.082031 557.417969 L 317.792969 557.417969 L 317.792969 548.828125 C 317.792969 548.691406 317.789062 548.550781 317.773438 548.414062 L 307.382812 441.03125 C 307.171875 438.828125 305.320312 437.148438 303.109375 437.148438 L 298.121094 437.148438 C 295.90625 437.148438 294.058594 438.828125 293.84375 441.03125 L 283.453125 548.414062 C 283.441406 548.550781 283.433594 548.691406 283.433594 548.828125 L 283.433594 557.417969 L 255.144531 557.417969 L 259.4375 553.125 L 270.539062 553.125 C 272.914062 553.125 274.832031 551.203125 274.832031 548.828125 C 274.832031 546.453125 272.914062 544.535156 270.539062 544.535156 L 262.390625 544.535156 L 274.449219 419.96875 L 330.679688 419.96875 C 330.679688 419.96875 330.679688 419.96875 330.683594 419.96875 C 333.054688 419.96875 334.980469 418.046875 334.980469 415.671875 L 334.980469 371.078125 L 368.785156 387.988281 C 376.878906 392.035156 386.1875 392.078125 394.320312 388.097656 C 402.453125 384.121094 408.140625 376.746094 409.914062 367.875 C 410.28125 366.039062 410.464844 364.140625 410.464844 362.226562 C 410.464844 355.503906 408.097656 348.957031 403.792969 343.789062 L 368.664062 301.628906 L 360.300781 284.890625 C 359.570312 283.433594 358.082031 282.515625 356.457031 282.515625 L 351.78125 282.515625 C 350.894531 280.019531 348.511719 278.222656 345.714844 278.222656 L 332.828125 278.222656 C 329.277344 278.222656 326.386719 281.109375 326.386719 284.664062 L 326.386719 319.027344 C 326.386719 322.578125 329.277344 325.46875 332.828125 325.46875 L 345.714844 325.46875 C 345.78125 325.46875 345.851562 325.460938 345.914062 325.457031 C 346.210938 325.921875 346.519531 326.371094 346.863281 326.800781 L 363.941406 348.144531 L 346.578125 337.730469 C 342.5625 335.332031 337.984375 334.0625 333.324219 334.0625 L 315.648438 334.0625 C 313.277344 334.0625 311.351562 335.980469 311.351562 338.355469 C 311.351562 344.277344 306.535156 349.09375 300.613281 349.09375 C 294.695312 349.09375 289.875 344.277344 289.875 338.355469 L 289.867188 338.355469 C 289.867188 335.980469 287.945312 334.0625 285.570312 334.0625 L 267.722656 334.0625 C 256.648438 334.0625 246.839844 341.113281 243.308594 351.609375 L 237.570312 368.652344 L 237.542969 368.640625 L 234.824219 376.796875 L 234.828125 376.796875 L 209.066406 453.332031 C 207.574219 457.710938 209.804688 462.449219 214.144531 464.113281 L 228.632812 469.628906 C 229.617188 470.007812 230.652344 470.191406 231.6875 470.191406 C 232.957031 470.191406 234.230469 469.910156 235.390625 469.355469 C 237.496094 468.355469 239.121094 466.507812 239.847656 464.300781 L 242.15625 457.308594 L 247.191406 455.019531 C 248.34375 454.496094 249.203125 453.488281 249.546875 452.265625 C 249.886719 451.046875 249.675781 449.738281 248.960938 448.6875 L 246.300781 444.785156 L 266.253906 384.378906 L 266.253906 415.453125 L 253.535156 546.882812 L 241.738281 558.679688 C 240.507812 559.90625 240.144531 561.753906 240.808594 563.359375 C 241.472656 564.960938 243.039062 566.011719 244.773438 566.011719 L 287.726562 566.011719 C 290.101562 566.011719 292.023438 564.089844 292.023438 561.714844 L 292.023438 549.035156 L 300.613281 460.261719 L 309.203125 549.035156 L 309.203125 561.714844 C 309.203125 564.089844 311.128906 566.011719 313.5 566.011719 L 356.453125 566.011719 C 358.195312 566.011719 359.757812 564.960938 360.421875 563.359375 C 361.085938 561.753906 360.71875 559.90625 359.488281 558.679688 L 347.695312 546.882812 " fill-opacity="1" fill-rule="nonzero"/></g><path fill="#0d02b1" d="M 468.121094 166.542969 C 468.121094 168.914062 470.042969 170.835938 472.417969 170.835938 C 474.792969 170.835938 476.710938 168.914062 476.710938 166.542969 L 476.710938 162.246094 C 476.710938 159.871094 474.792969 157.949219 472.417969 157.949219 C 470.042969 157.949219 468.121094 159.871094 468.121094 162.246094 L 468.121094 166.542969 " fill-opacity="1" fill-rule="nonzero"/><g clip-path="url(#572ea94a51)"><path fill="#0d02b1" d="M 506.78125 354.523438 L 498.640625 370.796875 C 498.234375 371.613281 498.097656 372.53125 498.246094 373.421875 L 501.707031 394.195312 L 460.308594 394.195312 L 463.769531 373.421875 C 464.011719 371.96875 463.488281 370.492188 462.382812 369.511719 C 457.574219 365.230469 455.398438 358.652344 456.710938 352.339844 L 458.730469 342.652344 L 462.15625 342.652344 C 464.117188 351.25 471.820312 357.683594 481.003906 357.683594 C 490.1875 357.683594 497.894531 351.25 499.855469 342.652344 L 506.78125 342.652344 Z M 511.855469 482.183594 L 544.433594 528.671875 L 528.257812 544.851562 L 528.257812 538.78125 L 534.460938 532.574219 C 536.140625 530.898438 536.140625 528.179688 534.460938 526.5 C 532.785156 524.824219 530.0625 524.824219 528.386719 526.5 L 524.660156 530.226562 L 491.636719 479.890625 C 489.914062 477.253906 488.53125 474.449219 487.5 471.511719 L 504.519531 471.511719 Z M 434.203125 396.335938 L 389.601562 444.90625 L 384.441406 439.746094 L 399.011719 425.171875 C 400.6875 423.496094 400.6875 420.777344 399.011719 419.101562 L 396.238281 416.328125 L 419.617188 392.9375 C 420.089844 392.46875 420.441406 391.894531 420.65625 391.257812 L 434.410156 349.988281 C 435.871094 345.601562 439.964844 342.652344 444.59375 342.652344 L 449.539062 342.652344 Z M 371.679688 440.359375 L 362.5625 431.246094 L 380.789062 413.027344 L 389.902344 422.136719 Z M 481.898438 312.582031 C 481.101562 312.582031 480.316406 312.261719 479.75 311.695312 C 479.183594 311.128906 478.859375 310.34375 478.859375 309.546875 L 478.859375 303.992188 C 478.859375 301.617188 476.9375 299.699219 474.566406 299.699219 L 461.679688 299.699219 C 459.308594 299.699219 457.382812 297.773438 457.382812 295.402344 C 457.382812 293.03125 459.308594 291.105469 461.679688 291.105469 L 474.566406 291.105469 C 479.300781 291.105469 483.15625 294.960938 483.15625 299.699219 L 483.15625 311.324219 C 483.15625 312.023438 482.59375 312.582031 481.898438 312.582031 Z M 533.265625 345.78125 C 532.070312 343.730469 529.4375 343.039062 527.390625 344.238281 C 525.339844 345.433594 524.648438 348.058594 525.84375 350.109375 L 545.929688 384.539062 C 548.414062 388.804688 549.734375 393.671875 549.734375 398.609375 L 549.734375 454.332031 L 536.847656 454.332031 L 536.847656 445.738281 C 536.847656 444.894531 536.59375 444.0625 536.125 443.359375 L 533.417969 439.296875 L 536.125 435.238281 C 536.59375 434.53125 536.847656 433.703125 536.847656 432.855469 L 536.847656 389.902344 C 536.847656 389.140625 536.644531 388.394531 536.257812 387.734375 L 515.371094 351.917969 L 515.371094 340.039062 C 518.183594 337.816406 519.996094 334.386719 519.996094 330.535156 C 519.996094 329.1875 519.769531 327.847656 519.320312 326.566406 C 518.167969 323.238281 518.261719 319.605469 519.574219 316.351562 L 520.167969 314.886719 C 521.289062 312.113281 521.855469 309.195312 521.855469 306.214844 C 521.855469 304.242188 521.601562 302.269531 521.109375 300.363281 C 520.492188 297.976562 519.492188 295.703125 518.125 293.597656 C 516.765625 291.515625 515.097656 289.679688 513.175781 288.148438 C 504.609375 281.300781 492.929688 280.132812 483.269531 284.910156 C 480.714844 283.398438 477.746094 282.515625 474.566406 282.515625 L 461.679688 282.515625 C 454.574219 282.515625 448.792969 288.296875 448.792969 295.402344 C 448.792969 299.207031 450.457031 302.621094 453.089844 304.980469 L 453.089844 316.878906 C 453.089844 326.351562 460.796875 334.0625 470.269531 334.0625 L 474.566406 334.0625 C 476.9375 334.0625 478.859375 332.140625 478.859375 329.765625 C 478.859375 327.390625 476.9375 325.46875 474.566406 325.46875 L 470.269531 325.46875 C 465.535156 325.46875 461.679688 321.613281 461.679688 316.878906 L 461.679688 308.289062 L 470.269531 308.289062 L 470.269531 309.546875 C 470.269531 312.652344 471.476562 315.570312 473.675781 317.769531 C 475.875 319.964844 478.792969 321.175781 481.898438 321.175781 C 482.324219 321.175781 482.738281 321.136719 483.15625 321.082031 L 483.15625 329.765625 C 483.15625 332.140625 485.078125 334.0625 487.449219 334.0625 C 489.824219 334.0625 491.746094 332.140625 491.746094 329.765625 L 491.746094 305.214844 C 492.972656 305.425781 494.128906 306.003906 495.011719 306.890625 C 496.621094 308.5 497.199219 310.839844 496.519531 313.011719 L 495.222656 317.214844 C 494.453125 319.699219 494.359375 322.347656 494.949219 324.890625 C 495.414062 326.871094 497.179688 328.207031 499.128906 328.207031 C 499.457031 328.207031 499.78125 328.171875 500.109375 328.097656 C 502.421875 327.554688 503.855469 325.246094 503.316406 322.9375 C 503.070312 321.882812 503.109375 320.789062 503.433594 319.757812 L 504.726562 315.558594 C 506.355469 310.339844 504.964844 304.6875 501.085938 300.816406 C 498.527344 298.257812 495.046875 296.742188 491.445312 296.554688 C 491.113281 294.773438 490.515625 293.085938 489.683594 291.542969 C 495.789062 289.5625 502.625 290.710938 507.820312 294.859375 C 509.027344 295.824219 510.078125 296.984375 510.929688 298.285156 C 511.78125 299.597656 512.40625 301.019531 512.789062 302.519531 C 513.105469 303.730469 513.265625 304.96875 513.265625 306.214844 C 513.265625 308.085938 512.90625 309.925781 512.207031 311.660156 L 511.613281 313.125 C 509.519531 318.320312 509.371094 324.09375 511.210938 329.386719 C 511.339844 329.765625 511.40625 330.152344 511.40625 330.535156 C 511.40625 332.230469 510.050781 334.0625 507.867188 334.0625 L 496.039062 334.0625 C 493.667969 334.0625 491.742188 335.980469 491.742188 338.355469 C 491.742188 344.277344 486.925781 349.09375 481.003906 349.09375 C 475.132812 349.09375 470.339844 344.355469 470.265625 338.5 C 470.269531 338.449219 470.269531 338.402344 470.269531 338.355469 C 470.269531 335.980469 468.347656 334.0625 465.972656 334.0625 L 444.59375 334.0625 C 436.253906 334.0625 428.890625 339.371094 426.257812 347.273438 L 412.824219 387.582031 L 390.164062 410.25 L 383.828125 403.914062 C 382.148438 402.238281 379.425781 402.238281 377.753906 403.914062 L 353.453125 428.210938 C 352.648438 429.015625 352.195312 430.109375 352.195312 431.246094 C 352.195312 432.386719 352.648438 433.480469 353.453125 434.285156 L 368.640625 449.472656 C 369.449219 450.277344 370.539062 450.730469 371.679688 450.730469 C 372.816406 450.730469 373.910156 450.277344 374.714844 449.472656 L 378.371094 445.820312 L 383.527344 450.980469 C 385.152344 452.605469 387.300781 453.496094 389.59375 453.496094 C 389.652344 453.496094 389.710938 453.496094 389.769531 453.492188 C 392.097656 453.445312 394.339844 452.433594 395.925781 450.71875 L 441.21875 401.398438 C 441.671875 400.902344 442.003906 400.3125 442.1875 399.667969 L 451.007812 368.78125 C 452.078125 370.734375 453.382812 372.566406 454.925781 374.21875 L 451.023438 397.621094 L 434.550781 466.214844 C 434.476562 466.539062 434.425781 466.875 434.425781 467.21875 C 434.425781 467.433594 434.457031 467.640625 434.488281 467.851562 L 446.371094 547.324219 L 435.019531 558.679688 C 433.789062 559.90625 433.425781 561.753906 434.085938 563.359375 C 434.753906 564.960938 436.316406 566.011719 438.054688 566.011719 L 478.859375 566.011719 C 480.121094 566.011719 481.324219 565.453125 482.136719 564.492188 C 482.953125 563.527344 483.304688 562.257812 483.097656 561.011719 L 480.953125 548.164062 L 470.804688 483.777344 C 470.4375 481.4375 468.234375 479.832031 465.894531 480.207031 C 463.554688 480.574219 461.953125 482.773438 462.320312 485.117188 L 472.476562 549.535156 L 473.789062 557.417969 L 448.425781 557.417969 L 452.71875 553.125 L 459.53125 553.125 C 461.90625 553.125 463.828125 551.203125 463.828125 548.828125 C 463.828125 546.453125 461.90625 544.535156 459.53125 544.535156 L 454.640625 544.535156 L 443.710938 471.511719 L 478.503906 471.511719 C 479.808594 476.144531 481.792969 480.535156 484.449219 484.59375 L 519.664062 538.265625 L 519.664062 555.226562 C 519.664062 556.960938 520.714844 558.527344 522.316406 559.195312 C 522.847656 559.414062 523.40625 559.519531 523.960938 559.519531 C 525.078125 559.519531 526.175781 559.085938 526.996094 558.261719 L 553.058594 532.203125 C 554.535156 530.726562 554.738281 528.40625 553.542969 526.699219 L 518.910156 477.285156 L 514.945312 471.511719 L 515.371094 471.511719 C 516.601562 471.511719 517.773438 470.984375 518.589844 470.0625 C 519.40625 469.132812 519.78125 467.910156 519.632812 466.683594 L 513.179688 415.074219 C 512.886719 412.71875 510.738281 411.042969 508.386719 411.34375 C 506.03125 411.636719 504.363281 413.785156 504.65625 416.136719 L 510.503906 462.921875 L 506.75 462.921875 C 506.746094 462.921875 506.742188 462.921875 506.734375 462.921875 L 444.171875 462.921875 L 458.621094 402.785156 L 506.78125 402.785156 C 508.042969 402.785156 509.242188 402.230469 510.054688 401.269531 C 510.875 400.304688 511.226562 399.03125 511.015625 397.785156 L 506.953125 373.390625 L 512.027344 363.238281 L 528.257812 391.0625 L 528.257812 431.554688 L 524.683594 436.914062 C 523.722656 438.359375 523.722656 440.238281 524.683594 441.679688 L 528.257812 447.039062 L 528.257812 454.332031 C 528.257812 459.066406 532.109375 462.921875 536.847656 462.921875 L 549.734375 462.921875 C 554.46875 462.921875 558.324219 459.066406 558.324219 454.332031 L 558.324219 398.609375 C 558.324219 392.148438 556.601562 385.785156 553.34375 380.210938 L 533.265625 345.78125 " fill-opacity="1" fill-rule="nonzero"/></g></svg>