<svg xmlns="http://www.w3.org/2000/svg" xmlns:xlink="http://www.w3.org/1999/xlink" width="810" zoomAndPan="magnify" viewBox="0 0 607.5 607.499986" height="810" preserveAspectRatio="xMidYMid meet" version="1.0"><defs><clipPath id="58140277e1"><path d="M 52.203125 60.75 L 555.453125 60.75 L 555.453125 565.5 L 52.203125 565.5 Z M 52.203125 60.75 " clip-rule="nonzero"/></clipPath><clipPath id="b498968b44"><path d="M 269.34375 60.75 L 555.09375 60.75 L 555.09375 565.5 L 269.34375 565.5 Z M 269.34375 60.75 " clip-rule="nonzero"/></clipPath></defs><g clip-path="url(#58140277e1)"><path fill="#0d02b1" d="M 529.757812 112.070312 L 290.078125 112.070312 L 290.078125 86.410156 L 371.398438 86.410156 L 371.398438 90.6875 C 371.398438 97.761719 377.15625 103.515625 384.238281 103.515625 L 435.597656 103.515625 C 442.679688 103.515625 448.4375 97.761719 448.4375 90.6875 L 448.4375 86.410156 L 529.757812 86.410156 Z M 417.207031 326.84375 C 417.207031 330.679688 415.820312 333.898438 413.046875 336.503906 C 410.269531 339.113281 406.761719 340.417969 402.523438 340.417969 C 398.277344 340.417969 394.851562 339.113281 392.242188 336.503906 C 389.628906 333.898438 388.324219 330.679688 388.324219 326.84375 C 388.324219 323.015625 389.628906 319.714844 392.242188 316.9375 C 394.851562 314.167969 398.277344 312.785156 402.523438 312.785156 C 406.761719 312.785156 410.269531 314.167969 413.046875 316.9375 C 415.820312 319.714844 417.207031 323.015625 417.207031 326.84375 Z M 416.476562 271.207031 C 413.371094 275.285156 411.824219 281.15625 411.824219 288.816406 L 411.824219 298.355469 L 392.730469 298.355469 L 392.730469 287.347656 C 392.730469 277.074219 394.445312 269.210938 397.871094 263.75 C 401.300781 258.289062 407.496094 253.109375 416.476562 248.21875 C 425.445312 243.324219 431.484375 239.050781 434.585938 235.378906 C 437.683594 231.710938 439.234375 226.777344 439.234375 220.582031 C 439.234375 214.386719 436.667969 209.207031 431.527344 205.054688 C 426.386719 200.894531 419.246094 198.816406 410.109375 198.816406 C 391.015625 198.816406 380.082031 206.320312 377.3125 221.316406 L 356.753906 221.316406 C 357.894531 209.25 362.871094 199.546875 371.683594 192.214844 C 380.492188 184.875 392.855469 181.207031 408.765625 181.207031 C 424.671875 181.207031 437.238281 185.117188 446.457031 192.945312 C 455.671875 200.773438 460.285156 210.3125 460.285156 221.5625 C 460.285156 230.039062 458.164062 237.089844 453.921875 242.714844 C 449.675781 248.339844 442.824219 253.761719 433.363281 258.980469 C 429.28125 261.261719 425.855469 263.300781 423.085938 265.09375 C 420.304688 266.890625 418.101562 268.925781 416.476562 271.207031 Z M 529.757812 531.179688 L 290.078125 531.179688 L 290.078125 257.476562 L 294.359375 257.476562 C 297.789062 257.476562 300.898438 256.117188 303.207031 253.921875 C 303.019531 256.507812 302.917969 259.117188 302.917969 261.75 C 302.917969 320.707031 350.917969 368.667969 409.917969 368.667969 C 468.917969 368.667969 516.917969 320.707031 516.917969 261.75 C 516.917969 202.796875 468.917969 154.835938 409.917969 154.835938 C 359.371094 154.835938 316.902344 190.042969 305.769531 237.199219 C 305.011719 236.519531 304.015625 236.09375 302.917969 236.09375 L 290.078125 236.09375 L 290.078125 120.621094 L 529.757812 120.621094 Z M 268.675781 248.921875 C 266.3125 248.921875 264.398438 250.835938 264.398438 253.199219 L 264.398438 257.476562 C 264.398438 266.90625 256.714844 274.582031 247.277344 274.582031 L 148.511719 274.582031 C 136.636719 274.582031 125.222656 268.964844 117.976562 259.558594 L 105.546875 243.410156 L 131.75 221.1875 L 149.761719 243.082031 C 150.570312 244.074219 151.789062 244.644531 153.066406 244.644531 L 208.285156 244.644531 C 208.289062 244.644531 208.292969 244.644531 208.300781 244.644531 C 208.304688 244.644531 208.3125 244.644531 208.320312 244.644531 L 298.636719 244.644531 C 298.636719 247.003906 296.71875 248.921875 294.359375 248.921875 Z M 187.355469 291.6875 L 84.636719 291.6875 L 84.636719 230.277344 L 111.195312 264.777344 C 120.046875 276.273438 133.996094 283.136719 148.511719 283.136719 L 187.355469 283.136719 Z M 201.128906 236.09375 L 195.917969 236.09375 L 195.917969 226.417969 Z M 70.667969 198.101562 C 66.800781 193.082031 66.167969 186.699219 68.96875 181.011719 C 71.765625 175.332031 77.222656 171.941406 83.558594 171.941406 L 127.4375 171.941406 L 127.4375 176.21875 C 127.4375 179.632812 128.765625 182.851562 131.207031 185.308594 C 133.640625 187.722656 136.863281 189.050781 140.277344 189.050781 C 147.359375 189.050781 153.117188 183.292969 153.117188 176.21875 L 153.117188 171.941406 L 194.332031 171.941406 C 204.308594 171.941406 213.566406 177.320312 218.5 185.980469 L 237.132812 218.660156 L 210.25 234.972656 L 195.40625 207.429688 C 194.28125 205.355469 191.691406 204.574219 189.609375 205.691406 C 188.171875 206.464844 187.378906 207.9375 187.378906 209.460938 L 187.355469 209.460938 L 187.355469 236.09375 L 155.089844 236.09375 L 117.675781 190.609375 C 116.175781 188.785156 113.480469 188.523438 111.65625 190.023438 C 109.828125 191.523438 109.566406 194.214844 111.066406 196.039062 L 126.3125 214.578125 L 100.324219 236.621094 Z M 131.71875 133.453125 C 133.210938 133.453125 134.613281 134.246094 135.386719 135.519531 C 136.042969 136.605469 137.152344 137.339844 138.410156 137.53125 C 139.667969 137.722656 140.941406 137.339844 141.890625 136.5 C 142.144531 136.273438 142.386719 136.046875 142.628906 135.804688 C 145.609375 132.820312 147.59375 129.113281 148.414062 125.074219 L 157.398438 125.015625 L 157.398438 142.007812 C 157.398438 146.722656 153.554688 150.558594 148.835938 150.558594 C 148.054688 150.558594 147.269531 150.488281 146.507812 150.351562 C 144.179688 149.925781 141.953125 151.464844 141.527344 153.789062 C 141.128906 155.96875 142.472656 158.042969 144.558594 158.644531 L 144.558594 176.21875 C 144.558594 178.578125 142.636719 180.496094 140.277344 180.496094 C 139.136719 180.496094 138.054688 180.050781 137.257812 179.257812 C 136.445312 178.441406 135.996094 177.359375 135.996094 176.21875 L 135.996094 146.28125 C 135.996094 143.917969 134.082031 142.007812 131.71875 142.007812 C 129.355469 142.007812 127.4375 140.085938 127.4375 137.730469 C 127.4375 135.375 129.355469 133.453125 131.71875 133.453125 Z M 247.074219 236.09375 L 224.894531 236.09375 L 241.371094 226.09375 Z M 264.398438 234.984375 L 264.398438 236.09375 L 263.488281 236.09375 Z M 392.796875 77.855469 L 427.039062 77.855469 C 429.402344 77.855469 431.316406 79.769531 431.316406 82.132812 C 431.316406 84.496094 429.402344 86.410156 427.039062 86.410156 L 392.796875 86.410156 C 390.433594 86.410156 388.519531 84.496094 388.519531 82.132812 C 388.519531 79.769531 390.433594 77.855469 392.796875 77.855469 Z M 546.878906 60.75 L 272.957031 60.75 C 268.238281 60.75 264.398438 64.589844 264.398438 69.304688 L 264.398438 221.507812 L 255.078125 232.851562 L 225.941406 181.75 C 219.492188 170.421875 207.382812 163.390625 194.332031 163.390625 L 153.117188 163.390625 L 153.117188 158.546875 C 160.488281 156.644531 165.957031 149.957031 165.957031 142.007812 L 165.957031 124.410156 C 173.324219 122.484375 178.796875 115.78125 178.796875 107.835938 L 178.796875 99.238281 C 178.796875 96.875 176.882812 94.964844 174.515625 94.964844 L 138.136719 94.964844 C 127.515625 94.964844 118.875 103.59375 118.875 114.207031 L 118.875 137.730469 C 118.875 143.304688 122.453125 148.0625 127.4375 149.824219 L 127.4375 163.390625 L 83.558594 163.390625 C 74.027344 163.390625 65.496094 168.699219 61.289062 177.234375 C 57.078125 185.777344 58.074219 195.769531 63.878906 203.316406 L 76.078125 219.15625 L 76.078125 295.964844 C 76.078125 296.480469 76.179688 296.96875 76.347656 297.421875 L 93.097656 406.839844 L 52.851562 540.109375 C 52.238281 542.390625 53.589844 544.730469 55.875 545.347656 L 130.277344 565.316406 C 130.648438 565.414062 131.019531 565.464844 131.386719 565.464844 C 132.839844 565.464844 134.230469 564.71875 135.023438 563.445312 C 136.019531 561.84375 135.847656 559.78125 134.605469 558.363281 L 115.789062 536.949219 L 150.335938 417.378906 C 152.21875 410.875 152.667969 403.902344 151.644531 397.214844 L 143.347656 343.019531 L 145.609375 343.019531 L 161.675781 399.203125 L 161.675781 561.117188 C 161.675781 563.480469 163.589844 565.394531 165.957031 565.394531 L 242.996094 565.394531 C 244.882812 565.394531 246.546875 564.160156 247.09375 562.355469 C 247.640625 560.550781 246.941406 558.601562 245.371094 557.558594 L 221.597656 541.722656 L 221.597656 403.882812 C 221.597656 400.03125 221.121094 396.183594 220.183594 392.445312 L 195.917969 295.699219 L 195.917969 283.136719 L 247.277344 283.136719 C 253.847656 283.136719 259.851562 280.652344 264.398438 276.582031 L 264.398438 556.839844 C 264.398438 561.554688 268.238281 565.394531 272.957031 565.394531 L 546.878906 565.394531 C 551.597656 565.394531 555.4375 561.554688 555.4375 556.839844 L 555.4375 69.304688 C 555.4375 64.589844 551.597656 60.75 546.878906 60.75 " fill-opacity="1" fill-rule="nonzero"/></g><path fill="#0d02b1" d="M 461.277344 445.648438 C 454.199219 445.648438 448.4375 439.890625 448.4375 432.816406 C 448.4375 425.742188 454.199219 419.988281 461.277344 419.988281 C 468.359375 419.988281 474.117188 425.742188 474.117188 432.816406 C 474.117188 439.890625 468.359375 445.648438 461.277344 445.648438 Z M 409.917969 445.648438 C 402.835938 445.648438 397.078125 439.890625 397.078125 432.816406 C 397.078125 425.742188 402.835938 419.988281 409.917969 419.988281 C 417 419.988281 422.757812 425.742188 422.757812 432.816406 C 422.757812 439.890625 417 445.648438 409.917969 445.648438 Z M 358.558594 445.648438 C 351.476562 445.648438 345.71875 439.890625 345.71875 432.816406 C 345.71875 425.742188 351.476562 419.988281 358.558594 419.988281 C 365.636719 419.988281 371.398438 425.742188 371.398438 432.816406 C 371.398438 439.890625 365.636719 445.648438 358.558594 445.648438 Z M 495.519531 402.878906 L 324.316406 402.878906 C 321.953125 402.878906 320.039062 404.792969 320.039062 407.15625 L 320.039062 458.476562 C 320.039062 460.839844 321.953125 462.753906 324.316406 462.753906 L 495.519531 462.753906 C 497.882812 462.753906 499.796875 460.839844 499.796875 458.476562 L 499.796875 407.15625 C 499.796875 404.792969 497.882812 402.878906 495.519531 402.878906 " fill-opacity="1" fill-rule="nonzero"/><g clip-path="url(#b498968b44)"><path fill="#ffffff" d="M 529.757812 112.070312 L 290.078125 112.070312 L 290.078125 86.410156 L 371.398438 86.410156 L 371.398438 90.6875 C 371.398438 97.761719 377.15625 103.515625 384.238281 103.515625 L 435.597656 103.515625 C 442.679688 103.515625 448.4375 97.761719 448.4375 90.6875 L 448.4375 86.410156 L 529.757812 86.410156 Z M 417.207031 326.84375 C 417.207031 330.679688 415.820312 333.898438 413.046875 336.503906 C 410.269531 339.113281 406.761719 340.417969 402.523438 340.417969 C 398.277344 340.417969 394.851562 339.113281 392.242188 336.503906 C 389.628906 333.898438 388.324219 330.679688 388.324219 326.84375 C 388.324219 323.015625 389.628906 319.714844 392.242188 316.9375 C 394.851562 314.167969 398.277344 312.785156 402.523438 312.785156 C 406.761719 312.785156 410.269531 314.167969 413.046875 316.9375 C 415.820312 319.714844 417.207031 323.015625 417.207031 326.84375 Z M 416.476562 271.207031 C 413.371094 275.285156 411.824219 281.15625 411.824219 288.816406 L 411.824219 298.355469 L 392.730469 298.355469 L 392.730469 287.347656 C 392.730469 277.074219 394.445312 269.210938 397.871094 263.75 C 401.300781 258.289062 407.496094 253.109375 416.476562 248.21875 C 425.445312 243.324219 431.484375 239.050781 434.585938 235.378906 C 437.683594 231.710938 439.234375 226.777344 439.234375 220.582031 C 439.234375 214.386719 436.667969 209.207031 431.527344 205.054688 C 426.386719 200.894531 419.246094 198.816406 410.109375 198.816406 C 391.015625 198.816406 380.082031 206.320312 377.3125 221.316406 L 356.753906 221.316406 C 357.894531 209.25 362.871094 199.546875 371.683594 192.214844 C 380.492188 184.875 392.855469 181.207031 408.765625 181.207031 C 424.671875 181.207031 437.238281 185.117188 446.457031 192.945312 C 455.671875 200.773438 460.285156 210.3125 460.285156 221.5625 C 460.285156 230.039062 458.164062 237.089844 453.921875 242.714844 C 449.675781 248.339844 442.824219 253.761719 433.363281 258.980469 C 429.28125 261.261719 425.855469 263.300781 423.085938 265.09375 C 420.304688 266.890625 418.101562 268.925781 416.476562 271.207031 Z M 529.757812 531.179688 L 290.078125 531.179688 L 290.078125 257.476562 L 294.359375 257.476562 C 297.789062 257.476562 300.898438 256.117188 303.207031 253.921875 C 303.019531 256.507812 302.917969 259.117188 302.917969 261.75 C 302.917969 320.707031 350.917969 368.667969 409.917969 368.667969 C 468.917969 368.667969 516.917969 320.707031 516.917969 261.75 C 516.917969 202.796875 468.917969 154.835938 409.917969 154.835938 C 359.371094 154.835938 316.902344 190.042969 305.769531 237.199219 C 305.011719 236.519531 304.015625 236.09375 302.917969 236.09375 L 290.078125 236.09375 L 290.078125 120.621094 L 529.757812 120.621094 Z M 268.675781 248.921875 C 266.3125 248.921875 264.398438 250.835938 264.398438 253.199219 L 264.398438 257.476562 C 264.398438 266.90625 256.714844 274.582031 247.277344 274.582031 L 148.511719 274.582031 C 136.636719 274.582031 125.222656 268.964844 117.976562 259.558594 L 105.546875 243.410156 L 131.75 221.1875 L 149.761719 243.082031 C 150.570312 244.074219 151.789062 244.644531 153.066406 244.644531 L 208.285156 244.644531 C 208.289062 244.644531 208.292969 244.644531 208.300781 244.644531 C 208.304688 244.644531 208.3125 244.644531 208.320312 244.644531 L 298.636719 244.644531 C 298.636719 247.003906 296.71875 248.921875 294.359375 248.921875 Z M 187.355469 291.6875 L 84.636719 291.6875 L 84.636719 230.277344 L 111.195312 264.777344 C 120.046875 276.273438 133.996094 283.136719 148.511719 283.136719 L 187.355469 283.136719 Z M 201.128906 236.09375 L 195.917969 236.09375 L 195.917969 226.417969 Z M 70.667969 198.101562 C 66.800781 193.082031 66.167969 186.699219 68.96875 181.011719 C 71.765625 175.332031 77.222656 171.941406 83.558594 171.941406 L 127.4375 171.941406 L 127.4375 176.21875 C 127.4375 179.632812 128.765625 182.851562 131.207031 185.308594 C 133.640625 187.722656 136.863281 189.050781 140.277344 189.050781 C 147.359375 189.050781 153.117188 183.292969 153.117188 176.21875 L 153.117188 171.941406 L 194.332031 171.941406 C 204.308594 171.941406 213.566406 177.320312 218.5 185.980469 L 237.132812 218.660156 L 210.25 234.972656 L 195.40625 207.429688 C 194.28125 205.355469 191.691406 204.574219 189.609375 205.691406 C 188.171875 206.464844 187.378906 207.9375 187.378906 209.460938 L 187.355469 209.460938 L 187.355469 236.09375 L 155.089844 236.09375 L 117.675781 190.609375 C 116.175781 188.785156 113.480469 188.523438 111.65625 190.023438 C 109.828125 191.523438 109.566406 194.214844 111.066406 196.039062 L 126.3125 214.578125 L 100.324219 236.621094 Z M 131.71875 133.453125 C 133.210938 133.453125 134.613281 134.246094 135.386719 135.519531 C 136.042969 136.605469 137.152344 137.339844 138.410156 137.53125 C 139.667969 137.722656 140.941406 137.339844 141.890625 136.5 C 142.144531 136.273438 142.386719 136.046875 142.628906 135.804688 C 145.609375 132.820312 147.59375 129.113281 148.414062 125.074219 L 157.398438 125.015625 L 157.398438 142.007812 C 157.398438 146.722656 153.554688 150.558594 148.835938 150.558594 C 148.054688 150.558594 147.269531 150.488281 146.507812 150.351562 C 144.179688 149.925781 141.953125 151.464844 141.527344 153.789062 C 141.128906 155.96875 142.472656 158.042969 144.558594 158.644531 L 144.558594 176.21875 C 144.558594 178.578125 142.636719 180.496094 140.277344 180.496094 C 139.136719 180.496094 138.054688 180.050781 137.257812 179.257812 C 136.445312 178.441406 135.996094 177.359375 135.996094 176.21875 L 135.996094 146.28125 C 135.996094 143.917969 134.082031 142.007812 131.71875 142.007812 C 129.355469 142.007812 127.4375 140.085938 127.4375 137.730469 C 127.4375 135.375 129.355469 133.453125 131.71875 133.453125 Z M 247.074219 236.09375 L 224.894531 236.09375 L 241.371094 226.09375 Z M 264.398438 234.984375 L 264.398438 236.09375 L 263.488281 236.09375 Z M 392.796875 77.855469 L 427.039062 77.855469 C 429.402344 77.855469 431.316406 79.769531 431.316406 82.132812 C 431.316406 84.496094 429.402344 86.410156 427.039062 86.410156 L 392.796875 86.410156 C 390.433594 86.410156 388.519531 84.496094 388.519531 82.132812 C 388.519531 79.769531 390.433594 77.855469 392.796875 77.855469 Z M 546.878906 60.75 L 272.957031 60.75 C 268.238281 60.75 264.398438 64.589844 264.398438 69.304688 L 264.398438 221.507812 L 255.078125 232.851562 L 225.941406 181.75 C 219.492188 170.421875 207.382812 163.390625 194.332031 163.390625 L 153.117188 163.390625 L 153.117188 158.546875 C 160.488281 156.644531 165.957031 149.957031 165.957031 142.007812 L 165.957031 124.410156 C 173.324219 122.484375 178.796875 115.78125 178.796875 107.835938 L 178.796875 99.238281 C 178.796875 96.875 176.882812 94.964844 174.515625 94.964844 L 138.136719 94.964844 C 127.515625 94.964844 118.875 103.59375 118.875 114.207031 L 118.875 137.730469 C 118.875 143.304688 122.453125 148.0625 127.4375 149.824219 L 127.4375 163.390625 L 83.558594 163.390625 C 74.027344 163.390625 65.496094 168.699219 61.289062 177.234375 C 57.078125 185.777344 58.074219 195.769531 63.878906 203.316406 L 76.078125 219.15625 L 76.078125 295.964844 C 76.078125 296.480469 76.179688 296.96875 76.347656 297.421875 L 93.097656 406.839844 L 52.851562 540.109375 C 52.238281 542.390625 53.589844 544.730469 55.875 545.347656 L 130.277344 565.316406 C 130.648438 565.414062 131.019531 565.464844 131.386719 565.464844 C 132.839844 565.464844 134.230469 564.71875 135.023438 563.445312 C 136.019531 561.84375 135.847656 559.78125 134.605469 558.363281 L 115.789062 536.949219 L 150.335938 417.378906 C 152.21875 410.875 152.667969 403.902344 151.644531 397.214844 L 143.347656 343.019531 L 145.609375 343.019531 L 161.675781 399.203125 L 161.675781 561.117188 C 161.675781 563.480469 163.589844 565.394531 165.957031 565.394531 L 242.996094 565.394531 C 244.882812 565.394531 246.546875 564.160156 247.09375 562.355469 C 247.640625 560.550781 246.941406 558.601562 245.371094 557.558594 L 221.597656 541.722656 L 221.597656 403.882812 C 221.597656 400.03125 221.121094 396.183594 220.183594 392.445312 L 195.917969 295.699219 L 195.917969 283.136719 L 247.277344 283.136719 C 253.847656 283.136719 259.851562 280.652344 264.398438 276.582031 L 264.398438 556.839844 C 264.398438 561.554688 268.238281 565.394531 272.957031 565.394531 L 546.878906 565.394531 C 551.597656 565.394531 555.4375 561.554688 555.4375 556.839844 L 555.4375 69.304688 C 555.4375 64.589844 551.597656 60.75 546.878906 60.75 " fill-opacity="1" fill-rule="nonzero"/></g><path fill="#ffffff" d="M 461.277344 445.648438 C 454.199219 445.648438 448.4375 439.890625 448.4375 432.816406 C 448.4375 425.742188 454.199219 419.988281 461.277344 419.988281 C 468.359375 419.988281 474.117188 425.742188 474.117188 432.816406 C 474.117188 439.890625 468.359375 445.648438 461.277344 445.648438 Z M 409.917969 445.648438 C 402.835938 445.648438 397.078125 439.890625 397.078125 432.816406 C 397.078125 425.742188 402.835938 419.988281 409.917969 419.988281 C 417 419.988281 422.757812 425.742188 422.757812 432.816406 C 422.757812 439.890625 417 445.648438 409.917969 445.648438 Z M 358.558594 445.648438 C 351.476562 445.648438 345.71875 439.890625 345.71875 432.816406 C 345.71875 425.742188 351.476562 419.988281 358.558594 419.988281 C 365.636719 419.988281 371.398438 425.742188 371.398438 432.816406 C 371.398438 439.890625 365.636719 445.648438 358.558594 445.648438 Z M 495.519531 402.878906 L 324.316406 402.878906 C 321.953125 402.878906 320.039062 404.792969 320.039062 407.15625 L 320.039062 458.476562 C 320.039062 460.839844 321.953125 462.753906 324.316406 462.753906 L 495.519531 462.753906 C 497.882812 462.753906 499.796875 460.839844 499.796875 458.476562 L 499.796875 407.15625 C 499.796875 404.792969 497.882812 402.878906 495.519531 402.878906 " fill-opacity="1" fill-rule="nonzero"/></svg>