<svg xmlns="http://www.w3.org/2000/svg" xmlns:xlink="http://www.w3.org/1999/xlink" width="1080" zoomAndPan="magnify" viewBox="0 0 810 809.999993" height="1080" preserveAspectRatio="xMidYMid meet" version="1.0"><defs><clipPath id="c0a1cf7e64"><path d="M 391.648438 473 L 457 473 L 457 485 L 391.648438 485 Z M 391.648438 473 " clip-rule="nonzero"/></clipPath><clipPath id="c66d4c2ae5"><path d="M 391.648438 267 L 546 267 L 546 392 L 391.648438 392 Z M 391.648438 267 " clip-rule="nonzero"/></clipPath><clipPath id="fd1ff5c981"><path d="M 391.648438 428 L 457 428 L 457 439 L 391.648438 439 Z M 391.648438 428 " clip-rule="nonzero"/></clipPath><clipPath id="4fbc29aed4"><path d="M 391.648438 449 L 399 449 L 399 463 L 391.648438 463 Z M 391.648438 449 " clip-rule="nonzero"/></clipPath><clipPath id="e6ba8b0846"><path d="M 391.648438 504 L 462 504 L 462 543 L 391.648438 543 Z M 391.648438 504 " clip-rule="nonzero"/></clipPath><clipPath id="db31adc9e2"><path d="M 391.648438 81 L 729 81 L 729 729 L 391.648438 729 Z M 391.648438 81 " clip-rule="nonzero"/></clipPath></defs><path fill="#0d02b1" d="M 451.3125 484.304688 L 297.609375 484.304688 C 294.660156 484.304688 292.273438 481.914062 292.273438 478.964844 C 292.273438 476.019531 294.660156 473.628906 297.609375 473.628906 L 451.3125 473.628906 C 454.261719 473.628906 456.648438 476.019531 456.648438 478.964844 C 456.648438 481.914062 454.261719 484.304688 451.3125 484.304688 " fill-opacity="1" fill-rule="nonzero"/><path fill="#0d02b1" d="M 243.226562 391.53125 C 240.277344 391.53125 237.890625 389.144531 237.890625 386.195312 L 237.890625 286.695312 C 237.890625 276.246094 246.394531 267.746094 256.84375 267.746094 L 526.277344 267.746094 C 536.726562 267.746094 545.230469 276.246094 545.230469 286.695312 L 545.230469 347.417969 C 545.230469 350.367188 542.839844 352.753906 539.890625 352.753906 C 536.945312 352.753906 534.554688 350.367188 534.554688 347.417969 L 534.554688 286.695312 C 534.554688 282.128906 530.839844 278.414062 526.277344 278.414062 L 256.84375 278.414062 C 252.277344 278.414062 248.5625 282.128906 248.5625 286.695312 L 248.5625 386.195312 C 248.5625 389.144531 246.175781 391.53125 243.226562 391.53125 " fill-opacity="1" fill-rule="nonzero"/><path fill="#0d02b1" d="M 451.3125 438.855469 L 297.609375 438.855469 C 294.660156 438.855469 292.273438 436.46875 292.273438 433.519531 C 292.273438 430.574219 294.660156 428.183594 297.609375 428.183594 L 451.3125 428.183594 C 454.261719 428.183594 456.648438 430.574219 456.648438 433.519531 C 456.648438 436.46875 454.261719 438.855469 451.3125 438.855469 " fill-opacity="1" fill-rule="nonzero"/><path fill="#0d02b1" d="M 398.140625 456.242188 C 398.140625 459.875 395.191406 462.820312 391.558594 462.820312 C 387.925781 462.820312 384.980469 459.875 384.980469 456.242188 C 384.980469 452.609375 387.925781 449.664062 391.558594 449.664062 C 395.191406 449.664062 398.140625 452.609375 398.140625 456.242188 " fill-opacity="1" fill-rule="nonzero"/><path fill="#0d02b1" d="M 369.695312 513.429688 C 366.746094 513.429688 364.359375 511.039062 364.359375 508.09375 L 364.359375 478.964844 C 364.359375 476.019531 366.746094 473.628906 369.695312 473.628906 C 372.640625 473.628906 375.03125 476.019531 375.03125 478.964844 L 375.03125 508.09375 C 375.03125 511.039062 372.640625 513.429688 369.695312 513.429688 " fill-opacity="1" fill-rule="nonzero"/><path fill="#0d02b1" d="M 413.425781 513.429688 C 410.480469 513.429688 408.089844 511.039062 408.089844 508.09375 L 408.089844 478.964844 C 408.089844 476.019531 410.480469 473.628906 413.425781 473.628906 C 416.371094 473.628906 418.761719 476.019531 418.761719 478.964844 L 418.761719 508.09375 C 418.761719 511.039062 416.371094 513.429688 413.425781 513.429688 " fill-opacity="1" fill-rule="nonzero"/><path fill="#0d02b1" d="M 456.410156 542.253906 L 314.75 542.253906 C 311.804688 542.253906 309.414062 539.867188 309.414062 536.917969 L 309.414062 533.515625 C 309.414062 517.433594 322.496094 504.351562 338.578125 504.351562 L 444.542969 504.351562 C 447.363281 504.351562 450.152344 504.753906 452.832031 505.550781 C 455.65625 506.386719 457.269531 509.355469 456.429688 512.183594 C 455.59375 515.007812 452.621094 516.617188 449.796875 515.78125 C 448.101562 515.28125 446.335938 515.023438 444.542969 515.023438 L 338.578125 515.023438 C 329.035156 515.023438 321.15625 522.292969 320.1875 531.585938 L 456.410156 531.585938 C 459.355469 531.585938 461.746094 533.976562 461.746094 536.917969 C 461.746094 539.867188 459.355469 542.253906 456.410156 542.253906 " fill-opacity="1" fill-rule="nonzero"/><path fill="#0d02b1" d="M 221.273438 531.585938 L 292.273438 531.585938 L 292.273438 391.53125 L 221.273438 391.53125 Z M 293.558594 542.253906 L 219.988281 542.253906 C 214.8125 542.253906 210.601562 538.046875 210.601562 532.871094 L 210.601562 390.246094 C 210.601562 385.070312 214.8125 380.859375 219.988281 380.859375 L 293.558594 380.859375 C 298.734375 380.859375 302.945312 385.070312 302.945312 390.246094 L 302.945312 532.871094 C 302.945312 538.046875 298.734375 542.253906 293.558594 542.253906 " fill-opacity="1" fill-rule="nonzero"/><path fill="#0d02b1" d="M 297.609375 413.511719 L 215.9375 413.511719 C 212.988281 413.511719 210.601562 411.125 210.601562 408.175781 C 210.601562 405.230469 212.988281 402.839844 215.9375 402.839844 L 297.609375 402.839844 C 300.558594 402.839844 302.945312 405.230469 302.945312 408.175781 C 302.945312 411.125 300.558594 413.511719 297.609375 413.511719 " fill-opacity="1" fill-rule="nonzero"/><path fill="#0d02b1" d="M 297.609375 520.277344 L 215.9375 520.277344 C 212.988281 520.277344 210.601562 517.890625 210.601562 514.941406 C 210.601562 511.996094 212.988281 509.605469 215.9375 509.605469 L 297.609375 509.605469 C 300.558594 509.605469 302.945312 511.996094 302.945312 514.941406 C 302.945312 517.890625 300.558594 520.277344 297.609375 520.277344 " fill-opacity="1" fill-rule="nonzero"/><path fill="#0d02b1" d="M 456.648438 531.585938 L 588.726562 531.585938 L 588.726562 352.753906 L 456.648438 352.753906 Z M 588.96875 542.253906 L 456.40625 542.253906 C 450.65625 542.253906 445.976562 537.578125 445.976562 531.828125 L 445.976562 352.511719 C 445.976562 346.761719 450.65625 342.082031 456.40625 342.082031 L 588.96875 342.082031 C 594.722656 342.082031 599.398438 346.761719 599.398438 352.511719 L 599.398438 531.828125 C 599.398438 537.578125 594.722656 542.253906 588.96875 542.253906 " fill-opacity="1" fill-rule="nonzero"/><path fill="#0d02b1" d="M 474.4375 503.34375 L 570.941406 503.34375 L 570.941406 370.542969 L 474.4375 370.542969 Z M 576.277344 514.015625 L 469.101562 514.015625 C 466.15625 514.015625 463.765625 511.628906 463.765625 508.679688 L 463.765625 365.207031 C 463.765625 362.261719 466.15625 359.871094 469.101562 359.871094 L 576.277344 359.871094 C 579.222656 359.871094 581.613281 362.261719 581.613281 365.207031 L 581.613281 508.679688 C 581.613281 511.628906 579.222656 514.015625 576.277344 514.015625 " fill-opacity="1" fill-rule="nonzero"/><path fill="#0d02b1" d="M 527.742188 522.800781 C 527.742188 525.59375 525.484375 527.859375 522.6875 527.859375 C 519.898438 527.859375 517.632812 525.59375 517.632812 522.800781 C 517.632812 520.007812 519.898438 517.742188 522.6875 517.742188 C 525.484375 517.742188 527.742188 520.007812 527.742188 522.800781 " fill-opacity="1" fill-rule="nonzero"/><path fill="#0d02b1" d="M 405 81.003906 C 226.058594 81.003906 81 226.0625 81 405 C 81 583.941406 226.058594 729 405 729 C 583.941406 729 728.996094 583.941406 728.996094 405 C 728.996094 226.0625 583.941406 81.003906 405 81.003906 Z M 405 92.667969 C 426.199219 92.667969 447.378906 94.800781 467.957031 99.011719 C 488.007812 103.113281 507.722656 109.234375 526.566406 117.207031 C 545.074219 125.035156 562.921875 134.722656 579.621094 146 C 596.164062 157.175781 611.71875 170.007812 625.851562 184.144531 C 639.988281 198.28125 652.824219 213.835938 664 230.378906 C 675.277344 247.078125 684.964844 264.925781 692.792969 283.429688 C 700.765625 302.277344 706.886719 321.992188 710.984375 342.042969 C 715.199219 362.621094 717.332031 383.800781 717.332031 405 C 717.332031 426.199219 715.199219 447.382812 710.984375 467.960938 C 706.886719 488.011719 700.765625 507.726562 692.792969 526.570312 C 684.964844 545.074219 675.277344 562.925781 664 579.625 C 652.824219 596.164062 639.988281 611.71875 625.851562 625.855469 C 611.71875 639.992188 596.164062 652.824219 579.621094 664.003906 C 562.921875 675.28125 545.074219 684.96875 526.566406 692.796875 C 507.722656 700.765625 488.007812 706.886719 467.957031 710.988281 C 447.378906 715.199219 426.199219 717.335938 405 717.335938 C 383.800781 717.335938 362.617188 715.199219 342.039062 710.988281 C 321.992188 706.886719 302.273438 700.765625 283.429688 692.796875 C 264.921875 684.96875 247.074219 675.28125 230.378906 664.003906 C 213.835938 652.824219 198.28125 639.992188 184.144531 625.855469 C 170.007812 611.71875 157.175781 596.164062 146 579.625 C 134.71875 562.925781 125.03125 545.074219 117.203125 526.570312 C 109.234375 507.726562 103.113281 488.011719 99.011719 467.960938 C 94.800781 447.382812 92.664062 426.199219 92.664062 405 C 92.664062 383.800781 94.800781 362.621094 99.011719 342.042969 C 103.113281 321.992188 109.234375 302.277344 117.203125 283.429688 C 125.03125 264.925781 134.71875 247.078125 146 230.378906 C 157.175781 213.835938 170.007812 198.28125 184.144531 184.144531 C 198.28125 170.007812 213.835938 157.175781 230.378906 146 C 247.074219 134.722656 264.921875 125.035156 283.429688 117.207031 C 302.273438 109.234375 321.992188 103.113281 342.039062 99.011719 C 362.617188 94.800781 383.800781 92.667969 405 92.667969 " fill-opacity="1" fill-rule="nonzero"/><g clip-path="url(#c0a1cf7e64)"><path fill="#ffffff" d="M 451.3125 484.304688 L 297.609375 484.304688 C 294.660156 484.304688 292.273438 481.914062 292.273438 478.964844 C 292.273438 476.019531 294.660156 473.628906 297.609375 473.628906 L 451.3125 473.628906 C 454.261719 473.628906 456.648438 476.019531 456.648438 478.964844 C 456.648438 481.914062 454.261719 484.304688 451.3125 484.304688 " fill-opacity="1" fill-rule="nonzero"/></g><g clip-path="url(#c66d4c2ae5)"><path fill="#ffffff" d="M 243.226562 391.53125 C 240.277344 391.53125 237.890625 389.144531 237.890625 386.195312 L 237.890625 286.695312 C 237.890625 276.246094 246.394531 267.746094 256.84375 267.746094 L 526.277344 267.746094 C 536.726562 267.746094 545.230469 276.246094 545.230469 286.695312 L 545.230469 347.417969 C 545.230469 350.367188 542.839844 352.753906 539.890625 352.753906 C 536.945312 352.753906 534.554688 350.367188 534.554688 347.417969 L 534.554688 286.695312 C 534.554688 282.128906 530.839844 278.414062 526.277344 278.414062 L 256.84375 278.414062 C 252.277344 278.414062 248.5625 282.128906 248.5625 286.695312 L 248.5625 386.195312 C 248.5625 389.144531 246.175781 391.53125 243.226562 391.53125 " fill-opacity="1" fill-rule="nonzero"/></g><g clip-path="url(#fd1ff5c981)"><path fill="#ffffff" d="M 451.3125 438.855469 L 297.609375 438.855469 C 294.660156 438.855469 292.273438 436.46875 292.273438 433.519531 C 292.273438 430.574219 294.660156 428.183594 297.609375 428.183594 L 451.3125 428.183594 C 454.261719 428.183594 456.648438 430.574219 456.648438 433.519531 C 456.648438 436.46875 454.261719 438.855469 451.3125 438.855469 " fill-opacity="1" fill-rule="nonzero"/></g><g clip-path="url(#4fbc29aed4)"><path fill="#ffffff" d="M 398.140625 456.242188 C 398.140625 459.875 395.191406 462.820312 391.558594 462.820312 C 387.925781 462.820312 384.980469 459.875 384.980469 456.242188 C 384.980469 452.609375 387.925781 449.664062 391.558594 449.664062 C 395.191406 449.664062 398.140625 452.609375 398.140625 456.242188 " fill-opacity="1" fill-rule="nonzero"/></g><path fill="#ffffff" d="M 413.425781 513.429688 C 410.480469 513.429688 408.089844 511.039062 408.089844 508.09375 L 408.089844 478.964844 C 408.089844 476.019531 410.480469 473.628906 413.425781 473.628906 C 416.371094 473.628906 418.761719 476.019531 418.761719 478.964844 L 418.761719 508.09375 C 418.761719 511.039062 416.371094 513.429688 413.425781 513.429688 " fill-opacity="1" fill-rule="nonzero"/><g clip-path="url(#e6ba8b0846)"><path fill="#ffffff" d="M 456.410156 542.253906 L 314.75 542.253906 C 311.804688 542.253906 309.414062 539.867188 309.414062 536.917969 L 309.414062 533.515625 C 309.414062 517.433594 322.496094 504.351562 338.578125 504.351562 L 444.542969 504.351562 C 447.363281 504.351562 450.152344 504.753906 452.832031 505.550781 C 455.65625 506.386719 457.269531 509.355469 456.429688 512.183594 C 455.59375 515.007812 452.621094 516.617188 449.796875 515.78125 C 448.101562 515.28125 446.335938 515.023438 444.542969 515.023438 L 338.578125 515.023438 C 329.035156 515.023438 321.15625 522.292969 320.1875 531.585938 L 456.410156 531.585938 C 459.355469 531.585938 461.746094 533.976562 461.746094 536.917969 C 461.746094 539.867188 459.355469 542.253906 456.410156 542.253906 " fill-opacity="1" fill-rule="nonzero"/></g><path fill="#ffffff" d="M 456.648438 531.585938 L 588.726562 531.585938 L 588.726562 352.753906 L 456.648438 352.753906 Z M 588.96875 542.253906 L 456.40625 542.253906 C 450.65625 542.253906 445.976562 537.578125 445.976562 531.828125 L 445.976562 352.511719 C 445.976562 346.761719 450.65625 342.082031 456.40625 342.082031 L 588.96875 342.082031 C 594.722656 342.082031 599.398438 346.761719 599.398438 352.511719 L 599.398438 531.828125 C 599.398438 537.578125 594.722656 542.253906 588.96875 542.253906 " fill-opacity="1" fill-rule="nonzero"/><path fill="#ffffff" d="M 474.4375 503.34375 L 570.941406 503.34375 L 570.941406 370.542969 L 474.4375 370.542969 Z M 576.277344 514.015625 L 469.101562 514.015625 C 466.15625 514.015625 463.765625 511.628906 463.765625 508.679688 L 463.765625 365.207031 C 463.765625 362.261719 466.15625 359.871094 469.101562 359.871094 L 576.277344 359.871094 C 579.222656 359.871094 581.613281 362.261719 581.613281 365.207031 L 581.613281 508.679688 C 581.613281 511.628906 579.222656 514.015625 576.277344 514.015625 " fill-opacity="1" fill-rule="nonzero"/><path fill="#ffffff" d="M 527.742188 522.800781 C 527.742188 525.59375 525.484375 527.859375 522.6875 527.859375 C 519.898438 527.859375 517.632812 525.59375 517.632812 522.800781 C 517.632812 520.007812 519.898438 517.742188 522.6875 517.742188 C 525.484375 517.742188 527.742188 520.007812 527.742188 522.800781 " fill-opacity="1" fill-rule="nonzero"/><g clip-path="url(#db31adc9e2)"><path fill="#ffffff" d="M 405 81.003906 C 226.058594 81.003906 81 226.0625 81 405 C 81 583.941406 226.058594 729 405 729 C 583.941406 729 728.996094 583.941406 728.996094 405 C 728.996094 226.0625 583.941406 81.003906 405 81.003906 Z M 405 92.667969 C 426.199219 92.667969 447.378906 94.800781 467.957031 99.011719 C 488.007812 103.113281 507.722656 109.234375 526.566406 117.207031 C 545.074219 125.035156 562.921875 134.722656 579.621094 146 C 596.164062 157.175781 611.71875 170.007812 625.851562 184.144531 C 639.988281 198.28125 652.824219 213.835938 664 230.378906 C 675.277344 247.078125 684.964844 264.925781 692.792969 283.429688 C 700.765625 302.277344 706.886719 321.992188 710.984375 342.042969 C 715.199219 362.621094 717.332031 383.800781 717.332031 405 C 717.332031 426.199219 715.199219 447.382812 710.984375 467.960938 C 706.886719 488.011719 700.765625 507.726562 692.792969 526.570312 C 684.964844 545.074219 675.277344 562.925781 664 579.625 C 652.824219 596.164062 639.988281 611.71875 625.851562 625.855469 C 611.71875 639.992188 596.164062 652.824219 579.621094 664.003906 C 562.921875 675.28125 545.074219 684.96875 526.566406 692.796875 C 507.722656 700.765625 488.007812 706.886719 467.957031 710.988281 C 447.378906 715.199219 426.199219 717.335938 405 717.335938 C 383.800781 717.335938 362.617188 715.199219 342.039062 710.988281 C 321.992188 706.886719 302.273438 700.765625 283.429688 692.796875 C 264.921875 684.96875 247.074219 675.28125 230.378906 664.003906 C 213.835938 652.824219 198.28125 639.992188 184.144531 625.855469 C 170.007812 611.71875 157.175781 596.164062 146 579.625 C 134.71875 562.925781 125.03125 545.074219 117.203125 526.570312 C 109.234375 507.726562 103.113281 488.011719 99.011719 467.960938 C 94.800781 447.382812 92.664062 426.199219 92.664062 405 C 92.664062 383.800781 94.800781 362.621094 99.011719 342.042969 C 103.113281 321.992188 109.234375 302.277344 117.203125 283.429688 C 125.03125 264.925781 134.71875 247.078125 146 230.378906 C 157.175781 213.835938 170.007812 198.28125 184.144531 184.144531 C 198.28125 170.007812 213.835938 157.175781 230.378906 146 C 247.074219 134.722656 264.921875 125.035156 283.429688 117.207031 C 302.273438 109.234375 321.992188 103.113281 342.039062 99.011719 C 362.617188 94.800781 383.800781 92.667969 405 92.667969 " fill-opacity="1" fill-rule="nonzero"/></g></svg>